<?xml version="1.0" encoding="utf-8"?>
<!-- Generator: Adobe Illustrator 25.2.1, SVG Export Plug-In . SVG Version: 6.00 Build 0)  -->
<svg version="1.1" id="Layer_1" xmlns="http://www.w3.org/2000/svg" xmlns:xlink="http://www.w3.org/1999/xlink" x="0px" y="0px"
	 viewBox="0 0 460.8 345.6" style="enable-background:new 0 0 460.8 345.6;" xml:space="preserve">
<style type="text/css">
	.st0{fill:#FFFFFF;}
	.st1{stroke:#000000;stroke-width:0.8;stroke-linejoin:round;}
	.st2{stroke:#000000;stroke-width:0.6;stroke-linejoin:round;}
	.st3{clip-path:url(#SVGID_2_);fill:none;stroke:#1F77B4;stroke-width:1.5;stroke-linecap:square;stroke-linejoin:round;}
	.st4{clip-path:url(#SVGID_4_);fill:none;stroke:#808080;stroke-width:1.5;stroke-linejoin:round;stroke-dasharray:5.55,2.4;}
	.st5{fill:none;stroke:#000000;stroke-width:0.8;stroke-linecap:square;}
	.st6{fill:#808080;}
	.st7{font-family:'MyriadPro-Regular';}
	.st8{font-size:12px;}
</style>
<g id="figure_1">
	<g id="patch_1">
		<path class="st0" d="M0,345.6h460.8V0H0V345.6z"/>
	</g>
	<g id="axes_1">
		<g id="patch_2">
			<path class="st0" d="M57.6,307.6h357.1V41.5H57.6V307.6z"/>
		</g>
		<g id="matplotlib.axis_1">
			<g id="xtick_1">
				<g id="line2d_1">
					<g>
						<g>
							<path id="m19c1127dee" class="st1" d="M73.8,307.6v3.5"/>
						</g>
					</g>
				</g>
				<g id="text_1">
					<g transform="translate(70.651477 322.182437) scale(0.1 -0.1)">
						<g>
							<path id="DejaVuSans-30" d="M31.8,66.4c-5.1,0-8.9-2.5-11.5-7.5c-2.6-5-3.8-12.5-3.8-22.5c0-10,1.3-17.5,3.8-22.5
								c2.6-5,6.4-7.5,11.5-7.5c5.1,0,8.9,2.5,11.5,7.5c2.6,5,3.8,12.5,3.8,22.5c0,10-1.3,17.5-3.8,22.5
								C40.7,63.9,36.9,66.4,31.8,66.4z M31.8,74.2c8.2,0,14.4-3.2,18.7-9.7c4.3-6.5,6.5-15.8,6.5-28.1c0-12.3-2.2-21.6-6.5-28.1
								C46.2,1.8,40-1.4,31.8-1.4c-8.2,0-14.4,3.2-18.7,9.7c-4.3,6.5-6.5,15.8-6.5,28.1c0,12.3,2.2,21.7,6.5,28.1
								C17.4,71,23.6,74.2,31.8,74.2z"/>
						</g>
					</g>
				</g>
			</g>
			<g id="xtick_2">
				<g id="line2d_2">
					<g>
						<g>
							<path id="m19c1127dee_1_" class="st1" d="M114.4,307.6v3.5"/>
						</g>
					</g>
				</g>
				<g id="text_2">
					<g transform="translate(104.870795 322.182437) scale(0.1 -0.1)">
						<g>
							<path id="DejaVuSans-35" d="M10.8,72.9h38.7v-8.3H19.8V46.7c1.4,0.5,2.9,0.9,4.3,1.1c1.4,0.2,2.9,0.4,4.3,0.4
								c8.1,0,14.6-2.2,19.3-6.7c4.8-4.5,7.1-10.5,7.1-18.1c0-7.8-2.4-13.9-7.3-18.3c-4.9-4.3-11.8-6.5-20.7-6.5
								c-3.1,0-6.2,0.3-9.4,0.8c-3.2,0.5-6.4,1.3-9.8,2.3v9.9c2.9-1.6,6-2.8,9.1-3.6s6.4-1.2,9.9-1.2c5.6,0,10.1,1.5,13.4,4.4
								c3.3,3,4.9,7,4.9,12.1c0,5.1-1.6,9.1-4.9,12c-3.3,3-7.7,4.5-13.4,4.5c-2.6,0-5.3-0.3-7.9-0.9c-2.6-0.6-5.3-1.5-8-2.7V72.9z"
								/>
						</g>
						<g transform="translate(63.623047 0)">
							<path id="DejaVuSans-30_1_" d="M95.4,66.4c-5.1,0-8.9-2.5-11.5-7.5c-2.6-5-3.8-12.5-3.8-22.5c0-10,1.3-17.5,3.8-22.5
								c2.6-5,6.4-7.5,11.5-7.5c5.1,0,8.9,2.5,11.5,7.5c2.6,5,3.8,12.5,3.8,22.5c0,10-1.3,17.5-3.8,22.5
								C104.4,63.9,100.5,66.4,95.4,66.4z M95.4,74.2c8.2,0,14.4-3.2,18.7-9.7c4.3-6.5,6.5-15.8,6.5-28.1c0-12.3-2.2-21.6-6.5-28.1
								c-4.3-6.5-10.6-9.7-18.7-9.7c-8.2,0-14.4,3.2-18.7,9.7c-4.3,6.5-6.5,15.8-6.5,28.1c0,12.3,2.2,21.7,6.5,28.1
								C81,71,87.2,74.2,95.4,74.2z"/>
						</g>
						<g transform="translate(127.246094 0)">
							<path id="DejaVuSans-30_2_" d="M159,66.4c-5.1,0-8.9-2.5-11.5-7.5c-2.6-5-3.8-12.5-3.8-22.5c0-10,1.3-17.5,3.8-22.5
								c2.6-5,6.4-7.5,11.5-7.5c5.1,0,8.9,2.5,11.5,7.5c2.6,5,3.8,12.5,3.8,22.5c0,10-1.3,17.5-3.8,22.5
								C168,63.9,164.1,66.4,159,66.4z M159,74.2c8.2,0,14.4-3.2,18.7-9.7c4.3-6.5,6.5-15.8,6.5-28.1c0-12.3-2.2-21.6-6.5-28.1
								c-4.3-6.5-10.6-9.7-18.7-9.7c-8.2,0-14.4,3.2-18.7,9.7c-4.3,6.5-6.5,15.8-6.5,28.1c0,12.3,2.2,21.7,6.5,28.1
								C144.6,71,150.9,74.2,159,74.2z"/>
						</g>
					</g>
				</g>
			</g>
			<g id="xtick_3">
				<g id="line2d_3">
					<g>
						<g>
							<path id="m19c1127dee_2_" class="st1" d="M155,307.6v3.5"/>
						</g>
					</g>
				</g>
				<g id="text_3">
					<g transform="translate(142.271364 322.182437) scale(0.1 -0.1)">
						<g>
							<path id="DejaVuSans-31" d="M12.4,8.3h16.1v55.6L11,60.4v9l17.4,3.5h9.9V8.3h16.1V0h-42V8.3z"/>
						</g>
						<g transform="translate(63.623047 0)">
							<path id="DejaVuSans-30_3_" d="M95.4,66.4c-5.1,0-8.9-2.5-11.5-7.5c-2.6-5-3.8-12.5-3.8-22.5c0-10,1.3-17.5,3.8-22.5
								c2.6-5,6.4-7.5,11.5-7.5c5.1,0,8.9,2.5,11.5,7.5c2.6,5,3.8,12.5,3.8,22.5c0,10-1.3,17.5-3.8,22.5
								C104.4,63.9,100.5,66.4,95.4,66.4z M95.4,74.2c8.2,0,14.4-3.2,18.7-9.7c4.3-6.5,6.5-15.8,6.5-28.1c0-12.3-2.2-21.6-6.5-28.1
								c-4.3-6.5-10.6-9.7-18.7-9.7c-8.2,0-14.4,3.2-18.7,9.7c-4.3,6.5-6.5,15.8-6.5,28.1c0,12.3,2.2,21.7,6.5,28.1
								C81,71,87.2,74.2,95.4,74.2z"/>
						</g>
						<g transform="translate(127.246094 0)">
							<path id="DejaVuSans-30_4_" d="M159,66.4c-5.1,0-8.9-2.5-11.5-7.5c-2.6-5-3.8-12.5-3.8-22.5c0-10,1.3-17.5,3.8-22.5
								c2.6-5,6.4-7.5,11.5-7.5c5.1,0,8.9,2.5,11.5,7.5c2.6,5,3.8,12.5,3.8,22.5c0,10-1.3,17.5-3.8,22.5
								C168,63.9,164.1,66.4,159,66.4z M159,74.2c8.2,0,14.4-3.2,18.7-9.7c4.3-6.5,6.5-15.8,6.5-28.1c0-12.3-2.2-21.6-6.5-28.1
								c-4.3-6.5-10.6-9.7-18.7-9.7c-8.2,0-14.4,3.2-18.7,9.7c-4.3,6.5-6.5,15.8-6.5,28.1c0,12.3,2.2,21.7,6.5,28.1
								C144.6,71,150.9,74.2,159,74.2z"/>
						</g>
						<g transform="translate(190.869141 0)">
							<path id="DejaVuSans-30_5_" d="M222.7,66.4c-5.1,0-8.9-2.5-11.5-7.5c-2.6-5-3.8-12.5-3.8-22.5c0-10,1.3-17.5,3.8-22.5
								c2.6-5,6.4-7.5,11.5-7.5c5.1,0,8.9,2.5,11.5,7.5c2.6,5,3.8,12.5,3.8,22.5c0,10-1.3,17.5-3.8,22.5
								C231.6,63.9,227.8,66.4,222.7,66.4z M222.7,74.2c8.2,0,14.4-3.2,18.7-9.7c4.3-6.5,6.5-15.8,6.5-28.1
								c0-12.3-2.2-21.6-6.5-28.1c-4.3-6.5-10.6-9.7-18.7-9.7c-8.2,0-14.4,3.2-18.7,9.7c-4.3,6.5-6.5,15.8-6.5,28.1
								c0,12.3,2.2,21.7,6.5,28.1C208.2,71,214.5,74.2,222.7,74.2z"/>
						</g>
					</g>
				</g>
			</g>
			<g id="xtick_4">
				<g id="line2d_4">
					<g>
						<g>
							<path id="m19c1127dee_3_" class="st1" d="M195.6,307.6v3.5"/>
						</g>
					</g>
				</g>
				<g id="text_4">
					<g transform="translate(182.853182 322.182437) scale(0.1 -0.1)">
						<g>
							<path id="DejaVuSans-31_1_" d="M12.4,8.3h16.1v55.6L11,60.4v9l17.4,3.5h9.9V8.3h16.1V0h-42V8.3z"/>
						</g>
						<g transform="translate(63.623047 0)">
							<path id="DejaVuSans-35_1_" d="M74.4,72.9h38.7v-8.3H83.5V46.7c1.4,0.5,2.9,0.9,4.3,1.1c1.4,0.2,2.9,0.4,4.3,0.4
								c8.1,0,14.6-2.2,19.3-6.7c4.8-4.5,7.1-10.5,7.1-18.1c0-7.8-2.4-13.9-7.3-18.3c-4.9-4.3-11.8-6.5-20.7-6.5
								c-3.1,0-6.2,0.3-9.4,0.8c-3.2,0.5-6.4,1.3-9.8,2.3v9.9c2.9-1.6,6-2.8,9.1-3.6s6.4-1.2,9.9-1.2c5.6,0,10.1,1.5,13.4,4.4
								c3.3,3,4.9,7,4.9,12.1c0,5.1-1.6,9.1-4.9,12c-3.3,3-7.7,4.5-13.4,4.5c-2.6,0-5.3-0.3-7.9-0.9c-2.6-0.6-5.3-1.5-8-2.7V72.9z"
								/>
						</g>
						<g transform="translate(127.246094 0)">
							<path id="DejaVuSans-30_6_" d="M159,66.4c-5.1,0-8.9-2.5-11.5-7.5c-2.6-5-3.8-12.5-3.8-22.5c0-10,1.3-17.5,3.8-22.5
								c2.6-5,6.4-7.5,11.5-7.5c5.1,0,8.9,2.5,11.5,7.5c2.6,5,3.8,12.5,3.8,22.5c0,10-1.3,17.5-3.8,22.5
								C168,63.9,164.1,66.4,159,66.4z M159,74.2c8.2,0,14.4-3.2,18.7-9.7c4.3-6.5,6.5-15.8,6.5-28.1c0-12.3-2.2-21.6-6.5-28.1
								c-4.3-6.5-10.6-9.7-18.7-9.7c-8.2,0-14.4,3.2-18.7,9.7c-4.3,6.5-6.5,15.8-6.5,28.1c0,12.3,2.2,21.7,6.5,28.1
								C144.6,71,150.9,74.2,159,74.2z"/>
						</g>
						<g transform="translate(190.869141 0)">
							<path id="DejaVuSans-30_7_" d="M222.7,66.4c-5.1,0-8.9-2.5-11.5-7.5c-2.6-5-3.8-12.5-3.8-22.5c0-10,1.3-17.5,3.8-22.5
								c2.6-5,6.4-7.5,11.5-7.5c5.1,0,8.9,2.5,11.5,7.5c2.6,5,3.8,12.5,3.8,22.5c0,10-1.3,17.5-3.8,22.5
								C231.6,63.9,227.8,66.4,222.7,66.4z M222.7,74.2c8.2,0,14.4-3.2,18.7-9.7c4.3-6.5,6.5-15.8,6.5-28.1
								c0-12.3-2.2-21.6-6.5-28.1c-4.3-6.5-10.6-9.7-18.7-9.7c-8.2,0-14.4,3.2-18.7,9.7c-4.3,6.5-6.5,15.8-6.5,28.1
								c0,12.3,2.2,21.7,6.5,28.1C208.2,71,214.5,74.2,222.7,74.2z"/>
						</g>
					</g>
				</g>
			</g>
			<g id="xtick_5">
				<g id="line2d_5">
					<g>
						<g>
							<path id="m19c1127dee_4_" class="st1" d="M236.2,307.6v3.5"/>
						</g>
					</g>
				</g>
				<g id="text_5">
					<g transform="translate(223.435 322.182437) scale(0.1 -0.1)">
						<g>
							<path id="DejaVuSans-32" d="M19.2,8.3h34.4V0H7.3v8.3c3.7,3.9,8.8,9.1,15.3,15.6c6.5,6.5,10.5,10.7,12.2,12.6
								c3.2,3.5,5.4,6.5,6.6,9c1.3,2.5,1.9,4.9,1.9,7.2c0,3.9-1.4,7-4.1,9.5c-2.7,2.4-6.3,3.7-10.6,3.7c-3.1,0-6.4-0.5-9.8-1.6
								c-3.4-1.1-7.1-2.7-11-4.9v10c4,1.6,7.7,2.8,11.1,3.6c3.5,0.8,6.6,1.2,9.5,1.2c7.6,0,13.6-1.9,18.1-5.7
								c4.5-3.8,6.7-8.8,6.7-15.1c0-3-0.6-5.8-1.7-8.5c-1.1-2.7-3.2-5.8-6.1-9.5c-0.8-0.9-3.4-3.7-7.8-8.2
								C33.3,22.7,27.1,16.4,19.2,8.3z"/>
						</g>
						<g transform="translate(63.623047 0)">
							<path id="DejaVuSans-30_8_" d="M95.4,66.4c-5.1,0-8.9-2.5-11.5-7.5c-2.6-5-3.8-12.5-3.8-22.5c0-10,1.3-17.5,3.8-22.5
								c2.6-5,6.4-7.5,11.5-7.5c5.1,0,8.9,2.5,11.5,7.5c2.6,5,3.8,12.5,3.8,22.5c0,10-1.3,17.5-3.8,22.5
								C104.4,63.9,100.5,66.4,95.4,66.4z M95.4,74.2c8.2,0,14.4-3.2,18.7-9.7c4.3-6.5,6.5-15.8,6.5-28.1c0-12.3-2.2-21.6-6.5-28.1
								c-4.3-6.5-10.6-9.7-18.7-9.7c-8.2,0-14.4,3.2-18.7,9.7c-4.3,6.5-6.5,15.8-6.5,28.1c0,12.3,2.2,21.7,6.5,28.1
								C81,71,87.2,74.2,95.4,74.2z"/>
						</g>
						<g transform="translate(127.246094 0)">
							<path id="DejaVuSans-30_9_" d="M159,66.4c-5.1,0-8.9-2.5-11.5-7.5c-2.6-5-3.8-12.5-3.8-22.5c0-10,1.3-17.5,3.8-22.5
								c2.6-5,6.4-7.5,11.5-7.5c5.1,0,8.9,2.5,11.5,7.5c2.6,5,3.8,12.5,3.8,22.5c0,10-1.3,17.5-3.8,22.5
								C168,63.9,164.1,66.4,159,66.4z M159,74.2c8.2,0,14.4-3.2,18.7-9.7c4.3-6.5,6.5-15.8,6.5-28.1c0-12.3-2.2-21.6-6.5-28.1
								c-4.3-6.5-10.6-9.7-18.7-9.7c-8.2,0-14.4,3.2-18.7,9.7c-4.3,6.5-6.5,15.8-6.5,28.1c0,12.3,2.2,21.7,6.5,28.1
								C144.6,71,150.9,74.2,159,74.2z"/>
						</g>
						<g transform="translate(190.869141 0)">
							<path id="DejaVuSans-30_10_" d="M222.7,66.4c-5.1,0-8.9-2.5-11.5-7.5c-2.6-5-3.8-12.5-3.8-22.5c0-10,1.3-17.5,3.8-22.5
								c2.6-5,6.4-7.5,11.5-7.5c5.1,0,8.9,2.5,11.5,7.5c2.6,5,3.8,12.5,3.8,22.5c0,10-1.3,17.5-3.8,22.5
								C231.6,63.9,227.8,66.4,222.7,66.4z M222.7,74.2c8.2,0,14.4-3.2,18.7-9.7c4.3-6.5,6.5-15.8,6.5-28.1
								c0-12.3-2.2-21.6-6.5-28.1c-4.3-6.5-10.6-9.7-18.7-9.7c-8.2,0-14.4,3.2-18.7,9.7c-4.3,6.5-6.5,15.8-6.5,28.1
								c0,12.3,2.2,21.7,6.5,28.1C208.2,71,214.5,74.2,222.7,74.2z"/>
						</g>
					</g>
				</g>
			</g>
			<g id="xtick_6">
				<g id="line2d_6">
					<g>
						<g>
							<path id="m19c1127dee_5_" class="st1" d="M276.7,307.6v3.5"/>
						</g>
					</g>
				</g>
				<g id="text_6">
					<g transform="translate(264.016818 322.182437) scale(0.1 -0.1)">
						<g>
							<path id="DejaVuSans-32_1_" d="M19.2,8.3h34.4V0H7.3v8.3c3.7,3.9,8.8,9.1,15.3,15.6c6.5,6.5,10.5,10.7,12.2,12.6
								c3.2,3.5,5.4,6.5,6.6,9c1.3,2.5,1.9,4.9,1.9,7.2c0,3.9-1.4,7-4.1,9.5c-2.7,2.4-6.3,3.7-10.6,3.7c-3.1,0-6.4-0.5-9.8-1.6
								c-3.4-1.1-7.1-2.7-11-4.9v10c4,1.6,7.7,2.8,11.1,3.6c3.5,0.8,6.6,1.2,9.5,1.2c7.6,0,13.6-1.9,18.1-5.7
								c4.5-3.8,6.7-8.8,6.7-15.1c0-3-0.6-5.8-1.7-8.5c-1.1-2.7-3.2-5.8-6.1-9.5c-0.8-0.9-3.4-3.7-7.8-8.2
								C33.3,22.7,27.1,16.4,19.2,8.3z"/>
						</g>
						<g transform="translate(63.623047 0)">
							<path id="DejaVuSans-35_2_" d="M74.4,72.9h38.7v-8.3H83.5V46.7c1.4,0.5,2.9,0.9,4.3,1.1c1.4,0.2,2.9,0.4,4.3,0.4
								c8.1,0,14.6-2.2,19.3-6.7c4.8-4.5,7.1-10.5,7.1-18.1c0-7.8-2.4-13.9-7.3-18.3c-4.9-4.3-11.8-6.5-20.7-6.5
								c-3.1,0-6.2,0.3-9.4,0.8c-3.2,0.5-6.4,1.3-9.8,2.3v9.9c2.9-1.6,6-2.8,9.1-3.6s6.4-1.2,9.9-1.2c5.6,0,10.1,1.5,13.4,4.4
								c3.3,3,4.9,7,4.9,12.1c0,5.1-1.6,9.1-4.9,12c-3.3,3-7.7,4.5-13.4,4.5c-2.6,0-5.3-0.3-7.9-0.9c-2.6-0.6-5.3-1.5-8-2.7V72.9z"
								/>
						</g>
						<g transform="translate(127.246094 0)">
							<path id="DejaVuSans-30_11_" d="M159,66.4c-5.1,0-8.9-2.5-11.5-7.5c-2.6-5-3.8-12.5-3.8-22.5c0-10,1.3-17.5,3.8-22.5
								c2.6-5,6.4-7.5,11.5-7.5c5.1,0,8.9,2.5,11.5,7.5c2.6,5,3.8,12.5,3.8,22.5c0,10-1.3,17.5-3.8,22.5
								C168,63.9,164.1,66.4,159,66.4z M159,74.2c8.2,0,14.4-3.2,18.7-9.7c4.3-6.5,6.5-15.8,6.5-28.1c0-12.3-2.2-21.6-6.5-28.1
								c-4.3-6.5-10.6-9.7-18.7-9.7c-8.2,0-14.4,3.2-18.7,9.7c-4.3,6.5-6.5,15.8-6.5,28.1c0,12.3,2.2,21.7,6.5,28.1
								C144.6,71,150.9,74.2,159,74.2z"/>
						</g>
						<g transform="translate(190.869141 0)">
							<path id="DejaVuSans-30_12_" d="M222.7,66.4c-5.1,0-8.9-2.5-11.5-7.5c-2.6-5-3.8-12.5-3.8-22.5c0-10,1.3-17.5,3.8-22.5
								c2.6-5,6.4-7.5,11.5-7.5c5.1,0,8.9,2.5,11.5,7.5c2.6,5,3.8,12.5,3.8,22.5c0,10-1.3,17.5-3.8,22.5
								C231.6,63.9,227.8,66.4,222.7,66.4z M222.7,74.2c8.2,0,14.4-3.2,18.7-9.7c4.3-6.5,6.5-15.8,6.5-28.1
								c0-12.3-2.2-21.6-6.5-28.1c-4.3-6.5-10.6-9.7-18.7-9.7c-8.2,0-14.4,3.2-18.7,9.7c-4.3,6.5-6.5,15.8-6.5,28.1
								c0,12.3,2.2,21.7,6.5,28.1C208.2,71,214.5,74.2,222.7,74.2z"/>
						</g>
					</g>
				</g>
			</g>
			<g id="xtick_7">
				<g id="line2d_7">
					<g>
						<g>
							<path id="m19c1127dee_6_" class="st1" d="M317.3,307.6v3.5"/>
						</g>
					</g>
				</g>
				<g id="text_7">
					<g transform="translate(304.598636 322.182437) scale(0.1 -0.1)">
						<g>
							<path id="DejaVuSans-33" d="M40.6,39.3c4.7-1,8.4-3.1,11-6.3c2.7-3.2,4-7.1,4-11.8c0-7.2-2.5-12.8-7.4-16.7
								c-4.9-3.9-12-5.9-21.1-5.9c-3.1,0-6.2,0.3-9.4,0.9S11.1,1,7.6,2.2v9.5c2.7-1.6,5.7-2.8,9-3.6c3.3-0.8,6.7-1.2,10.2-1.2
								c6.2,0,10.9,1.2,14.1,3.7s4.9,6,4.9,10.6c0,4.3-1.5,7.7-4.5,10.1c-3,2.4-7.2,3.6-12.6,3.6h-8.5V43h8.9c4.8,0,8.6,1,11.1,2.9
								s3.9,4.7,3.9,8.4c0,3.7-1.3,6.6-4,8.6c-2.6,2-6.4,3-11.4,3c-2.7,0-5.6-0.3-8.7-0.9c-3.1-0.6-6.5-1.5-10.2-2.7v8.8
								c3.8,1,7.3,1.8,10.5,2.3s6.4,0.8,9.2,0.8c7.5,0,13.4-1.7,17.8-5.1c4.4-3.4,6.5-8,6.5-13.8c0-4-1.2-7.5-3.5-10.2
								S44.8,40.4,40.6,39.3z"/>
						</g>
						<g transform="translate(63.623047 0)">
							<path id="DejaVuSans-30_13_" d="M95.4,66.4c-5.1,0-8.9-2.5-11.5-7.5c-2.6-5-3.8-12.5-3.8-22.5c0-10,1.3-17.5,3.8-22.5
								c2.6-5,6.4-7.5,11.5-7.5c5.1,0,8.9,2.5,11.5,7.5c2.6,5,3.8,12.5,3.8,22.5c0,10-1.3,17.5-3.8,22.5
								C104.4,63.9,100.5,66.4,95.4,66.4z M95.4,74.2c8.2,0,14.4-3.2,18.7-9.7c4.3-6.5,6.5-15.8,6.5-28.1c0-12.3-2.2-21.6-6.5-28.1
								c-4.3-6.5-10.6-9.7-18.7-9.7c-8.2,0-14.4,3.2-18.7,9.7c-4.3,6.5-6.5,15.8-6.5,28.1c0,12.3,2.2,21.7,6.5,28.1
								C81,71,87.2,74.2,95.4,74.2z"/>
						</g>
						<g transform="translate(127.246094 0)">
							<path id="DejaVuSans-30_14_" d="M159,66.4c-5.1,0-8.9-2.5-11.5-7.5c-2.6-5-3.8-12.5-3.8-22.5c0-10,1.3-17.5,3.8-22.5
								c2.6-5,6.4-7.5,11.5-7.5c5.1,0,8.9,2.5,11.5,7.5c2.6,5,3.8,12.5,3.8,22.5c0,10-1.3,17.5-3.8,22.5
								C168,63.9,164.1,66.4,159,66.4z M159,74.2c8.2,0,14.4-3.2,18.7-9.7c4.3-6.5,6.5-15.8,6.5-28.1c0-12.3-2.2-21.6-6.5-28.1
								c-4.3-6.5-10.6-9.7-18.7-9.7c-8.2,0-14.4,3.2-18.7,9.7c-4.3,6.5-6.5,15.8-6.5,28.1c0,12.3,2.2,21.7,6.5,28.1
								C144.6,71,150.9,74.2,159,74.2z"/>
						</g>
						<g transform="translate(190.869141 0)">
							<path id="DejaVuSans-30_15_" d="M222.7,66.4c-5.1,0-8.9-2.5-11.5-7.5c-2.6-5-3.8-12.5-3.8-22.5c0-10,1.3-17.5,3.8-22.5
								c2.6-5,6.4-7.5,11.5-7.5c5.1,0,8.9,2.5,11.5,7.5c2.6,5,3.8,12.5,3.8,22.5c0,10-1.3,17.5-3.8,22.5
								C231.6,63.9,227.8,66.4,222.7,66.4z M222.7,74.2c8.2,0,14.4-3.2,18.7-9.7c4.3-6.5,6.5-15.8,6.5-28.1
								c0-12.3-2.2-21.6-6.5-28.1c-4.3-6.5-10.6-9.7-18.7-9.7c-8.2,0-14.4,3.2-18.7,9.7c-4.3,6.5-6.5,15.8-6.5,28.1
								c0,12.3,2.2,21.7,6.5,28.1C208.2,71,214.5,74.2,222.7,74.2z"/>
						</g>
					</g>
				</g>
			</g>
			<g id="xtick_8">
				<g id="line2d_8">
					<g>
						<g>
							<path id="m19c1127dee_7_" class="st1" d="M357.9,307.6v3.5"/>
						</g>
					</g>
				</g>
				<g id="text_8">
					<g transform="translate(345.180455 322.182437) scale(0.1 -0.1)">
						<g>
							<path id="DejaVuSans-33_1_" d="M40.6,39.3c4.7-1,8.4-3.1,11-6.3c2.7-3.2,4-7.1,4-11.8c0-7.2-2.5-12.8-7.4-16.7
								c-4.9-3.9-12-5.9-21.1-5.9c-3.1,0-6.2,0.3-9.4,0.9S11.1,1,7.6,2.2v9.5c2.7-1.6,5.7-2.8,9-3.6c3.3-0.8,6.7-1.2,10.2-1.2
								c6.2,0,10.9,1.2,14.1,3.7s4.9,6,4.9,10.6c0,4.3-1.5,7.7-4.5,10.1c-3,2.4-7.2,3.6-12.6,3.6h-8.5V43h8.9c4.8,0,8.6,1,11.1,2.9
								s3.9,4.7,3.9,8.4c0,3.7-1.3,6.6-4,8.6c-2.6,2-6.4,3-11.4,3c-2.7,0-5.6-0.3-8.7-0.9c-3.1-0.6-6.5-1.5-10.2-2.7v8.8
								c3.8,1,7.3,1.8,10.5,2.3s6.4,0.8,9.3,0.8c7.5,0,13.4-1.7,17.8-5.1c4.4-3.4,6.5-8,6.5-13.8c0-4-1.2-7.5-3.5-10.2
								S44.8,40.4,40.6,39.3z"/>
						</g>
						<g transform="translate(63.623047 0)">
							<path id="DejaVuSans-35_3_" d="M74.4,72.9h38.7v-8.3H83.5V46.7c1.4,0.5,2.9,0.9,4.3,1.1c1.4,0.2,2.9,0.4,4.3,0.4
								c8.1,0,14.6-2.2,19.3-6.7c4.8-4.5,7.1-10.5,7.1-18.1c0-7.8-2.4-13.9-7.3-18.3c-4.9-4.3-11.8-6.5-20.7-6.5
								c-3.1,0-6.2,0.3-9.4,0.8c-3.2,0.5-6.4,1.3-9.8,2.3v9.9c2.9-1.6,6-2.8,9.1-3.6s6.4-1.2,9.9-1.2c5.6,0,10.1,1.5,13.4,4.4
								c3.3,3,4.9,7,4.9,12.1c0,5.1-1.6,9.1-4.9,12c-3.3,3-7.7,4.5-13.4,4.5c-2.6,0-5.3-0.3-7.9-0.9c-2.6-0.6-5.3-1.5-8-2.7V72.9z"
								/>
						</g>
						<g transform="translate(127.246094 0)">
							<path id="DejaVuSans-30_16_" d="M159,66.4c-5.1,0-8.9-2.5-11.5-7.5c-2.6-5-3.8-12.5-3.8-22.5c0-10,1.3-17.5,3.8-22.5
								c2.6-5,6.4-7.5,11.5-7.5c5.1,0,8.9,2.5,11.5,7.5c2.6,5,3.8,12.5,3.8,22.5c0,10-1.3,17.5-3.8,22.5
								C168,63.9,164.1,66.4,159,66.4z M159,74.2c8.2,0,14.4-3.2,18.7-9.7c4.3-6.5,6.5-15.8,6.5-28.1c0-12.3-2.2-21.6-6.5-28.1
								c-4.3-6.5-10.6-9.7-18.7-9.7c-8.2,0-14.4,3.2-18.7,9.7c-4.3,6.5-6.5,15.8-6.5,28.1c0,12.3,2.2,21.7,6.5,28.1
								C144.6,71,150.9,74.2,159,74.2z"/>
						</g>
						<g transform="translate(190.869141 0)">
							<path id="DejaVuSans-30_17_" d="M222.7,66.4c-5.1,0-8.9-2.5-11.5-7.5c-2.6-5-3.8-12.5-3.8-22.5c0-10,1.3-17.5,3.8-22.5
								c2.6-5,6.4-7.5,11.5-7.5c5.1,0,8.9,2.5,11.5,7.5c2.6,5,3.8,12.5,3.8,22.5c0,10-1.3,17.5-3.8,22.5
								C231.6,63.9,227.8,66.4,222.7,66.4z M222.7,74.2c8.2,0,14.4-3.2,18.7-9.7c4.3-6.5,6.5-15.8,6.5-28.1
								c0-12.3-2.2-21.6-6.5-28.1c-4.3-6.5-10.6-9.7-18.7-9.7c-8.2,0-14.4,3.2-18.7,9.7c-4.3,6.5-6.5,15.8-6.5,28.1
								c0,12.3,2.2,21.7,6.5,28.1C208.2,71,214.5,74.2,222.7,74.2z"/>
						</g>
					</g>
				</g>
			</g>
			<g id="xtick_9">
				<g id="line2d_9">
					<g>
						<g>
							<path id="m19c1127dee_8_" class="st1" d="M398.5,307.6v3.5"/>
						</g>
					</g>
				</g>
				<g id="text_9">
					<g transform="translate(385.762273 322.182437) scale(0.1 -0.1)">
						<g>
							<path id="DejaVuSans-34" d="M37.8,64.3L12.9,25.4h24.9V64.3z M35.2,72.9h12.4V25.4H58v-8.2H47.6V0h-9.8v17.2H4.9v9.5
								L35.2,72.9z"/>
						</g>
						<g transform="translate(63.623047 0)">
							<path id="DejaVuSans-30_18_" d="M95.4,66.4c-5.1,0-8.9-2.5-11.5-7.5c-2.6-5-3.8-12.5-3.8-22.5c0-10,1.3-17.5,3.8-22.5
								c2.6-5,6.4-7.5,11.5-7.5c5.1,0,8.9,2.5,11.5,7.5c2.6,5,3.8,12.5,3.8,22.5c0,10-1.3,17.5-3.8,22.5
								C104.4,63.9,100.5,66.4,95.4,66.4z M95.4,74.2c8.2,0,14.4-3.2,18.7-9.7c4.3-6.5,6.5-15.8,6.5-28.1c0-12.3-2.2-21.6-6.5-28.1
								c-4.3-6.5-10.6-9.7-18.7-9.7c-8.2,0-14.4,3.2-18.7,9.7c-4.3,6.5-6.5,15.8-6.5,28.1c0,12.3,2.2,21.7,6.5,28.1
								C81,71,87.2,74.2,95.4,74.2z"/>
						</g>
						<g transform="translate(127.246094 0)">
							<path id="DejaVuSans-30_19_" d="M159,66.4c-5.1,0-8.9-2.5-11.5-7.5c-2.6-5-3.8-12.5-3.8-22.5c0-10,1.3-17.5,3.8-22.5
								c2.6-5,6.4-7.5,11.5-7.5c5.1,0,8.9,2.5,11.5,7.5c2.6,5,3.8,12.5,3.8,22.5c0,10-1.3,17.5-3.8,22.5
								C168,63.9,164.1,66.4,159,66.4z M159,74.2c8.2,0,14.4-3.2,18.7-9.7c4.3-6.5,6.5-15.8,6.5-28.1c0-12.3-2.2-21.6-6.5-28.1
								c-4.3-6.5-10.6-9.7-18.7-9.7c-8.2,0-14.4,3.2-18.7,9.7c-4.3,6.5-6.5,15.8-6.5,28.1c0,12.3,2.2,21.7,6.5,28.1
								C144.6,71,150.9,74.2,159,74.2z"/>
						</g>
						<g transform="translate(190.869141 0)">
							<path id="DejaVuSans-30_20_" d="M222.7,66.4c-5.1,0-8.9-2.5-11.5-7.5c-2.6-5-3.8-12.5-3.8-22.5c0-10,1.3-17.5,3.8-22.5
								c2.6-5,6.4-7.5,11.5-7.5c5.1,0,8.9,2.5,11.5,7.5c2.6,5,3.8,12.5,3.8,22.5c0,10-1.3,17.5-3.8,22.5
								C231.6,63.9,227.8,66.4,222.7,66.4z M222.7,74.2c8.2,0,14.4-3.2,18.7-9.7c4.3-6.5,6.5-15.8,6.5-28.1
								c0-12.3-2.2-21.6-6.5-28.1c-4.3-6.5-10.6-9.7-18.7-9.7c-8.2,0-14.4,3.2-18.7,9.7c-4.3,6.5-6.5,15.8-6.5,28.1
								c0,12.3,2.2,21.7,6.5,28.1C208.2,71,214.5,74.2,222.7,74.2z"/>
						</g>
					</g>
				</g>
			</g>
			<g id="text_10">
				<g transform="translate(187.421719 335.860562) scale(0.1 -0.1)">
					<g>
						<path id="DejaVuSans-47" d="M59.5,10.4V30H43.4v8.1h25.9V6.8c-3.8-2.7-8-4.7-12.6-6.1C52.1-0.7,47.2-1.4,42-1.4
							c-11.4,0-20.3,3.3-26.8,10c-6.4,6.7-9.6,15.9-9.6,27.8c0,11.9,3.2,21.2,9.6,27.9c6.4,6.7,15.4,10,26.8,10
							c4.8,0,9.3-0.6,13.5-1.8c4.3-1.2,8.2-2.9,11.8-5.2V56.8c-3.6,3.1-7.5,5.4-11.6,7s-8.4,2.3-12.9,2.3c-8.9,0-15.6-2.5-20.1-7.5
							c-4.5-5-6.7-12.4-6.7-22.3c0-9.8,2.2-17.2,6.7-22.2c4.5-5,11.2-7.5,20.1-7.5c3.5,0,6.6,0.3,9.3,0.9
							C54.9,8.2,57.3,9.1,59.5,10.4z"/>
					</g>
					<g transform="translate(77.490234 0)">
						<path id="DejaVuSans-65" d="M133.7,29.6v-4.4H92.4c0.4-6.2,2.3-10.9,5.6-14.1c3.3-3.2,8-4.9,13.9-4.9c3.4,0,6.8,0.4,10,1.3
							c3.2,0.8,6.5,2.1,9.7,3.8V2.8c-3.2-1.4-6.5-2.4-9.9-3.1c-3.4-0.7-6.8-1.1-10.3-1.1c-8.7,0-15.6,2.5-20.7,7.6
							c-5.1,5.1-7.6,12-7.6,20.6c0,8.9,2.4,16,7.2,21.3c4.8,5.3,11.4,7.9,19.6,7.9c7.4,0,13.2-2.4,17.5-7.1
							C131.6,44.2,133.7,37.7,133.7,29.6z M124.7,32.2c-0.1,4.9-1.4,8.8-4.1,11.8c-2.7,2.9-6.2,4.4-10.7,4.4c-5,0-9-1.4-12-4.2
							c-3-2.8-4.7-6.8-5.2-12L124.7,32.2z"/>
					</g>
					<g transform="translate(139.013672 0)">
						<path id="DejaVuSans-6e" d="M193.9,33V0h-9v32.7c0,5.2-1,9-3,11.6c-2,2.6-5,3.9-9.1,3.9c-4.9,0-8.7-1.5-11.5-4.6
							c-2.8-3.1-4.2-7.3-4.2-12.6V0h-9v54.7h9v-8.5c2.2,3.3,4.7,5.8,7.6,7.4c2.9,1.6,6.3,2.4,10.1,2.4c6.3,0,11-1.9,14.2-5.8
							C192.3,46.3,193.9,40.6,193.9,33z"/>
					</g>
					<g transform="translate(202.392578 0)">
						<path id="DejaVuSans-65_1_" d="M258.6,29.6v-4.4h-41.3c0.4-6.2,2.3-10.9,5.6-14.1c3.3-3.2,8-4.9,13.9-4.9
							c3.4,0,6.8,0.4,10,1.3c3.2,0.8,6.5,2.1,9.7,3.8V2.8c-3.2-1.4-6.5-2.4-9.9-3.1c-3.4-0.7-6.8-1.1-10.3-1.1
							c-8.7,0-15.6,2.5-20.7,7.6c-5.1,5.1-7.6,12-7.6,20.6c0,8.9,2.4,16,7.2,21.3c4.8,5.3,11.4,7.9,19.6,7.9
							c7.4,0,13.2-2.4,17.5-7.1C256.5,44.2,258.6,37.7,258.6,29.6z M249.6,32.2c-0.1,4.9-1.4,8.8-4.1,11.8
							c-2.7,2.9-6.2,4.4-10.7,4.4c-5,0-9-1.4-12-4.2c-3-2.8-4.7-6.8-5.2-12L249.6,32.2z"/>
					</g>
					<g transform="translate(263.916016 0)">
						<path id="DejaVuSans-72" d="M305,46.3c-1,0.6-2.1,1-3.3,1.3c-1.2,0.3-2.5,0.4-3.9,0.4c-5.1,0-9-1.7-11.7-5s-4.1-8-4.1-14.2V0
							h-9v54.7h9v-8.5c1.9,3.3,4.4,5.8,7.4,7.4c3,1.6,6.7,2.4,11,2.4c0.6,0,1.3,0,2-0.1c0.8-0.1,1.6-0.2,2.5-0.4L305,46.3z"/>
					</g>
					<g transform="translate(305.029297 0)">
						<path id="DejaVuSans-61" d="M339.3,27.5c-7.3,0-12.3-0.8-15.1-2.5c-2.8-1.7-4.2-4.5-4.2-8.5c0-3.2,1.1-5.7,3.2-7.6
							c2.1-1.9,5-2.8,8.6-2.8c5,0,9,1.8,12,5.3c3,3.5,4.5,8.2,4.5,14.1v2H339.3z M357.2,31.2V0h-9v8.3c-2.1-3.3-4.6-5.8-7.7-7.3
							s-6.8-2.4-11.2-2.4c-5.6,0-10,1.6-13.4,4.7c-3.3,3.1-5,7.4-5,12.6c0,6.1,2.1,10.8,6.2,13.9c4.1,3.1,10.3,4.7,18.4,4.7h12.6
							v0.9c0,4.1-1.4,7.3-4.1,9.6s-6.5,3.4-11.5,3.4c-3.1,0-6.2-0.4-9.1-1.1c-3-0.8-5.8-1.9-8.5-3.4v8.3c3.3,1.3,6.5,2.2,9.6,2.8
							c3.1,0.6,6.1,1,9,1c7.9,0,13.8-2.1,17.7-6.2C355.3,45.7,357.2,39.5,357.2,31.2z"/>
					</g>
					<g transform="translate(366.308594 0)">
						<path id="DejaVuSans-74" d="M384.6,70.2V54.7h18.5v-7h-18.5V18c0-4.5,0.6-7.3,1.8-8.6s3.7-1.9,7.5-1.9h9.2V0h-9.2
							c-6.9,0-11.7,1.3-14.4,3.9c-2.6,2.6-4,7.3-4,14.1v29.7H369v7h6.6v15.5H384.6z"/>
					</g>
					<g transform="translate(405.517578 0)">
						<path id="DejaVuSans-69" d="M414.9,54.7h9V0h-9V54.7z M414.9,76h9V64.6h-9V76z"/>
					</g>
					<g transform="translate(433.300781 0)">
						<path id="DejaVuSans-6f" d="M463.9,48.4c-4.8,0-8.6-1.9-11.4-5.6c-2.8-3.8-4.2-8.9-4.2-15.5s1.4-11.7,4.2-15.5
							c2.8-3.8,6.6-5.6,11.5-5.6c4.8,0,8.6,1.9,11.4,5.7c2.8,3.8,4.2,8.9,4.2,15.4c0,6.5-1.4,11.6-4.2,15.4
							C472.5,46.5,468.7,48.4,463.9,48.4z M463.9,56c7.8,0,13.9-2.5,18.4-7.6c4.5-5.1,6.7-12.1,6.7-21.1c0-8.9-2.2-16-6.7-21.1
							c-4.5-5.1-10.6-7.6-18.4-7.6c-7.8,0-14,2.5-18.4,7.6c-4.4,5.1-6.7,12.1-6.7,21.1c0,9,2.2,16,6.7,21.1
							C449.9,53.5,456.1,56,463.9,56z"/>
					</g>
					<g transform="translate(494.482422 0)">
						<path id="DejaVuSans-6e_1_" d="M549.4,33V0h-9v32.7c0,5.2-1,9-3,11.6c-2,2.6-5,3.9-9.1,3.9c-4.9,0-8.7-1.5-11.5-4.6
							c-2.8-3.1-4.2-7.3-4.2-12.6V0h-9v54.7h9v-8.5c2.2,3.3,4.7,5.8,7.6,7.4c2.9,1.6,6.3,2.4,10.1,2.4c6.3,0,11-1.9,14.2-5.8
							C547.8,46.3,549.4,40.6,549.4,33z"/>
					</g>
					<g transform="translate(557.861328 0)">
						<path id="DejaVuSans-73" d="M602.1,53.1v-8.5c-2.5,1.3-5.2,2.3-7.9,2.9c-2.7,0.7-5.6,1-8.5,1c-4.5,0-7.8-0.7-10-2
							c-2.2-1.4-3.3-3.4-3.3-6.2c0-2.1,0.8-3.7,2.4-4.9s4.8-2.3,9.6-3.4l3.1-0.7c6.4-1.4,10.9-3.3,13.6-5.8s4-6,4-10.4
							c0-5.1-2-9.1-6-12.1c-4-3-9.5-4.4-16.6-4.4c-2.9,0-6,0.3-9.2,0.9c-3.2,0.6-6.5,1.4-10,2.6v9.3c3.3-1.7,6.6-3,9.8-3.9
							c3.2-0.9,6.4-1.3,9.6-1.3c4.2,0,7.5,0.7,9.8,2.2c2.3,1.4,3.4,3.5,3.4,6.1c0,2.4-0.8,4.3-2.5,5.6c-1.6,1.3-5.2,2.6-10.8,3.8
							l-3.1,0.7c-5.6,1.2-9.6,3-12.1,5.4c-2.5,2.4-3.7,5.8-3.7,10c0,5.1,1.8,9.1,5.5,11.9c3.6,2.8,8.8,4.2,15.5,4.2
							c3.3,0,6.4-0.2,9.4-0.7C597,54.8,599.7,54.1,602.1,53.1z"/>
					</g>
					<g transform="translate(609.960938 0)">
						<path id="DejaVuSans-20" d="M610,0"/>
					</g>
					<g transform="translate(641.748047 0)">
						<path id="DejaVuSans-49" d="M651.6,72.9h9.9V0h-9.9V72.9z"/>
					</g>
					<g transform="translate(671.240234 0)">
						<path id="DejaVuSans-6e_2_" d="M726.1,33V0h-9v32.7c0,5.2-1,9-3,11.6c-2,2.6-5,3.9-9.1,3.9c-4.9,0-8.7-1.5-11.5-4.6
							c-2.8-3.1-4.2-7.3-4.2-12.6V0h-9v54.7h9v-8.5c2.2,3.3,4.7,5.8,7.6,7.4c2.9,1.6,6.3,2.4,10.1,2.4c6.3,0,11-1.9,14.2-5.8
							C724.5,46.3,726.1,40.6,726.1,33z"/>
					</g>
					<g transform="translate(734.619141 0)">
						<path id="DejaVuSans-20_1_" d="M734.6,0"/>
					</g>
					<g transform="translate(766.40625 0)">
						<path id="DejaVuSans-50" d="M786.1,64.8V37.4h12.4c4.6,0,8.1,1.2,10.6,3.6c2.5,2.4,3.8,5.8,3.8,10.2c0,4.4-1.3,7.7-3.8,10.1
							c-2.5,2.4-6,3.6-10.6,3.6H786.1z M776.2,72.9h22.3c8.2,0,14.4-1.8,18.5-5.5c4.2-3.7,6.3-9.1,6.3-16.2c0-7.2-2.1-12.6-6.3-16.3
							c-4.2-3.7-10.4-5.5-18.5-5.5h-12.4V0h-9.9V72.9z"/>
					</g>
					<g transform="translate(822.208984 0)">
						<path id="DejaVuSans-61_1_" d="M856.5,27.5c-7.3,0-12.3-0.8-15.1-2.5c-2.8-1.7-4.2-4.5-4.2-8.5c0-3.2,1.1-5.7,3.2-7.6
							c2.1-1.9,5-2.8,8.6-2.8c5,0,9,1.8,12,5.3c3,3.5,4.5,8.2,4.5,14.1v2H856.5z M874.4,31.2V0h-9v8.3c-2.1-3.3-4.6-5.8-7.7-7.3
							s-6.8-2.4-11.2-2.4c-5.6,0-10,1.6-13.4,4.7c-3.3,3.1-5,7.4-5,12.6c0,6.1,2.1,10.8,6.2,13.9c4.1,3.1,10.3,4.7,18.4,4.7h12.6
							v0.9c0,4.1-1.4,7.3-4.1,9.6s-6.5,3.4-11.5,3.4c-3.1,0-6.2-0.4-9.1-1.1c-3-0.8-5.8-1.9-8.5-3.4v8.3c3.3,1.3,6.5,2.2,9.6,2.8
							c3.1,0.6,6.1,1,9,1c7.9,0,13.8-2.1,17.7-6.2C872.5,45.7,874.4,39.5,874.4,31.2z"/>
					</g>
					<g transform="translate(883.488281 0)">
						<path id="DejaVuSans-73_1_" d="M927.8,53.1v-8.5c-2.5,1.3-5.2,2.3-7.9,2.9c-2.7,0.7-5.6,1-8.5,1c-4.5,0-7.8-0.7-10-2
							c-2.2-1.4-3.3-3.4-3.3-6.2c0-2.1,0.8-3.7,2.4-4.9s4.8-2.3,9.6-3.4l3.1-0.7c6.4-1.4,10.9-3.3,13.6-5.8s4-6,4-10.4
							c0-5.1-2-9.1-6-12.1c-4-3-9.5-4.4-16.6-4.4c-2.9,0-6,0.3-9.2,0.9c-3.2,0.6-6.5,1.4-10,2.6v9.3c3.3-1.7,6.6-3,9.8-3.9
							c3.2-0.9,6.4-1.3,9.6-1.3c4.2,0,7.5,0.7,9.8,2.2c2.3,1.4,3.4,3.5,3.4,6.1c0,2.4-0.8,4.3-2.5,5.6c-1.6,1.3-5.2,2.6-10.8,3.8
							l-3.1,0.7c-5.6,1.2-9.6,3-12.1,5.4c-2.5,2.4-3.7,5.8-3.7,10c0,5.1,1.8,9.1,5.5,11.9c3.6,2.8,8.8,4.2,15.5,4.2
							c3.3,0,6.4-0.2,9.4-0.7C922.6,54.8,925.3,54.1,927.8,53.1z"/>
					</g>
					<g transform="translate(935.587891 0)">
						<path id="DejaVuSans-74_1_" d="M953.9,70.2V54.7h18.5v-7h-18.5V18c0-4.5,0.6-7.3,1.8-8.6s3.7-1.9,7.5-1.9h9.2V0h-9.2
							c-6.9,0-11.7,1.3-14.4,3.9c-2.6,2.6-4,7.3-4,14.1v29.7h-6.6v7h6.6v15.5H953.9z"/>
					</g>
				</g>
			</g>
		</g>
		<g id="matplotlib.axis_2">
			<g id="ytick_1">
				<g id="line2d_10">
					<g>
						<g>
							<path id="m53155093ee" class="st1" d="M57.6,299.5h-3.5"/>
						</g>
					</g>
				</g>
				<g id="text_11">
					<g transform="translate(27.1 303.316569) scale(0.1 -0.1)">
						<g transform="translate(0 0.765625)">
							<path id="DejaVuSans-31_2_" d="M12.4,9.1h16.1v55.6L11,61.2v9l17.4,3.5h9.9V9.1h16.1V0.8h-42V9.1z"/>
						</g>
						<g transform="translate(63.623047 0.765625)">
							<path id="DejaVuSans-30_21_" d="M95.4,67.2c-5.1,0-8.9-2.5-11.5-7.5c-2.6-5-3.8-12.5-3.8-22.5c0-10,1.3-17.5,3.8-22.5
								c2.6-5,6.4-7.5,11.5-7.5c5.1,0,8.9,2.5,11.5,7.5c2.6,5,3.8,12.5,3.8,22.5c0,10-1.3,17.5-3.8,22.5
								C104.4,64.7,100.5,67.2,95.4,67.2z M95.4,75c8.2,0,14.4-3.2,18.7-9.7c4.3-6.5,6.5-15.8,6.5-28.1c0-12.3-2.2-21.6-6.5-28.1
								c-4.3-6.5-10.6-9.7-18.7-9.7C87.2-0.7,81,2.6,76.7,9c-4.3,6.5-6.5,15.8-6.5,28.1c0,12.3,2.2,21.7,6.5,28.1
								C81,71.7,87.2,75,95.4,75z"/>
						</g>
						<g transform="translate(128.203125 39.046875) scale(0.7)">
							<path id="DejaVuSans-2212" d="M135.6,63.9h43.8v-5.8h-43.8V63.9z"/>
						</g>
						<g transform="translate(186.855469 39.046875) scale(0.7)">
							<path id="DejaVuSans-33_2_" d="M215.3,66.6c3.3-0.7,5.9-2.2,7.7-4.4c1.9-2.2,2.8-5,2.8-8.3c0-5-1.7-8.9-5.2-11.7
								c-3.5-2.8-8.4-4.1-14.8-4.1c-2.1,0-4.3,0.2-6.6,0.6c-2.3,0.4-4.6,1.1-7,1.9v6.7c1.9-1.1,4-2,6.3-2.5c2.3-0.6,4.7-0.9,7.2-0.9
								c4.3,0,7.6,0.9,9.9,2.6c2.3,1.7,3.4,4.2,3.4,7.4c0,3-1.1,5.4-3.2,7.1c-2.1,1.7-5,2.5-8.8,2.5H201v5.7h6.2c3.4,0,6,0.7,7.8,2
								c1.8,1.4,2.7,3.3,2.7,5.9c0,2.6-0.9,4.6-2.8,6c-1.9,1.4-4.5,2.1-8,2.1c-1.9,0-3.9-0.2-6.1-0.6c-2.2-0.4-4.5-1-7.1-1.9v6.1
								c2.6,0.7,5.1,1.3,7.4,1.6s4.4,0.5,6.5,0.5c5.2,0,9.4-1.2,12.4-3.6c3.1-2.4,4.6-5.6,4.6-9.6c0-2.8-0.8-5.2-2.4-7.2
								C220.5,68.7,218.2,67.3,215.3,66.6z"/>
						</g>
					</g>
				</g>
			</g>
			<g id="ytick_2">
				<g id="line2d_11">
					<g>
						<g>
							<path id="m53155093ee_1_" class="st1" d="M57.6,217.5h-3.5"/>
						</g>
					</g>
				</g>
				<g id="text_12">
					<g transform="translate(27.1 221.333452) scale(0.1 -0.1)">
						<g transform="translate(0 0.765625)">
							<path id="DejaVuSans-31_3_" d="M12.4,9.1h16.1v55.6L11,61.2v9l17.4,3.5h9.9V9.1h16.1V0.8h-42V9.1z"/>
						</g>
						<g transform="translate(63.623047 0.765625)">
							<path id="DejaVuSans-30_22_" d="M95.4,67.2c-5.1,0-8.9-2.5-11.5-7.5c-2.6-5-3.8-12.5-3.8-22.5c0-10,1.3-17.5,3.8-22.5
								c2.6-5,6.4-7.5,11.5-7.5c5.1,0,8.9,2.5,11.5,7.5c2.6,5,3.8,12.5,3.8,22.5c0,10-1.3,17.5-3.8,22.5
								C104.4,64.7,100.5,67.2,95.4,67.2z M95.4,75c8.2,0,14.4-3.2,18.7-9.7c4.3-6.5,6.5-15.8,6.5-28.1c0-12.3-2.2-21.6-6.5-28.1
								c-4.3-6.5-10.6-9.7-18.7-9.7C87.2-0.7,81,2.6,76.7,9c-4.3,6.5-6.5,15.8-6.5,28.1c0,12.3,2.2,21.7,6.5,28.1
								C81,71.7,87.2,75,95.4,75z"/>
						</g>
						<g transform="translate(128.203125 39.046875) scale(0.7)">
							<path id="DejaVuSans-2212_1_" d="M135.6,63.9h43.8v-5.8h-43.8V63.9z"/>
						</g>
						<g transform="translate(186.855469 39.046875) scale(0.7)">
							<path id="DejaVuSans-32_2_" d="M200.3,44.9h24.1V39H192v5.8c2.6,2.7,6.2,6.4,10.7,10.9c4.5,4.6,7.4,7.5,8.5,8.8
								c2.2,2.5,3.8,4.6,4.6,6.3c0.9,1.7,1.3,3.4,1.3,5.1c0,2.7-1,4.9-2.9,6.6c-1.9,1.7-4.4,2.6-7.4,2.6c-2.2,0-4.5-0.4-6.9-1.1
								c-2.4-0.8-5-1.9-7.7-3.4v7c2.8,1.1,5.4,2,7.8,2.5c2.4,0.6,4.6,0.9,6.6,0.9c5.3,0,9.5-1.3,12.6-4c3.1-2.6,4.7-6.2,4.7-10.6
								c0-2.1-0.4-4.1-1.2-6c-0.8-1.9-2.2-4.1-4.3-6.6c-0.6-0.7-2.4-2.6-5.4-5.7C210.2,54.9,205.9,50.5,200.3,44.9z"/>
						</g>
					</g>
				</g>
			</g>
			<g id="ytick_3">
				<g id="line2d_12">
					<g>
						<g>
							<path id="m53155093ee_2_" class="st1" d="M57.6,135.6h-3.5"/>
						</g>
					</g>
				</g>
				<g id="text_13">
					<g transform="translate(27.1 139.350336) scale(0.1 -0.1)">
						<g transform="translate(0 0.684375)">
							<path id="DejaVuSans-31_4_" d="M12.4,9h16.1v55.6L11,61.1v9l17.4,3.5h9.9V9h16.1V0.7h-42V9z"/>
						</g>
						<g transform="translate(63.623047 0.684375)">
							<path id="DejaVuSans-30_23_" d="M95.4,67.1c-5.1,0-8.9-2.5-11.5-7.5c-2.6-5-3.8-12.5-3.8-22.5c0-10,1.3-17.5,3.8-22.5
								c2.6-5,6.4-7.5,11.5-7.5c5.1,0,8.9,2.5,11.5,7.5c2.6,5,3.8,12.5,3.8,22.5c0,10-1.3,17.5-3.8,22.5
								C104.4,64.6,100.5,67.1,95.4,67.1z M95.4,74.9c8.2,0,14.4-3.2,18.7-9.7c4.3-6.5,6.5-15.8,6.5-28.1c0-12.3-2.2-21.6-6.5-28.1
								c-4.3-6.5-10.6-9.7-18.7-9.7c-8.2,0-14.4,3.2-18.7,9.7c-4.3,6.5-6.5,15.8-6.5,28.1c0,12.3,2.2,21.7,6.5,28.1
								C81,71.7,87.2,74.9,95.4,74.9z"/>
						</g>
						<g transform="translate(128.203125 38.965625) scale(0.7)">
							<path id="DejaVuSans-2212_2_" d="M135.6,63.8h43.8V58h-43.8V63.8z"/>
						</g>
						<g transform="translate(186.855469 38.965625) scale(0.7)">
							<path id="DejaVuSans-31_5_" d="M195.5,44.8h11.3v38.9l-12.3-2.5v6.3l12.2,2.5h6.9V44.8h11.3V39h-29.4V44.8z"/>
						</g>
					</g>
				</g>
			</g>
			<g id="ytick_4">
				<g id="line2d_13">
					<g>
						<g>
							<path id="m53155093ee_3_" class="st1" d="M57.6,53.6h-3.5"/>
						</g>
					</g>
				</g>
				<g id="text_14">
					<g transform="translate(33 57.367219) scale(0.1 -0.1)">
						<g transform="translate(0 0.765625)">
							<path id="DejaVuSans-31_6_" d="M12.4,9.1h16.1v55.6L11,61.2v9l17.4,3.5h9.9V9.1h16.1V0.8h-42V9.1z"/>
						</g>
						<g transform="translate(63.623047 0.765625)">
							<path id="DejaVuSans-30_24_" d="M95.4,67.2c-5.1,0-8.9-2.5-11.5-7.5c-2.6-5-3.8-12.5-3.8-22.5c0-10,1.3-17.5,3.8-22.5
								c2.6-5,6.4-7.5,11.5-7.5c5.1,0,8.9,2.5,11.5,7.5c2.6,5,3.8,12.5,3.8,22.5c0,10-1.3,17.5-3.8,22.5
								C104.4,64.7,100.5,67.2,95.4,67.2z M95.4,75c8.2,0,14.4-3.2,18.7-9.7c4.3-6.5,6.5-15.8,6.5-28.1c0-12.3-2.2-21.6-6.5-28.1
								c-4.3-6.5-10.6-9.7-18.7-9.7C87.2-0.7,81,2.6,76.7,9c-4.3,6.5-6.5,15.8-6.5,28.1c0,12.3,2.2,21.7,6.5,28.1
								C81,71.7,87.2,75,95.4,75z"/>
						</g>
						<g transform="translate(128.203125 39.046875) scale(0.7)">
							<path id="DejaVuSans-30_25_" d="M150.4,85.5c-3.6,0-6.2-1.8-8-5.2c-1.8-3.5-2.7-8.8-2.7-15.8c0-7,0.9-12.2,2.7-15.7
								c1.8-3.5,4.5-5.2,8-5.2c3.6,0,6.3,1.8,8.1,5.2c1.8,3.5,2.7,8.7,2.7,15.7c0,7-0.9,12.3-2.7,15.8
								C156.7,83.8,154,85.5,150.4,85.5z M150.4,91c5.7,0,10.1-2.3,13.1-6.8c3-4.5,4.5-11.1,4.5-19.7c0-8.6-1.5-15.1-4.5-19.7
								c-3-4.5-7.4-6.8-13.1-6.8c-5.7,0-10.1,2.3-13.1,6.8c-3,4.5-4.5,11.1-4.5,19.7c0,8.6,1.5,15.2,4.5,19.7
								C140.4,88.7,144.7,91,150.4,91z"/>
						</g>
					</g>
				</g>
			</g>
			<g id="ytick_5">
				<g id="line2d_14">
					<g>
						<g>
							<path id="m69a741a708" class="st2" d="M57.6,307.5h-2"/>
						</g>
					</g>
				</g>
			</g>
			<g id="ytick_6">
				<g id="line2d_15">
					<g>
						<g>
							<path id="m69a741a708_1_" class="st2" d="M57.6,303.3h-2"/>
						</g>
					</g>
				</g>
			</g>
			<g id="ytick_7">
				<g id="line2d_16">
					<g>
						<g>
							<path id="m69a741a708_2_" class="st2" d="M57.6,274.8h-2"/>
						</g>
					</g>
				</g>
			</g>
			<g id="ytick_8">
				<g id="line2d_17">
					<g>
						<g>
							<path id="m69a741a708_3_" class="st2" d="M57.6,260.4h-2"/>
						</g>
					</g>
				</g>
			</g>
			<g id="ytick_9">
				<g id="line2d_18">
					<g>
						<g>
							<path id="m69a741a708_4_" class="st2" d="M57.6,250.2h-2"/>
						</g>
					</g>
				</g>
			</g>
			<g id="ytick_10">
				<g id="line2d_19">
					<g>
						<g>
							<path id="m69a741a708_5_" class="st2" d="M57.6,242.2h-2"/>
						</g>
					</g>
				</g>
			</g>
			<g id="ytick_11">
				<g id="line2d_20">
					<g>
						<g>
							<path id="m69a741a708_6_" class="st2" d="M57.6,235.7h-2"/>
						</g>
					</g>
				</g>
			</g>
			<g id="ytick_12">
				<g id="line2d_21">
					<g>
						<g>
							<path id="m69a741a708_7_" class="st2" d="M57.6,230.2h-2"/>
						</g>
					</g>
				</g>
			</g>
			<g id="ytick_13">
				<g id="line2d_22">
					<g>
						<g>
							<path id="m69a741a708_8_" class="st2" d="M57.6,225.5h-2"/>
						</g>
					</g>
				</g>
			</g>
			<g id="ytick_14">
				<g id="line2d_23">
					<g>
						<g>
							<path id="m69a741a708_9_" class="st2" d="M57.6,221.3h-2"/>
						</g>
					</g>
				</g>
			</g>
			<g id="ytick_15">
				<g id="line2d_24">
					<g>
						<g>
							<path id="m69a741a708_10_" class="st2" d="M57.6,192.9h-2"/>
						</g>
					</g>
				</g>
			</g>
			<g id="ytick_16">
				<g id="line2d_25">
					<g>
						<g>
							<path id="m69a741a708_11_" class="st2" d="M57.6,178.4h-2"/>
						</g>
					</g>
				</g>
			</g>
			<g id="ytick_17">
				<g id="line2d_26">
					<g>
						<g>
							<path id="m69a741a708_12_" class="st2" d="M57.6,168.2h-2"/>
						</g>
					</g>
				</g>
			</g>
			<g id="ytick_18">
				<g id="line2d_27">
					<g>
						<g>
							<path id="m69a741a708_13_" class="st2" d="M57.6,160.2h-2"/>
						</g>
					</g>
				</g>
			</g>
			<g id="ytick_19">
				<g id="line2d_28">
					<g>
						<g>
							<path id="m69a741a708_14_" class="st2" d="M57.6,153.7h-2"/>
						</g>
					</g>
				</g>
			</g>
			<g id="ytick_20">
				<g id="line2d_29">
					<g>
						<g>
							<path id="m69a741a708_15_" class="st2" d="M57.6,148.3h-2"/>
						</g>
					</g>
				</g>
			</g>
			<g id="ytick_21">
				<g id="line2d_30">
					<g>
						<g>
							<path id="m69a741a708_16_" class="st2" d="M57.6,143.5h-2"/>
						</g>
					</g>
				</g>
			</g>
			<g id="ytick_22">
				<g id="line2d_31">
					<g>
						<g>
							<path id="m69a741a708_17_" class="st2" d="M57.6,139.3h-2"/>
						</g>
					</g>
				</g>
			</g>
			<g id="ytick_23">
				<g id="line2d_32">
					<g>
						<g>
							<path id="m69a741a708_18_" class="st2" d="M57.6,110.9h-2"/>
						</g>
					</g>
				</g>
			</g>
			<g id="ytick_24">
				<g id="line2d_33">
					<g>
						<g>
							<path id="m69a741a708_19_" class="st2" d="M57.6,96.4h-2"/>
						</g>
					</g>
				</g>
			</g>
			<g id="ytick_25">
				<g id="line2d_34">
					<g>
						<g>
							<path id="m69a741a708_20_" class="st2" d="M57.6,86.2h-2"/>
						</g>
					</g>
				</g>
			</g>
			<g id="ytick_26">
				<g id="line2d_35">
					<g>
						<g>
							<path id="m69a741a708_21_" class="st2" d="M57.6,78.2h-2"/>
						</g>
					</g>
				</g>
			</g>
			<g id="ytick_27">
				<g id="line2d_36">
					<g>
						<g>
							<path id="m69a741a708_22_" class="st2" d="M57.6,71.8h-2"/>
						</g>
					</g>
				</g>
			</g>
			<g id="ytick_28">
				<g id="line2d_37">
					<g>
						<g>
							<path id="m69a741a708_23_" class="st2" d="M57.6,66.3h-2"/>
						</g>
					</g>
				</g>
			</g>
			<g id="ytick_29">
				<g id="line2d_38">
					<g>
						<g>
							<path id="m69a741a708_24_" class="st2" d="M57.6,61.5h-2"/>
						</g>
					</g>
				</g>
			</g>
			<g id="ytick_30">
				<g id="line2d_39">
					<g>
						<g>
							<path id="m69a741a708_25_" class="st2" d="M57.6,57.3h-2"/>
						</g>
					</g>
				</g>
			</g>
			<g id="text_15">
				<g transform="translate(21.020312 243.185812) rotate(-90) scale(0.1 -0.1)">
					<g>
						<path id="DejaVuSans-50_1_" d="M19.7,64.8V37.4h12.4c4.6,0,8.1,1.2,10.6,3.6c2.5,2.4,3.8,5.8,3.8,10.2c0,4.4-1.3,7.7-3.8,10.1
							c-2.5,2.4-6,3.6-10.6,3.6H19.7z M9.8,72.9h22.3c8.2,0,14.4-1.8,18.5-5.5c4.2-3.7,6.3-9.1,6.3-16.2c0-7.2-2.1-12.6-6.3-16.3
							c-4.2-3.7-10.4-5.5-18.5-5.5H19.7V0H9.8V72.9z"/>
					</g>
					<g transform="translate(58.552734 0)">
						<path id="DejaVuSans-72_1_" d="M99.7,46.3c-1,0.6-2.1,1-3.3,1.3c-1.2,0.3-2.5,0.4-3.9,0.4c-5.1,0-9-1.7-11.7-5
							s-4.1-8-4.1-14.2V0h-9v54.7h9v-8.5c1.9,3.3,4.4,5.8,7.4,7.4c3,1.6,6.7,2.4,11,2.4c0.6,0,1.3,0,2-0.1c0.8-0.1,1.6-0.2,2.5-0.4
							L99.7,46.3z"/>
					</g>
					<g transform="translate(97.416016 0)">
						<path id="DejaVuSans-6f_1_" d="M128,48.4c-4.8,0-8.6-1.9-11.4-5.6s-4.2-8.9-4.2-15.5s1.4-11.7,4.2-15.5
							c2.8-3.8,6.6-5.6,11.5-5.6c4.8,0,8.6,1.9,11.4,5.7c2.8,3.8,4.2,8.9,4.2,15.4c0,6.5-1.4,11.6-4.2,15.4
							C136.6,46.5,132.8,48.4,128,48.4z M128,56c7.8,0,13.9-2.5,18.4-7.6c4.5-5.1,6.7-12.1,6.7-21.1c0-8.9-2.2-16-6.7-21.1
							C142,1.1,135.8-1.4,128-1.4c-7.8,0-14,2.5-18.4,7.6c-4.4,5.1-6.7,12.1-6.7,21.1c0,9,2.2,16,6.7,21.1C114,53.5,120.2,56,128,56
							z"/>
					</g>
					<g transform="translate(158.597656 0)">
						<path id="DejaVuSans-62" d="M207.3,27.3c0,6.6-1.4,11.8-4.1,15.5s-6.5,5.6-11.2,5.6c-4.8,0-8.5-1.9-11.2-5.6
							s-4.1-8.9-4.1-15.5s1.4-11.8,4.1-15.5s6.5-5.6,11.2-5.6c4.8,0,8.5,1.9,11.2,5.6S207.3,20.7,207.3,27.3z M176.7,46.4
							c1.9,3.2,4.3,5.7,7.2,7.2c2.9,1.6,6.3,2.4,10.3,2.4c6.6,0,12-2.6,16.2-7.9c4.2-5.3,6.2-12.2,6.2-20.8s-2.1-15.5-6.2-20.8
							c-4.1-5.3-9.5-7.9-16.2-7.9c-4,0-7.4,0.8-10.3,2.4c-2.9,1.6-5.3,4-7.2,7.2V0h-9v76h9V46.4z"/>
					</g>
					<g transform="translate(222.074219 0)">
						<path id="DejaVuSans-61_2_" d="M256.4,27.5c-7.3,0-12.3-0.8-15.1-2.5s-4.2-4.5-4.2-8.5c0-3.2,1.1-5.7,3.2-7.6
							c2.1-1.9,5-2.8,8.6-2.8c5,0,9,1.8,12,5.3s4.5,8.2,4.5,14.1v2H256.4z M274.3,31.2V0h-9v8.3c-2.1-3.3-4.6-5.8-7.7-7.3
							s-6.8-2.4-11.2-2.4c-5.6,0-10,1.6-13.4,4.7c-3.3,3.1-5,7.4-5,12.6c0,6.1,2.1,10.8,6.2,13.9c4.1,3.1,10.3,4.7,18.4,4.7h12.6
							v0.9c0,4.1-1.4,7.3-4.1,9.6s-6.5,3.4-11.5,3.4c-3.1,0-6.2-0.4-9.1-1.1c-3-0.8-5.8-1.9-8.5-3.4v8.3c3.3,1.3,6.5,2.2,9.6,2.8
							c3.1,0.6,6.1,1,9,1c7.9,0,13.8-2.1,17.7-6.2C272.3,45.7,274.3,39.5,274.3,31.2z"/>
					</g>
					<g transform="translate(283.353516 0)">
						<path id="DejaVuSans-62_1_" d="M332,27.3c0,6.6-1.4,11.8-4.1,15.5s-6.5,5.6-11.2,5.6c-4.8,0-8.5-1.9-11.2-5.6
							s-4.1-8.9-4.1-15.5s1.4-11.8,4.1-15.5s6.5-5.6,11.2-5.6c4.8,0,8.5,1.9,11.2,5.6S332,20.7,332,27.3z M301.5,46.4
							c1.9,3.2,4.3,5.7,7.2,7.2c2.9,1.6,6.3,2.4,10.3,2.4c6.6,0,12-2.6,16.2-7.9c4.2-5.3,6.2-12.2,6.2-20.8s-2.1-15.5-6.2-20.8
							c-4.1-5.3-9.5-7.9-16.2-7.9c-4,0-7.4,0.8-10.3,2.4c-2.9,1.6-5.3,4-7.2,7.2V0h-9v76h9V46.4z"/>
					</g>
					<g transform="translate(346.830078 0)">
						<path id="DejaVuSans-69_1_" d="M356.3,54.7h9V0h-9V54.7z M356.3,76h9V64.6h-9V76z"/>
					</g>
					<g transform="translate(374.613281 0)">
						<path id="DejaVuSans-6c" d="M384,76h9V0h-9V76z"/>
					</g>
					<g transform="translate(402.396484 0)">
						<path id="DejaVuSans-69_2_" d="M411.8,54.7h9V0h-9V54.7z M411.8,76h9V64.6h-9V76z"/>
					</g>
					<g transform="translate(430.179688 0)">
						<path id="DejaVuSans-74_2_" d="M448.5,70.2V54.7H467v-7h-18.5V18c0-4.5,0.6-7.3,1.8-8.6s3.7-1.9,7.5-1.9h9.2V0h-9.2
							c-6.9,0-11.7,1.3-14.4,3.9c-2.6,2.6-4,7.3-4,14.1v29.7h-6.6v7h6.6v15.5H448.5z"/>
					</g>
					<g transform="translate(469.388672 0)">
						<path id="DejaVuSans-79" d="M501.6-5.1c-2.5-6.5-5-10.8-7.4-12.7c-2.4-2-5.6-3-9.7-3h-7.2v7.5h5.3c2.5,0,4.4,0.6,5.8,1.8
							c1.4,1.2,2.9,3.9,4.5,8.3l1.6,4.1l-22.1,53.8h9.5L499,11.9l17.1,42.8h9.5L501.6-5.1z"/>
					</g>
					<g transform="translate(528.568359 0)">
						<path id="DejaVuSans-20_2_" d="M528.6,0"/>
					</g>
					<g transform="translate(560.355469 0)">
						<path id="DejaVuSans-4f" d="M599.8,66.2c-7.2,0-12.9-2.7-17.1-8c-4.2-5.3-6.3-12.6-6.3-21.8c0-9.2,2.1-16.4,6.3-21.8
							c4.2-5.3,9.9-8,17.1-8c7.2,0,12.8,2.7,17,8c4.2,5.3,6.3,12.6,6.3,21.8c0,9.2-2.1,16.5-6.3,21.8
							C612.6,63.5,606.9,66.2,599.8,66.2z M599.8,74.2c10.2,0,18.4-3.4,24.5-10.3c6.1-6.9,9.2-16,9.2-27.6c0-11.5-3.1-20.7-9.2-27.5
							C618.1,2,610-1.4,599.8-1.4c-10.2,0-18.4,3.4-24.6,10.2c-6.1,6.8-9.2,16-9.2,27.5s3.1,20.7,9.2,27.6
							C581.3,70.8,589.5,74.2,599.8,74.2z"/>
					</g>
					<g transform="translate(639.066406 0)">
						<path id="DejaVuSans-66" d="M676.2,76v-7.5h-8.6c-3.2,0-5.5-0.7-6.7-2c-1.2-1.3-1.9-3.6-1.9-7v-4.8h14.8v-7H659V0h-9v47.7
							h-8.6v7h8.6v3.8c0,6.1,1.4,10.5,4.2,13.3c2.8,2.8,7.3,4.2,13.5,4.2H676.2z"/>
					</g>
					<g transform="translate(674.271484 0)">
						<path id="DejaVuSans-20_3_" d="M674.3,0"/>
					</g>
					<g transform="translate(706.058594 0)">
						<path id="DejaVuSans-54" d="M705.8,72.9h61.7v-8.3h-25.9V0h-9.9v64.6h-25.9V72.9z"/>
					</g>
					<g transform="translate(752.392578 0)">
						<path id="DejaVuSans-72_2_" d="M793.5,46.3c-1,0.6-2.1,1-3.3,1.3c-1.2,0.3-2.5,0.4-3.9,0.4c-5.1,0-9-1.7-11.7-5
							s-4.1-8-4.1-14.2V0h-9v54.7h9v-8.5c1.9,3.3,4.4,5.8,7.4,7.4c3,1.6,6.7,2.4,11,2.4c0.6,0,1.3,0,2-0.1c0.8-0.1,1.6-0.2,2.5-0.4
							L793.5,46.3z"/>
					</g>
					<g transform="translate(793.505859 0)">
						<path id="DejaVuSans-75" d="M802,21.6v33.1h9V21.9c0-5.2,1-9.1,3-11.7c2-2.6,5.1-3.9,9.1-3.9c4.8,0,8.7,1.5,11.5,4.6
							c2.8,3.1,4.2,7.3,4.2,12.7v31h9V0h-9v8.4c-2.2-3.3-4.7-5.8-7.6-7.4c-2.9-1.6-6.2-2.4-10-2.4c-6.3,0-11.1,2-14.3,5.9
							C803.6,8.3,802,14.1,802,21.6z M824.6,56L824.6,56z"/>
					</g>
					<g transform="translate(856.884766 0)">
						<path id="DejaVuSans-65_2_" d="M913.1,29.6v-4.4h-41.3c0.4-6.2,2.3-10.9,5.6-14.1c3.3-3.2,8-4.9,13.9-4.9
							c3.4,0,6.8,0.4,10,1.3c3.2,0.8,6.5,2.1,9.7,3.8V2.8c-3.2-1.4-6.5-2.4-9.9-3.1c-3.4-0.7-6.8-1.1-10.3-1.1
							c-8.7,0-15.6,2.5-20.7,7.6c-5.1,5.1-7.6,12-7.6,20.6c0,8.9,2.4,16,7.2,21.3c4.8,5.3,11.4,7.9,19.6,7.9
							c7.4,0,13.2-2.4,17.5-7.1C910.9,44.2,913.1,37.7,913.1,29.6z M904.1,32.2c-0.1,4.9-1.4,8.8-4.1,11.8
							c-2.7,2.9-6.2,4.4-10.7,4.4c-5,0-9-1.4-12-4.2c-3-2.8-4.7-6.8-5.2-12L904.1,32.2z"/>
					</g>
					<g transform="translate(918.408203 0)">
						<path id="DejaVuSans-20_4_" d="M918.4,0"/>
					</g>
					<g transform="translate(950.195312 0)">
						<path id="DejaVuSans-4c" d="M960,72.9h9.9V8.3h35.5V0H960V72.9z"/>
					</g>
					<g transform="translate(1004.158203 0)">
						<path id="DejaVuSans-6f_2_" d="M1034.8,48.4c-4.8,0-8.6-1.9-11.4-5.6s-4.2-8.9-4.2-15.5s1.4-11.7,4.2-15.5
							c2.8-3.8,6.6-5.6,11.5-5.6c4.8,0,8.6,1.9,11.4,5.7c2.8,3.8,4.2,8.9,4.2,15.4c0,6.5-1.4,11.6-4.2,15.4
							C1043.4,46.5,1039.6,48.4,1034.8,48.4z M1034.8,56c7.8,0,13.9-2.5,18.4-7.6c4.5-5.1,6.7-12.1,6.7-21.1c0-8.9-2.2-16-6.7-21.1
							c-4.5-5.1-10.6-7.6-18.4-7.6c-7.8,0-14,2.5-18.4,7.6c-4.4,5.1-6.7,12.1-6.7,21.1c0,9,2.2,16,6.7,21.1
							C1020.8,53.5,1026.9,56,1034.8,56z"/>
					</g>
					<g transform="translate(1065.339844 0)">
						<path id="DejaVuSans-63" d="M1114.1,52.6v-8.4c-2.5,1.4-5.1,2.5-7.6,3.2s-5.1,1-7.7,1c-5.8,0-10.4-1.8-13.6-5.5
							c-3.2-3.7-4.8-8.9-4.8-15.5s1.6-11.9,4.8-15.6c3.2-3.7,7.8-5.5,13.6-5.5c2.6,0,5.2,0.3,7.7,1s5.1,1.7,7.6,3.2V2.1
							c-2.5-1.2-5.1-2-7.8-2.6c-2.7-0.6-5.5-0.9-8.6-0.9c-8.2,0-14.8,2.6-19.6,7.8c-4.8,5.2-7.3,12.2-7.3,21c0,8.9,2.4,15.9,7.3,21
							c4.9,5.1,11.6,7.7,20.2,7.7c2.8,0,5.5-0.3,8.1-0.9C1109.1,54.6,1111.6,53.7,1114.1,52.6z"/>
					</g>
					<g transform="translate(1120.320312 0)">
						<path id="DejaVuSans-61_3_" d="M1154.6,27.5c-7.3,0-12.3-0.8-15.1-2.5s-4.2-4.5-4.2-8.5c0-3.2,1.1-5.7,3.2-7.6
							c2.1-1.9,5-2.8,8.6-2.8c5,0,9,1.8,12,5.3s4.5,8.2,4.5,14.1v2H1154.6z M1172.5,31.2V0h-9v8.3c-2.1-3.3-4.6-5.8-7.7-7.3
							s-6.8-2.4-11.2-2.4c-5.6,0-10,1.6-13.4,4.7c-3.3,3.1-5,7.4-5,12.6c0,6.1,2.1,10.8,6.2,13.9c4.1,3.1,10.3,4.7,18.4,4.7h12.6
							v0.9c0,4.1-1.4,7.3-4.1,9.6s-6.5,3.4-11.5,3.4c-3.1,0-6.2-0.4-9.1-1.1c-3-0.8-5.8-1.9-8.5-3.4v8.3c3.3,1.3,6.5,2.2,9.6,2.8
							c3.1,0.6,6.1,1,9,1c7.9,0,13.8-2.1,17.7-6.2C1170.6,45.7,1172.5,39.5,1172.5,31.2z"/>
					</g>
					<g transform="translate(1181.599609 0)">
						<path id="DejaVuSans-74_3_" d="M1199.9,70.2V54.7h18.5v-7h-18.5V18c0-4.5,0.6-7.3,1.8-8.6s3.7-1.9,7.5-1.9h9.2V0h-9.2
							c-6.9,0-11.7,1.3-14.4,3.9c-2.6,2.6-4,7.3-4,14.1v29.7h-6.6v7h6.6v15.5H1199.9z"/>
					</g>
					<g transform="translate(1220.808594 0)">
						<path id="DejaVuSans-69_3_" d="M1230.2,54.7h9V0h-9V54.7z M1230.2,76h9V64.6h-9V76z"/>
					</g>
					<g transform="translate(1248.591797 0)">
						<path id="DejaVuSans-6f_3_" d="M1279.2,48.4c-4.8,0-8.6-1.9-11.4-5.6s-4.2-8.9-4.2-15.5s1.4-11.7,4.2-15.5
							c2.8-3.8,6.6-5.6,11.5-5.6c4.8,0,8.6,1.9,11.4,5.7c2.8,3.8,4.2,8.9,4.2,15.4c0,6.5-1.4,11.6-4.2,15.4
							C1287.8,46.5,1284,48.4,1279.2,48.4z M1279.2,56c7.8,0,13.9-2.5,18.4-7.6c4.5-5.1,6.7-12.1,6.7-21.1c0-8.9-2.2-16-6.7-21.1
							c-4.5-5.1-10.6-7.6-18.4-7.6c-7.8,0-14,2.5-18.4,7.6c-4.4,5.1-6.7,12.1-6.7,21.1c0,9,2.2,16,6.7,21.1
							C1265.2,53.5,1271.4,56,1279.2,56z"/>
					</g>
					<g transform="translate(1309.773438 0)">
						<path id="DejaVuSans-6e_3_" d="M1364.7,33V0h-9v32.7c0,5.2-1,9-3,11.6c-2,2.6-5,3.9-9.1,3.9c-4.9,0-8.7-1.5-11.5-4.6
							c-2.8-3.1-4.2-7.3-4.2-12.6V0h-9v54.7h9v-8.5c2.2,3.3,4.7,5.8,7.6,7.4c2.9,1.6,6.3,2.4,10.1,2.4c6.3,0,11-1.9,14.2-5.8
							C1363,46.3,1364.7,40.6,1364.7,33z"/>
					</g>
				</g>
			</g>
		</g>
		<g id="line2d_40">
			<g>
				<defs>
					<rect id="SVGID_1_" x="57.6" y="41.5" width="357.1" height="266.1"/>
				</defs>
				<clipPath id="SVGID_2_">
					<use xlink:href="#SVGID_1_"  style="overflow:visible;"/>
				</clipPath>
				<path class="st3" d="M73.8,53.6l0.8,6.5l0.8,19.6l0.8,53.5l0.8-1.9l0.8,0.8l0.8,2l1.6,5.3l0.8,6.9l0.8,2.3l0.8,12.6l1.6,1
					l1.6,1.1l0.8,9.1l2.4,0.9l0.8-1.4l0.8,16.5l0.8-14.2l0.8,6.4l1.6-1.6l0.8-10l0.8-0.4l0.8,7.5l0.8,0.4l0.8,16.8l0.8-16l0.8-3
					l0.8-7.3l0.8,0.5l0.8-4.7l0.8,0.2l0.8,6.7l0.8,20.5l0.8,25.3l1.6,11.3l0.8,6.3l0.8-23l0.8-1.6l0.8-2.4l0.8-13.6l0.8,8.5l0.8-2.6
					l0.8-2.1l0.8-10.3l0.8-0.5l0.8-0.3l0.8-0.1l0.8,0.1l0.8,0.2l1.6,0.8l0.8,3.3l0.8-8.4l0.8,1.1l0.8,5.1l0.8,2l0.8-0.1l0.8-7
					l0.8,0.8l2.4,0.8l1.6,5.4l2.4,1l0.8-1l0.8-1.4l1.6,0.6l0.8,1.7l1.6,0.4l0.8-0.7l0.8,2.6l0.8,0.1l0.8,7.5l0.8-6.4l2.4,0.8
					l0.8,0.6l0.8,0.3l0.8-0.2l0.8,0.3l0.8-1.4l0.8,2.4l2.4,0.5l0.8,1.4l0.8-1.1l0.8,0.2l0.8,7.9l3.2,0.3l0.8,0.7l0.8-4.3l0.8-3.3
					l3.2,0.7l0.8-1.8l2.4,0.5l0.8-0.6l4.9,1.3l0.8,1.9l1.6,0.4l0.8,2.2l1.6,0.4l0.8-1.9l0.8,2.3l0.8-0.5l1.6,0.4l0.8,0.9l1.6,0.4
					l0.8-2.2l1.6,0.4l0.8,2.6l0.8,0.2l0.8-2l1.6,0.3l0.8-1.2l0.8,0.2l0.8-0.2l2.4,0.5l0.8,1.8l0.8-1.2l0.8-0.3l4.9,0.8l0.8,1.4
					l0.8,0.1l0.8,1.3l5.7,0.6l0.8,1.2l0.8,0.1l0.8-2l0.8-1.1l2.4,0.3l0.8,1.2l1.6,0.2l0.8-0.4l0.8,1.3l0.8,2.1l0.8-2.7l0.8,0.1
					l0.8,1.5l0.8-1.6l1.6,2l0.8,0.1l0.8-1.2l6.5,0.5l0.8,2l1.6,0.1l0.8-1.2l0.8,0l0.8-0.6l2.4,0.2l0.8-0.4l0.8-0.1l0.8,1.2l1.6,0.1
					l0.8,1.3l0.8,0.1l0.8-1.4l1.6,0.2l0.8,1.6l3.2,0.3l2.4,0.2l0.8-1.5l0.8,0.1l0.8-0.7l3.2,0.3l0.8,0.8l0.8-0.6l5.7,0.5l0.8-0.1
					l2.4,0.2l0.8,0.2l4.1,0.3l0.8-0.2l2.4,0.2l0.8-0.2l0.8,0l0.8,0.8l0.8,0l0.8,1.2l0.8-1.3l0.8,0l0.8,1.2l0.8,0l0.8,1.7l2.4,0
					l0.8,2.5l4.1,0l0.8,0.7l0.8,0l0.8-2.1l6.5,0.3l0.8-2.1l0.8,0.7l0.8,0.1l0.8-0.3l0.8,0.1l1.6-1l0.8,0.1l0.8,1.6l0.8,2.4l0.8-2.2
					l0.8,3.6l7.3,0.5l0.8-2.5l0.8,1.5l0.8,7.4l0.8,0l0.8-1.1l1.6,0.1l0.8,2.9l0.8-0.7l0.8-2.1l3.2,0.2l0.8,2.9l0.8-3.5l1.6,0.1
					l0.8-2.8l0.8-2.3l7.3,0.5l0.8-1.8l0.8-1.3l0.8,1.3l4.9,0.4l0.8-1l0.8-0.1l1.6,0.1l0.8,1.4l4.1,0.3l0.8-1.2l0.8,1.3l0.8,2.2
					l0.8,2.7l0.8-2.6l0.8-2l0.8,0.1l0.8,0.4l0.8-1.2l1.6,0.1l0.8,2.3l0.8,0l0.8-0.5l0.8,2.4l0.8,0l0.8,2.3l0.8-0.7l2.4,0.1l0.8,0.8
					l5.7,0.2l0.8,2.5l0.8,0l0.8-5.6l0.8,0l0.8-1.9l0.8,0l0.8,0.3l0.8-1.5l0.8,0l0.8,1.3l0.8,0l0.8,3.7l0.8-2l0.8,0l0.8,0.2l0.8,2.1
					l0,0"/>
			</g>
		</g>
		<g id="line2d_41">
			<g>
				<defs>
					<rect id="SVGID_3_" x="57.6" y="41.5" width="357.1" height="266.1"/>
				</defs>
				<clipPath id="SVGID_4_">
					<use xlink:href="#SVGID_3_"  style="overflow:visible;"/>
				</clipPath>
				<path class="st4" d="M57.6,295.5h357.1"/>
			</g>
		</g>
		<g id="patch_3">
			<path class="st5" d="M57.6,307.6V41.5"/>
		</g>
		<g id="patch_4">
			<path class="st5" d="M414.7,307.6V41.5"/>
		</g>
		<g id="patch_5">
			<path class="st5" d="M57.6,307.6h357.1"/>
		</g>
		<g id="patch_6">
			<path class="st5" d="M57.6,41.5h357.1"/>
		</g>
	</g>
</g>
<text transform="matrix(1 0 0 1 183.7464 290.2574)" class="st6 st7 st8">Uniform Probability Across All Possible Demes</text>
</svg>
