<?xml version="1.0" encoding="utf-8" standalone="no"?>
<!DOCTYPE svg PUBLIC "-//W3C//DTD SVG 1.1//EN"
  "http://www.w3.org/Graphics/SVG/1.1/DTD/svg11.dtd">
<svg xmlns:xlink="http://www.w3.org/1999/xlink" width="460.8pt" height="345.6pt" viewBox="0 0 460.8 345.6" xmlns="http://www.w3.org/2000/svg" version="1.1">
 <metadata>
  <rdf:RDF xmlns:dc="http://purl.org/dc/elements/1.1/" xmlns:cc="http://creativecommons.org/ns#" xmlns:rdf="http://www.w3.org/1999/02/22-rdf-syntax-ns#">
   <cc:Work>
    <dc:type rdf:resource="http://purl.org/dc/dcmitype/StillImage"/>
    <dc:date>2025-08-19T15:17:45.649082</dc:date>
    <dc:format>image/svg+xml</dc:format>
    <dc:creator>
     <cc:Agent>
      <dc:title>Matplotlib v3.10.1, https://matplotlib.org/</dc:title>
     </cc:Agent>
    </dc:creator>
   </cc:Work>
  </rdf:RDF>
 </metadata>
 <defs>
  <style type="text/css">*{stroke-linejoin: round; stroke-linecap: butt}</style>
 </defs>
 <g id="figure_1">
  <g id="patch_1">
   <path d="M 0 345.6 
L 460.8 345.6 
L 460.8 0 
L 0 0 
z
" style="fill: #ffffff"/>
  </g>
  <g id="axes_1">
   <g id="patch_2">
    <path d="M 57.6 307.584 
L 414.72 307.584 
L 414.72 41.472 
L 57.6 41.472 
z
" style="fill: #ffffff"/>
   </g>
   <g id="matplotlib.axis_1">
    <g id="xtick_1">
     <g id="line2d_1">
      <defs>
       <path id="m05d376736c" d="M 0 0 
L 0 3.5 
" style="stroke: #000000; stroke-width: 0.8"/>
      </defs>
      <g>
       <use xlink:href="#m05d376736c" x="73.832727" y="307.584" style="stroke: #000000; stroke-width: 0.8"/>
      </g>
     </g>
     <g id="text_1">
      <!-- 0 -->
      <g transform="translate(70.651477 322.182437) scale(0.1 -0.1)">
       <defs>
        <path id="DejaVuSans-30" d="M 2034 4250 
Q 1547 4250 1301 3770 
Q 1056 3291 1056 2328 
Q 1056 1369 1301 889 
Q 1547 409 2034 409 
Q 2525 409 2770 889 
Q 3016 1369 3016 2328 
Q 3016 3291 2770 3770 
Q 2525 4250 2034 4250 
z
M 2034 4750 
Q 2819 4750 3233 4129 
Q 3647 3509 3647 2328 
Q 3647 1150 3233 529 
Q 2819 -91 2034 -91 
Q 1250 -91 836 529 
Q 422 1150 422 2328 
Q 422 3509 836 4129 
Q 1250 4750 2034 4750 
z
" transform="scale(0.015625)"/>
       </defs>
       <use xlink:href="#DejaVuSans-30"/>
      </g>
     </g>
    </g>
    <g id="xtick_2">
     <g id="line2d_2">
      <g>
       <use xlink:href="#m05d376736c" x="114.414545" y="307.584" style="stroke: #000000; stroke-width: 0.8"/>
      </g>
     </g>
     <g id="text_2">
      <!-- 250 -->
      <g transform="translate(104.870795 322.182437) scale(0.1 -0.1)">
       <defs>
        <path id="DejaVuSans-32" d="M 1228 531 
L 3431 531 
L 3431 0 
L 469 0 
L 469 531 
Q 828 903 1448 1529 
Q 2069 2156 2228 2338 
Q 2531 2678 2651 2914 
Q 2772 3150 2772 3378 
Q 2772 3750 2511 3984 
Q 2250 4219 1831 4219 
Q 1534 4219 1204 4116 
Q 875 4013 500 3803 
L 500 4441 
Q 881 4594 1212 4672 
Q 1544 4750 1819 4750 
Q 2544 4750 2975 4387 
Q 3406 4025 3406 3419 
Q 3406 3131 3298 2873 
Q 3191 2616 2906 2266 
Q 2828 2175 2409 1742 
Q 1991 1309 1228 531 
z
" transform="scale(0.015625)"/>
        <path id="DejaVuSans-35" d="M 691 4666 
L 3169 4666 
L 3169 4134 
L 1269 4134 
L 1269 2991 
Q 1406 3038 1543 3061 
Q 1681 3084 1819 3084 
Q 2600 3084 3056 2656 
Q 3513 2228 3513 1497 
Q 3513 744 3044 326 
Q 2575 -91 1722 -91 
Q 1428 -91 1123 -41 
Q 819 9 494 109 
L 494 744 
Q 775 591 1075 516 
Q 1375 441 1709 441 
Q 2250 441 2565 725 
Q 2881 1009 2881 1497 
Q 2881 1984 2565 2268 
Q 2250 2553 1709 2553 
Q 1456 2553 1204 2497 
Q 953 2441 691 2322 
L 691 4666 
z
" transform="scale(0.015625)"/>
       </defs>
       <use xlink:href="#DejaVuSans-32"/>
       <use xlink:href="#DejaVuSans-35" transform="translate(63.623047 0)"/>
       <use xlink:href="#DejaVuSans-30" transform="translate(127.246094 0)"/>
      </g>
     </g>
    </g>
    <g id="xtick_3">
     <g id="line2d_3">
      <g>
       <use xlink:href="#m05d376736c" x="154.996364" y="307.584" style="stroke: #000000; stroke-width: 0.8"/>
      </g>
     </g>
     <g id="text_3">
      <!-- 500 -->
      <g transform="translate(145.452614 322.182437) scale(0.1 -0.1)">
       <use xlink:href="#DejaVuSans-35"/>
       <use xlink:href="#DejaVuSans-30" transform="translate(63.623047 0)"/>
       <use xlink:href="#DejaVuSans-30" transform="translate(127.246094 0)"/>
      </g>
     </g>
    </g>
    <g id="xtick_4">
     <g id="line2d_4">
      <g>
       <use xlink:href="#m05d376736c" x="195.578182" y="307.584" style="stroke: #000000; stroke-width: 0.8"/>
      </g>
     </g>
     <g id="text_4">
      <!-- 750 -->
      <g transform="translate(186.034432 322.182437) scale(0.1 -0.1)">
       <defs>
        <path id="DejaVuSans-37" d="M 525 4666 
L 3525 4666 
L 3525 4397 
L 1831 0 
L 1172 0 
L 2766 4134 
L 525 4134 
L 525 4666 
z
" transform="scale(0.015625)"/>
       </defs>
       <use xlink:href="#DejaVuSans-37"/>
       <use xlink:href="#DejaVuSans-35" transform="translate(63.623047 0)"/>
       <use xlink:href="#DejaVuSans-30" transform="translate(127.246094 0)"/>
      </g>
     </g>
    </g>
    <g id="xtick_5">
     <g id="line2d_5">
      <g>
       <use xlink:href="#m05d376736c" x="236.16" y="307.584" style="stroke: #000000; stroke-width: 0.8"/>
      </g>
     </g>
     <g id="text_5">
      <!-- 1000 -->
      <g transform="translate(223.435 322.182437) scale(0.1 -0.1)">
       <defs>
        <path id="DejaVuSans-31" d="M 794 531 
L 1825 531 
L 1825 4091 
L 703 3866 
L 703 4441 
L 1819 4666 
L 2450 4666 
L 2450 531 
L 3481 531 
L 3481 0 
L 794 0 
L 794 531 
z
" transform="scale(0.015625)"/>
       </defs>
       <use xlink:href="#DejaVuSans-31"/>
       <use xlink:href="#DejaVuSans-30" transform="translate(63.623047 0)"/>
       <use xlink:href="#DejaVuSans-30" transform="translate(127.246094 0)"/>
       <use xlink:href="#DejaVuSans-30" transform="translate(190.869141 0)"/>
      </g>
     </g>
    </g>
    <g id="xtick_6">
     <g id="line2d_6">
      <g>
       <use xlink:href="#m05d376736c" x="276.741818" y="307.584" style="stroke: #000000; stroke-width: 0.8"/>
      </g>
     </g>
     <g id="text_6">
      <!-- 1250 -->
      <g transform="translate(264.016818 322.182437) scale(0.1 -0.1)">
       <use xlink:href="#DejaVuSans-31"/>
       <use xlink:href="#DejaVuSans-32" transform="translate(63.623047 0)"/>
       <use xlink:href="#DejaVuSans-35" transform="translate(127.246094 0)"/>
       <use xlink:href="#DejaVuSans-30" transform="translate(190.869141 0)"/>
      </g>
     </g>
    </g>
    <g id="xtick_7">
     <g id="line2d_7">
      <g>
       <use xlink:href="#m05d376736c" x="317.323636" y="307.584" style="stroke: #000000; stroke-width: 0.8"/>
      </g>
     </g>
     <g id="text_7">
      <!-- 1500 -->
      <g transform="translate(304.598636 322.182437) scale(0.1 -0.1)">
       <use xlink:href="#DejaVuSans-31"/>
       <use xlink:href="#DejaVuSans-35" transform="translate(63.623047 0)"/>
       <use xlink:href="#DejaVuSans-30" transform="translate(127.246094 0)"/>
       <use xlink:href="#DejaVuSans-30" transform="translate(190.869141 0)"/>
      </g>
     </g>
    </g>
    <g id="xtick_8">
     <g id="line2d_8">
      <g>
       <use xlink:href="#m05d376736c" x="357.905455" y="307.584" style="stroke: #000000; stroke-width: 0.8"/>
      </g>
     </g>
     <g id="text_8">
      <!-- 1750 -->
      <g transform="translate(345.180455 322.182437) scale(0.1 -0.1)">
       <use xlink:href="#DejaVuSans-31"/>
       <use xlink:href="#DejaVuSans-37" transform="translate(63.623047 0)"/>
       <use xlink:href="#DejaVuSans-35" transform="translate(127.246094 0)"/>
       <use xlink:href="#DejaVuSans-30" transform="translate(190.869141 0)"/>
      </g>
     </g>
    </g>
    <g id="xtick_9">
     <g id="line2d_9">
      <g>
       <use xlink:href="#m05d376736c" x="398.487273" y="307.584" style="stroke: #000000; stroke-width: 0.8"/>
      </g>
     </g>
     <g id="text_9">
      <!-- 2000 -->
      <g transform="translate(385.762273 322.182437) scale(0.1 -0.1)">
       <use xlink:href="#DejaVuSans-32"/>
       <use xlink:href="#DejaVuSans-30" transform="translate(63.623047 0)"/>
       <use xlink:href="#DejaVuSans-30" transform="translate(127.246094 0)"/>
       <use xlink:href="#DejaVuSans-30" transform="translate(190.869141 0)"/>
      </g>
     </g>
    </g>
    <g id="text_10">
     <!-- Generations In Past -->
     <g transform="translate(187.421719 335.860562) scale(0.1 -0.1)">
      <defs>
       <path id="DejaVuSans-47" d="M 3809 666 
L 3809 1919 
L 2778 1919 
L 2778 2438 
L 4434 2438 
L 4434 434 
Q 4069 175 3628 42 
Q 3188 -91 2688 -91 
Q 1594 -91 976 548 
Q 359 1188 359 2328 
Q 359 3472 976 4111 
Q 1594 4750 2688 4750 
Q 3144 4750 3555 4637 
Q 3966 4525 4313 4306 
L 4313 3634 
Q 3963 3931 3569 4081 
Q 3175 4231 2741 4231 
Q 1884 4231 1454 3753 
Q 1025 3275 1025 2328 
Q 1025 1384 1454 906 
Q 1884 428 2741 428 
Q 3075 428 3337 486 
Q 3600 544 3809 666 
z
" transform="scale(0.015625)"/>
       <path id="DejaVuSans-65" d="M 3597 1894 
L 3597 1613 
L 953 1613 
Q 991 1019 1311 708 
Q 1631 397 2203 397 
Q 2534 397 2845 478 
Q 3156 559 3463 722 
L 3463 178 
Q 3153 47 2828 -22 
Q 2503 -91 2169 -91 
Q 1331 -91 842 396 
Q 353 884 353 1716 
Q 353 2575 817 3079 
Q 1281 3584 2069 3584 
Q 2775 3584 3186 3129 
Q 3597 2675 3597 1894 
z
M 3022 2063 
Q 3016 2534 2758 2815 
Q 2500 3097 2075 3097 
Q 1594 3097 1305 2825 
Q 1016 2553 972 2059 
L 3022 2063 
z
" transform="scale(0.015625)"/>
       <path id="DejaVuSans-6e" d="M 3513 2113 
L 3513 0 
L 2938 0 
L 2938 2094 
Q 2938 2591 2744 2837 
Q 2550 3084 2163 3084 
Q 1697 3084 1428 2787 
Q 1159 2491 1159 1978 
L 1159 0 
L 581 0 
L 581 3500 
L 1159 3500 
L 1159 2956 
Q 1366 3272 1645 3428 
Q 1925 3584 2291 3584 
Q 2894 3584 3203 3211 
Q 3513 2838 3513 2113 
z
" transform="scale(0.015625)"/>
       <path id="DejaVuSans-72" d="M 2631 2963 
Q 2534 3019 2420 3045 
Q 2306 3072 2169 3072 
Q 1681 3072 1420 2755 
Q 1159 2438 1159 1844 
L 1159 0 
L 581 0 
L 581 3500 
L 1159 3500 
L 1159 2956 
Q 1341 3275 1631 3429 
Q 1922 3584 2338 3584 
Q 2397 3584 2469 3576 
Q 2541 3569 2628 3553 
L 2631 2963 
z
" transform="scale(0.015625)"/>
       <path id="DejaVuSans-61" d="M 2194 1759 
Q 1497 1759 1228 1600 
Q 959 1441 959 1056 
Q 959 750 1161 570 
Q 1363 391 1709 391 
Q 2188 391 2477 730 
Q 2766 1069 2766 1631 
L 2766 1759 
L 2194 1759 
z
M 3341 1997 
L 3341 0 
L 2766 0 
L 2766 531 
Q 2569 213 2275 61 
Q 1981 -91 1556 -91 
Q 1019 -91 701 211 
Q 384 513 384 1019 
Q 384 1609 779 1909 
Q 1175 2209 1959 2209 
L 2766 2209 
L 2766 2266 
Q 2766 2663 2505 2880 
Q 2244 3097 1772 3097 
Q 1472 3097 1187 3025 
Q 903 2953 641 2809 
L 641 3341 
Q 956 3463 1253 3523 
Q 1550 3584 1831 3584 
Q 2591 3584 2966 3190 
Q 3341 2797 3341 1997 
z
" transform="scale(0.015625)"/>
       <path id="DejaVuSans-74" d="M 1172 4494 
L 1172 3500 
L 2356 3500 
L 2356 3053 
L 1172 3053 
L 1172 1153 
Q 1172 725 1289 603 
Q 1406 481 1766 481 
L 2356 481 
L 2356 0 
L 1766 0 
Q 1100 0 847 248 
Q 594 497 594 1153 
L 594 3053 
L 172 3053 
L 172 3500 
L 594 3500 
L 594 4494 
L 1172 4494 
z
" transform="scale(0.015625)"/>
       <path id="DejaVuSans-69" d="M 603 3500 
L 1178 3500 
L 1178 0 
L 603 0 
L 603 3500 
z
M 603 4863 
L 1178 4863 
L 1178 4134 
L 603 4134 
L 603 4863 
z
" transform="scale(0.015625)"/>
       <path id="DejaVuSans-6f" d="M 1959 3097 
Q 1497 3097 1228 2736 
Q 959 2375 959 1747 
Q 959 1119 1226 758 
Q 1494 397 1959 397 
Q 2419 397 2687 759 
Q 2956 1122 2956 1747 
Q 2956 2369 2687 2733 
Q 2419 3097 1959 3097 
z
M 1959 3584 
Q 2709 3584 3137 3096 
Q 3566 2609 3566 1747 
Q 3566 888 3137 398 
Q 2709 -91 1959 -91 
Q 1206 -91 779 398 
Q 353 888 353 1747 
Q 353 2609 779 3096 
Q 1206 3584 1959 3584 
z
" transform="scale(0.015625)"/>
       <path id="DejaVuSans-73" d="M 2834 3397 
L 2834 2853 
Q 2591 2978 2328 3040 
Q 2066 3103 1784 3103 
Q 1356 3103 1142 2972 
Q 928 2841 928 2578 
Q 928 2378 1081 2264 
Q 1234 2150 1697 2047 
L 1894 2003 
Q 2506 1872 2764 1633 
Q 3022 1394 3022 966 
Q 3022 478 2636 193 
Q 2250 -91 1575 -91 
Q 1294 -91 989 -36 
Q 684 19 347 128 
L 347 722 
Q 666 556 975 473 
Q 1284 391 1588 391 
Q 1994 391 2212 530 
Q 2431 669 2431 922 
Q 2431 1156 2273 1281 
Q 2116 1406 1581 1522 
L 1381 1569 
Q 847 1681 609 1914 
Q 372 2147 372 2553 
Q 372 3047 722 3315 
Q 1072 3584 1716 3584 
Q 2034 3584 2315 3537 
Q 2597 3491 2834 3397 
z
" transform="scale(0.015625)"/>
       <path id="DejaVuSans-20" transform="scale(0.015625)"/>
       <path id="DejaVuSans-49" d="M 628 4666 
L 1259 4666 
L 1259 0 
L 628 0 
L 628 4666 
z
" transform="scale(0.015625)"/>
       <path id="DejaVuSans-50" d="M 1259 4147 
L 1259 2394 
L 2053 2394 
Q 2494 2394 2734 2622 
Q 2975 2850 2975 3272 
Q 2975 3691 2734 3919 
Q 2494 4147 2053 4147 
L 1259 4147 
z
M 628 4666 
L 2053 4666 
Q 2838 4666 3239 4311 
Q 3641 3956 3641 3272 
Q 3641 2581 3239 2228 
Q 2838 1875 2053 1875 
L 1259 1875 
L 1259 0 
L 628 0 
L 628 4666 
z
" transform="scale(0.015625)"/>
      </defs>
      <use xlink:href="#DejaVuSans-47"/>
      <use xlink:href="#DejaVuSans-65" transform="translate(77.490234 0)"/>
      <use xlink:href="#DejaVuSans-6e" transform="translate(139.013672 0)"/>
      <use xlink:href="#DejaVuSans-65" transform="translate(202.392578 0)"/>
      <use xlink:href="#DejaVuSans-72" transform="translate(263.916016 0)"/>
      <use xlink:href="#DejaVuSans-61" transform="translate(305.029297 0)"/>
      <use xlink:href="#DejaVuSans-74" transform="translate(366.308594 0)"/>
      <use xlink:href="#DejaVuSans-69" transform="translate(405.517578 0)"/>
      <use xlink:href="#DejaVuSans-6f" transform="translate(433.300781 0)"/>
      <use xlink:href="#DejaVuSans-6e" transform="translate(494.482422 0)"/>
      <use xlink:href="#DejaVuSans-73" transform="translate(557.861328 0)"/>
      <use xlink:href="#DejaVuSans-20" transform="translate(609.960938 0)"/>
      <use xlink:href="#DejaVuSans-49" transform="translate(641.748047 0)"/>
      <use xlink:href="#DejaVuSans-6e" transform="translate(671.240234 0)"/>
      <use xlink:href="#DejaVuSans-20" transform="translate(734.619141 0)"/>
      <use xlink:href="#DejaVuSans-50" transform="translate(766.40625 0)"/>
      <use xlink:href="#DejaVuSans-61" transform="translate(822.208984 0)"/>
      <use xlink:href="#DejaVuSans-73" transform="translate(883.488281 0)"/>
      <use xlink:href="#DejaVuSans-74" transform="translate(935.587891 0)"/>
     </g>
    </g>
   </g>
   <g id="matplotlib.axis_2">
    <g id="ytick_1">
     <g id="line2d_10">
      <defs>
       <path id="m8c72ffc233" d="M 0 0 
L -3.5 0 
" style="stroke: #000000; stroke-width: 0.8"/>
      </defs>
      <g>
       <use xlink:href="#m8c72ffc233" x="57.6" y="299.517351" style="stroke: #000000; stroke-width: 0.8"/>
      </g>
     </g>
     <g id="text_11">
      <!-- $\mathdefault{10^{-3}}$ -->
      <g transform="translate(27.1 303.316569) scale(0.1 -0.1)">
       <defs>
        <path id="DejaVuSans-2212" d="M 678 2272 
L 4684 2272 
L 4684 1741 
L 678 1741 
L 678 2272 
z
" transform="scale(0.015625)"/>
        <path id="DejaVuSans-33" d="M 2597 2516 
Q 3050 2419 3304 2112 
Q 3559 1806 3559 1356 
Q 3559 666 3084 287 
Q 2609 -91 1734 -91 
Q 1441 -91 1130 -33 
Q 819 25 488 141 
L 488 750 
Q 750 597 1062 519 
Q 1375 441 1716 441 
Q 2309 441 2620 675 
Q 2931 909 2931 1356 
Q 2931 1769 2642 2001 
Q 2353 2234 1838 2234 
L 1294 2234 
L 1294 2753 
L 1863 2753 
Q 2328 2753 2575 2939 
Q 2822 3125 2822 3475 
Q 2822 3834 2567 4026 
Q 2313 4219 1838 4219 
Q 1578 4219 1281 4162 
Q 984 4106 628 3988 
L 628 4550 
Q 988 4650 1302 4700 
Q 1616 4750 1894 4750 
Q 2613 4750 3031 4423 
Q 3450 4097 3450 3541 
Q 3450 3153 3228 2886 
Q 3006 2619 2597 2516 
z
" transform="scale(0.015625)"/>
       </defs>
       <use xlink:href="#DejaVuSans-31" transform="translate(0 0.765625)"/>
       <use xlink:href="#DejaVuSans-30" transform="translate(63.623047 0.765625)"/>
       <use xlink:href="#DejaVuSans-2212" transform="translate(128.203125 39.046875) scale(0.7)"/>
       <use xlink:href="#DejaVuSans-33" transform="translate(186.855469 39.046875) scale(0.7)"/>
      </g>
     </g>
    </g>
    <g id="ytick_2">
     <g id="line2d_11">
      <g>
       <use xlink:href="#m8c72ffc233" x="57.6" y="217.534234" style="stroke: #000000; stroke-width: 0.8"/>
      </g>
     </g>
     <g id="text_12">
      <!-- $\mathdefault{10^{-2}}$ -->
      <g transform="translate(27.1 221.333452) scale(0.1 -0.1)">
       <use xlink:href="#DejaVuSans-31" transform="translate(0 0.765625)"/>
       <use xlink:href="#DejaVuSans-30" transform="translate(63.623047 0.765625)"/>
       <use xlink:href="#DejaVuSans-2212" transform="translate(128.203125 39.046875) scale(0.7)"/>
       <use xlink:href="#DejaVuSans-32" transform="translate(186.855469 39.046875) scale(0.7)"/>
      </g>
     </g>
    </g>
    <g id="ytick_3">
     <g id="line2d_12">
      <g>
       <use xlink:href="#m8c72ffc233" x="57.6" y="135.551117" style="stroke: #000000; stroke-width: 0.8"/>
      </g>
     </g>
     <g id="text_13">
      <!-- $\mathdefault{10^{-1}}$ -->
      <g transform="translate(27.1 139.350336) scale(0.1 -0.1)">
       <use xlink:href="#DejaVuSans-31" transform="translate(0 0.684375)"/>
       <use xlink:href="#DejaVuSans-30" transform="translate(63.623047 0.684375)"/>
       <use xlink:href="#DejaVuSans-2212" transform="translate(128.203125 38.965625) scale(0.7)"/>
       <use xlink:href="#DejaVuSans-31" transform="translate(186.855469 38.965625) scale(0.7)"/>
      </g>
     </g>
    </g>
    <g id="ytick_4">
     <g id="line2d_13">
      <g>
       <use xlink:href="#m8c72ffc233" x="57.6" y="53.568" style="stroke: #000000; stroke-width: 0.8"/>
      </g>
     </g>
     <g id="text_14">
      <!-- $\mathdefault{10^{0}}$ -->
      <g transform="translate(33 57.367219) scale(0.1 -0.1)">
       <use xlink:href="#DejaVuSans-31" transform="translate(0 0.765625)"/>
       <use xlink:href="#DejaVuSans-30" transform="translate(63.623047 0.765625)"/>
       <use xlink:href="#DejaVuSans-30" transform="translate(128.203125 39.046875) scale(0.7)"/>
      </g>
     </g>
    </g>
    <g id="ytick_5">
     <g id="line2d_14">
      <defs>
       <path id="mb375c0d842" d="M 0 0 
L -2 0 
" style="stroke: #000000; stroke-width: 0.6"/>
      </defs>
      <g>
       <use xlink:href="#mb375c0d842" x="57.6" y="307.462336" style="stroke: #000000; stroke-width: 0.6"/>
      </g>
     </g>
    </g>
    <g id="ytick_6">
     <g id="line2d_15">
      <g>
       <use xlink:href="#mb375c0d842" x="57.6" y="303.268692" style="stroke: #000000; stroke-width: 0.6"/>
      </g>
     </g>
    </g>
    <g id="ytick_7">
     <g id="line2d_16">
      <g>
       <use xlink:href="#mb375c0d842" x="57.6" y="274.837973" style="stroke: #000000; stroke-width: 0.6"/>
      </g>
     </g>
    </g>
    <g id="ytick_8">
     <g id="line2d_17">
      <g>
       <use xlink:href="#mb375c0d842" x="57.6" y="260.401463" style="stroke: #000000; stroke-width: 0.6"/>
      </g>
     </g>
    </g>
    <g id="ytick_9">
     <g id="line2d_18">
      <g>
       <use xlink:href="#mb375c0d842" x="57.6" y="250.158596" style="stroke: #000000; stroke-width: 0.6"/>
      </g>
     </g>
    </g>
    <g id="ytick_10">
     <g id="line2d_19">
      <g>
       <use xlink:href="#mb375c0d842" x="57.6" y="242.213611" style="stroke: #000000; stroke-width: 0.6"/>
      </g>
     </g>
    </g>
    <g id="ytick_11">
     <g id="line2d_20">
      <g>
       <use xlink:href="#mb375c0d842" x="57.6" y="235.722086" style="stroke: #000000; stroke-width: 0.6"/>
      </g>
     </g>
    </g>
    <g id="ytick_12">
     <g id="line2d_21">
      <g>
       <use xlink:href="#mb375c0d842" x="57.6" y="230.233579" style="stroke: #000000; stroke-width: 0.6"/>
      </g>
     </g>
    </g>
    <g id="ytick_13">
     <g id="line2d_22">
      <g>
       <use xlink:href="#mb375c0d842" x="57.6" y="225.479219" style="stroke: #000000; stroke-width: 0.6"/>
      </g>
     </g>
    </g>
    <g id="ytick_14">
     <g id="line2d_23">
      <g>
       <use xlink:href="#mb375c0d842" x="57.6" y="221.285575" style="stroke: #000000; stroke-width: 0.6"/>
      </g>
     </g>
    </g>
    <g id="ytick_15">
     <g id="line2d_24">
      <g>
       <use xlink:href="#mb375c0d842" x="57.6" y="192.854856" style="stroke: #000000; stroke-width: 0.6"/>
      </g>
     </g>
    </g>
    <g id="ytick_16">
     <g id="line2d_25">
      <g>
       <use xlink:href="#mb375c0d842" x="57.6" y="178.418346" style="stroke: #000000; stroke-width: 0.6"/>
      </g>
     </g>
    </g>
    <g id="ytick_17">
     <g id="line2d_26">
      <g>
       <use xlink:href="#mb375c0d842" x="57.6" y="168.175479" style="stroke: #000000; stroke-width: 0.6"/>
      </g>
     </g>
    </g>
    <g id="ytick_18">
     <g id="line2d_27">
      <g>
       <use xlink:href="#mb375c0d842" x="57.6" y="160.230494" style="stroke: #000000; stroke-width: 0.6"/>
      </g>
     </g>
    </g>
    <g id="ytick_19">
     <g id="line2d_28">
      <g>
       <use xlink:href="#mb375c0d842" x="57.6" y="153.738969" style="stroke: #000000; stroke-width: 0.6"/>
      </g>
     </g>
    </g>
    <g id="ytick_20">
     <g id="line2d_29">
      <g>
       <use xlink:href="#mb375c0d842" x="57.6" y="148.250462" style="stroke: #000000; stroke-width: 0.6"/>
      </g>
     </g>
    </g>
    <g id="ytick_21">
     <g id="line2d_30">
      <g>
       <use xlink:href="#mb375c0d842" x="57.6" y="143.496102" style="stroke: #000000; stroke-width: 0.6"/>
      </g>
     </g>
    </g>
    <g id="ytick_22">
     <g id="line2d_31">
      <g>
       <use xlink:href="#mb375c0d842" x="57.6" y="139.302459" style="stroke: #000000; stroke-width: 0.6"/>
      </g>
     </g>
    </g>
    <g id="ytick_23">
     <g id="line2d_32">
      <g>
       <use xlink:href="#mb375c0d842" x="57.6" y="110.87174" style="stroke: #000000; stroke-width: 0.6"/>
      </g>
     </g>
    </g>
    <g id="ytick_24">
     <g id="line2d_33">
      <g>
       <use xlink:href="#mb375c0d842" x="57.6" y="96.435229" style="stroke: #000000; stroke-width: 0.6"/>
      </g>
     </g>
    </g>
    <g id="ytick_25">
     <g id="line2d_34">
      <g>
       <use xlink:href="#mb375c0d842" x="57.6" y="86.192362" style="stroke: #000000; stroke-width: 0.6"/>
      </g>
     </g>
    </g>
    <g id="ytick_26">
     <g id="line2d_35">
      <g>
       <use xlink:href="#mb375c0d842" x="57.6" y="78.247377" style="stroke: #000000; stroke-width: 0.6"/>
      </g>
     </g>
    </g>
    <g id="ytick_27">
     <g id="line2d_36">
      <g>
       <use xlink:href="#mb375c0d842" x="57.6" y="71.755852" style="stroke: #000000; stroke-width: 0.6"/>
      </g>
     </g>
    </g>
    <g id="ytick_28">
     <g id="line2d_37">
      <g>
       <use xlink:href="#mb375c0d842" x="57.6" y="66.267345" style="stroke: #000000; stroke-width: 0.6"/>
      </g>
     </g>
    </g>
    <g id="ytick_29">
     <g id="line2d_38">
      <g>
       <use xlink:href="#mb375c0d842" x="57.6" y="61.512985" style="stroke: #000000; stroke-width: 0.6"/>
      </g>
     </g>
    </g>
    <g id="ytick_30">
     <g id="line2d_39">
      <g>
       <use xlink:href="#mb375c0d842" x="57.6" y="57.319342" style="stroke: #000000; stroke-width: 0.6"/>
      </g>
     </g>
    </g>
    <g id="text_15">
     <!-- Probability Of True Location -->
     <g transform="translate(21.020312 243.185812) rotate(-90) scale(0.1 -0.1)">
      <defs>
       <path id="DejaVuSans-62" d="M 3116 1747 
Q 3116 2381 2855 2742 
Q 2594 3103 2138 3103 
Q 1681 3103 1420 2742 
Q 1159 2381 1159 1747 
Q 1159 1113 1420 752 
Q 1681 391 2138 391 
Q 2594 391 2855 752 
Q 3116 1113 3116 1747 
z
M 1159 2969 
Q 1341 3281 1617 3432 
Q 1894 3584 2278 3584 
Q 2916 3584 3314 3078 
Q 3713 2572 3713 1747 
Q 3713 922 3314 415 
Q 2916 -91 2278 -91 
Q 1894 -91 1617 61 
Q 1341 213 1159 525 
L 1159 0 
L 581 0 
L 581 4863 
L 1159 4863 
L 1159 2969 
z
" transform="scale(0.015625)"/>
       <path id="DejaVuSans-6c" d="M 603 4863 
L 1178 4863 
L 1178 0 
L 603 0 
L 603 4863 
z
" transform="scale(0.015625)"/>
       <path id="DejaVuSans-79" d="M 2059 -325 
Q 1816 -950 1584 -1140 
Q 1353 -1331 966 -1331 
L 506 -1331 
L 506 -850 
L 844 -850 
Q 1081 -850 1212 -737 
Q 1344 -625 1503 -206 
L 1606 56 
L 191 3500 
L 800 3500 
L 1894 763 
L 2988 3500 
L 3597 3500 
L 2059 -325 
z
" transform="scale(0.015625)"/>
       <path id="DejaVuSans-4f" d="M 2522 4238 
Q 1834 4238 1429 3725 
Q 1025 3213 1025 2328 
Q 1025 1447 1429 934 
Q 1834 422 2522 422 
Q 3209 422 3611 934 
Q 4013 1447 4013 2328 
Q 4013 3213 3611 3725 
Q 3209 4238 2522 4238 
z
M 2522 4750 
Q 3503 4750 4090 4092 
Q 4678 3434 4678 2328 
Q 4678 1225 4090 567 
Q 3503 -91 2522 -91 
Q 1538 -91 948 565 
Q 359 1222 359 2328 
Q 359 3434 948 4092 
Q 1538 4750 2522 4750 
z
" transform="scale(0.015625)"/>
       <path id="DejaVuSans-66" d="M 2375 4863 
L 2375 4384 
L 1825 4384 
Q 1516 4384 1395 4259 
Q 1275 4134 1275 3809 
L 1275 3500 
L 2222 3500 
L 2222 3053 
L 1275 3053 
L 1275 0 
L 697 0 
L 697 3053 
L 147 3053 
L 147 3500 
L 697 3500 
L 697 3744 
Q 697 4328 969 4595 
Q 1241 4863 1831 4863 
L 2375 4863 
z
" transform="scale(0.015625)"/>
       <path id="DejaVuSans-54" d="M -19 4666 
L 3928 4666 
L 3928 4134 
L 2272 4134 
L 2272 0 
L 1638 0 
L 1638 4134 
L -19 4134 
L -19 4666 
z
" transform="scale(0.015625)"/>
       <path id="DejaVuSans-75" d="M 544 1381 
L 544 3500 
L 1119 3500 
L 1119 1403 
Q 1119 906 1312 657 
Q 1506 409 1894 409 
Q 2359 409 2629 706 
Q 2900 1003 2900 1516 
L 2900 3500 
L 3475 3500 
L 3475 0 
L 2900 0 
L 2900 538 
Q 2691 219 2414 64 
Q 2138 -91 1772 -91 
Q 1169 -91 856 284 
Q 544 659 544 1381 
z
M 1991 3584 
L 1991 3584 
z
" transform="scale(0.015625)"/>
       <path id="DejaVuSans-4c" d="M 628 4666 
L 1259 4666 
L 1259 531 
L 3531 531 
L 3531 0 
L 628 0 
L 628 4666 
z
" transform="scale(0.015625)"/>
       <path id="DejaVuSans-63" d="M 3122 3366 
L 3122 2828 
Q 2878 2963 2633 3030 
Q 2388 3097 2138 3097 
Q 1578 3097 1268 2742 
Q 959 2388 959 1747 
Q 959 1106 1268 751 
Q 1578 397 2138 397 
Q 2388 397 2633 464 
Q 2878 531 3122 666 
L 3122 134 
Q 2881 22 2623 -34 
Q 2366 -91 2075 -91 
Q 1284 -91 818 406 
Q 353 903 353 1747 
Q 353 2603 823 3093 
Q 1294 3584 2113 3584 
Q 2378 3584 2631 3529 
Q 2884 3475 3122 3366 
z
" transform="scale(0.015625)"/>
      </defs>
      <use xlink:href="#DejaVuSans-50"/>
      <use xlink:href="#DejaVuSans-72" transform="translate(58.552734 0)"/>
      <use xlink:href="#DejaVuSans-6f" transform="translate(97.416016 0)"/>
      <use xlink:href="#DejaVuSans-62" transform="translate(158.597656 0)"/>
      <use xlink:href="#DejaVuSans-61" transform="translate(222.074219 0)"/>
      <use xlink:href="#DejaVuSans-62" transform="translate(283.353516 0)"/>
      <use xlink:href="#DejaVuSans-69" transform="translate(346.830078 0)"/>
      <use xlink:href="#DejaVuSans-6c" transform="translate(374.613281 0)"/>
      <use xlink:href="#DejaVuSans-69" transform="translate(402.396484 0)"/>
      <use xlink:href="#DejaVuSans-74" transform="translate(430.179688 0)"/>
      <use xlink:href="#DejaVuSans-79" transform="translate(469.388672 0)"/>
      <use xlink:href="#DejaVuSans-20" transform="translate(528.568359 0)"/>
      <use xlink:href="#DejaVuSans-4f" transform="translate(560.355469 0)"/>
      <use xlink:href="#DejaVuSans-66" transform="translate(639.066406 0)"/>
      <use xlink:href="#DejaVuSans-20" transform="translate(674.271484 0)"/>
      <use xlink:href="#DejaVuSans-54" transform="translate(706.058594 0)"/>
      <use xlink:href="#DejaVuSans-72" transform="translate(752.392578 0)"/>
      <use xlink:href="#DejaVuSans-75" transform="translate(793.505859 0)"/>
      <use xlink:href="#DejaVuSans-65" transform="translate(856.884766 0)"/>
      <use xlink:href="#DejaVuSans-20" transform="translate(918.408203 0)"/>
      <use xlink:href="#DejaVuSans-4c" transform="translate(950.195312 0)"/>
      <use xlink:href="#DejaVuSans-6f" transform="translate(1004.158203 0)"/>
      <use xlink:href="#DejaVuSans-63" transform="translate(1065.339844 0)"/>
      <use xlink:href="#DejaVuSans-61" transform="translate(1120.320312 0)"/>
      <use xlink:href="#DejaVuSans-74" transform="translate(1181.599609 0)"/>
      <use xlink:href="#DejaVuSans-69" transform="translate(1220.808594 0)"/>
      <use xlink:href="#DejaVuSans-6f" transform="translate(1248.591797 0)"/>
      <use xlink:href="#DejaVuSans-6e" transform="translate(1309.773438 0)"/>
     </g>
    </g>
   </g>
   <g id="line2d_40">
    <path d="M 73.832727 53.568 
L 75.456 73.451722 
L 78.702545 220.334998 
L 80.325818 152.395536 
L 81.949091 127.534254 
L 83.572364 144.748874 
L 85.195636 164.702947 
L 86.818909 164.460031 
L 88.442182 170.113817 
L 90.065455 169.465679 
L 93.312 168.627643 
L 94.935273 161.98814 
L 96.558545 163.454749 
L 98.181818 164.728101 
L 99.805091 170.205873 
L 101.428364 168.952235 
L 104.674909 166.871498 
L 106.298182 166.648347 
L 107.921455 165.18177 
L 109.544727 162.845625 
L 114.414545 161.266376 
L 116.037818 163.097755 
L 117.661091 162.651084 
L 119.284364 167.532621 
L 120.907636 167.11508 
L 122.530909 182.877852 
L 124.154182 166.290972 
L 125.777455 165.878635 
L 127.400727 166.222593 
L 132.270545 169.105426 
L 138.763636 172.657615 
L 142.010182 174.336804 
L 143.633455 171.332463 
L 146.88 173.110975 
L 148.503273 179.818366 
L 150.126545 190.566458 
L 151.749818 195.675632 
L 153.373091 196.027499 
L 154.996364 202.43528 
L 163.112727 203.727871 
L 164.736 204.006651 
L 166.359273 217.5702 
L 167.982545 223.528992 
L 172.852364 223.459873 
L 174.475636 208.527858 
L 184.215273 210.132618 
L 185.838545 199.127381 
L 187.461818 212.590205 
L 189.085091 218.295102 
L 190.708364 212.984556 
L 197.201455 213.795354 
L 198.824727 220.300112 
L 200.448 220.435013 
L 202.071273 219.135789 
L 205.317818 219.481758 
L 206.941091 204.240879 
L 208.564364 199.587451 
L 210.187636 199.991563 
L 211.810909 205.320114 
L 213.434182 205.672306 
L 215.057455 215.169583 
L 218.304 215.671195 
L 219.927273 207.045193 
L 221.550545 214.04458 
L 223.173818 232.738255 
L 226.420364 232.837191 
L 228.043636 239.997045 
L 229.666909 250.709046 
L 231.290182 259.503227 
L 234.536727 258.782714 
L 236.16 257.577895 
L 239.406545 256.920985 
L 241.029818 261.870462 
L 242.653091 256.298715 
L 244.276364 256.829373 
L 245.899636 248.852323 
L 257.262545 247.833879 
L 258.885818 239.627581 
L 260.509091 239.624143 
L 262.132364 229.578617 
L 263.755636 221.976854 
L 265.378909 226.876794 
L 267.002182 227.030806 
L 268.625455 220.920749 
L 270.248727 216.456056 
L 271.872 216.707242 
L 273.495273 221.554884 
L 275.118545 216.872862 
L 276.741818 217.122043 
L 278.365091 213.814465 
L 279.988364 214.087518 
L 281.611636 213.726488 
L 283.234909 218.100244 
L 284.858182 218.340286 
L 286.481455 218.890474 
L 289.728 219.357573 
L 291.351273 220.766183 
L 292.974545 220.987797 
L 294.597818 219.087555 
L 296.221091 226.148476 
L 297.844364 227.093159 
L 299.467636 224.013465 
L 301.090909 224.214864 
L 302.714182 226.834398 
L 304.337455 227.012162 
L 305.960727 230.513405 
L 307.584 232.527774 
L 309.207273 230.802686 
L 312.453818 231.08954 
L 314.077091 235.153768 
L 315.700364 231.373952 
L 322.193455 231.935406 
L 323.816727 233.859732 
L 325.44 229.246646 
L 327.063273 234.121233 
L 328.686545 239.558108 
L 330.309818 232.068449 
L 341.672727 233.120345 
L 343.296 231.028123 
L 346.542545 231.341513 
L 348.165818 230.201498 
L 349.789091 235.90121 
L 351.412364 238.67068 
L 364.398545 239.427865 
L 366.021818 246.850269 
L 372.514909 246.971161 
L 374.138182 242.611789 
L 375.761455 244.449262 
L 377.384727 247.065854 
L 379.008 240.258678 
L 388.747636 240.799587 
L 390.370909 239.626453 
L 395.240727 239.887968 
L 396.864 237.698218 
L 398.487273 237.81003 
L 398.487273 237.81003 
" clip-path="url(#pde29e71fb9)" style="fill: none; stroke-dasharray: 5.55,2.4; stroke-dashoffset: 0; stroke: #0000ff; stroke-width: 1.5"/>
   </g>
   <g id="line2d_41">
    <path d="M 73.832727 53.568 
L 75.456 73.454517 
L 78.702545 221.942367 
L 80.325818 153.148591 
L 81.949091 127.553883 
L 83.572364 144.171485 
L 85.195636 164.437619 
L 86.818909 164.189236 
L 88.442182 169.036536 
L 90.065455 168.359073 
L 93.312 167.458876 
L 94.935273 161.316042 
L 96.558545 162.767935 
L 98.181818 164.026209 
L 99.805091 168.596825 
L 101.428364 167.291083 
L 104.674909 165.09794 
L 106.298182 165.169641 
L 107.921455 163.28358 
L 109.544727 161.758715 
L 114.414545 160.043875 
L 116.037818 163.220415 
L 117.661091 162.770307 
L 119.284364 169.059754 
L 120.907636 168.693446 
L 122.530909 186.545693 
L 124.154182 167.958046 
L 125.777455 167.574495 
L 127.400727 167.896844 
L 132.270545 170.5419 
L 138.763636 173.758448 
L 142.010182 175.289626 
L 143.633455 171.259576 
L 146.88 173.003642 
L 148.503273 180.288744 
L 150.126545 191.77852 
L 151.749818 196.582091 
L 153.373091 196.863224 
L 154.996364 204.495571 
L 161.489455 205.134167 
L 164.736 205.528925 
L 166.359273 219.996805 
L 167.982545 226.279685 
L 172.852364 225.916057 
L 174.475636 209.982157 
L 184.215273 211.268762 
L 185.838545 199.480418 
L 187.461818 213.078904 
L 189.085091 218.61844 
L 190.708364 213.412847 
L 197.201455 214.119501 
L 198.824727 221.142222 
L 200.448 221.243595 
L 202.071273 220.049425 
L 205.317818 220.332588 
L 206.941091 204.33871 
L 208.564364 199.320179 
L 210.187636 199.717675 
L 211.810909 205.377304 
L 213.434182 205.71712 
L 215.057455 215.718306 
L 218.304 216.181219 
L 219.927273 207.04574 
L 221.550545 214.338013 
L 223.173818 234.039569 
L 226.420364 234.08491 
L 228.043636 241.62297 
L 229.666909 252.987157 
L 231.290182 262.325122 
L 234.536727 261.521565 
L 236.16 260.264961 
L 239.406545 259.52694 
L 241.029818 264.822342 
L 242.653091 258.827731 
L 244.276364 259.343311 
L 245.899636 250.812709 
L 257.262545 249.616648 
L 258.885818 240.848602 
L 260.509091 240.829332 
L 262.132364 230.193449 
L 263.755636 222.175429 
L 265.378909 227.277766 
L 267.002182 227.423987 
L 268.625455 220.970608 
L 270.248727 216.244695 
L 271.872 216.494771 
L 273.495273 221.593303 
L 275.118545 216.710418 
L 276.741818 216.958317 
L 278.365091 213.462678 
L 279.988364 213.736591 
L 281.611636 213.397071 
L 283.234909 217.932553 
L 284.858182 218.171875 
L 286.481455 218.672872 
L 289.728 219.139849 
L 291.351273 220.493086 
L 292.974545 220.715341 
L 294.597818 218.653972 
L 296.221091 225.625072 
L 297.844364 226.721632 
L 299.467636 223.692052 
L 301.090909 223.894814 
L 302.714182 226.694585 
L 304.337455 226.872011 
L 305.960727 230.584005 
L 307.584 232.528132 
L 309.207273 230.869159 
L 312.453818 231.152276 
L 314.077091 235.453668 
L 315.700364 231.433314 
L 322.193455 231.989012 
L 323.816727 233.847216 
L 325.44 229.107523 
L 327.063273 234.107008 
L 328.686545 239.679464 
L 330.309818 231.880335 
L 341.672727 232.938201 
L 343.296 230.895567 
L 346.542545 231.210536 
L 348.165818 230.126203 
L 349.789091 235.880912 
L 351.412364 238.831103 
L 364.398545 239.577779 
L 366.021818 247.301645 
L 372.514909 247.407007 
L 374.138182 242.935023 
L 375.761455 244.700963 
L 377.384727 247.490783 
L 379.008 240.399861 
L 388.747636 240.93634 
L 390.370909 239.832557 
L 395.240727 240.091385 
L 396.864 237.739484 
L 398.487273 237.85159 
L 398.487273 237.85159 
" clip-path="url(#pde29e71fb9)" style="fill: none; stroke: #0000ff; stroke-width: 1.5; stroke-linecap: square"/>
   </g>
   <g id="line2d_42">
    <path d="M 73.832727 53.568 
L 75.456 73.79531 
L 77.079273 143.566768 
L 78.702545 203.799693 
L 80.325818 145.800959 
L 81.949091 129.275517 
L 85.195636 176.392599 
L 86.818909 176.667655 
L 88.442182 183.975266 
L 90.065455 183.8509 
L 91.688727 183.910286 
L 93.312 184.085701 
L 94.935273 173.497182 
L 96.558545 175.450598 
L 98.181818 177.217513 
L 99.805091 190.492048 
L 101.428364 189.877458 
L 103.051636 189.42905 
L 104.674909 189.11663 
L 106.298182 186.793339 
L 107.921455 188.807584 
L 109.544727 186.893986 
L 114.414545 187.62664 
L 116.037818 188.320294 
L 117.661091 188.672297 
L 119.284364 191.077926 
L 120.907636 191.417531 
L 122.530909 197.528856 
L 124.154182 192.145908 
L 133.893818 194.545962 
L 142.010182 196.618733 
L 143.633455 195.217934 
L 146.88 196.040348 
L 148.503273 199.156687 
L 150.126545 204.232376 
L 151.749818 205.997242 
L 153.373091 206.388574 
L 154.996364 211.462133 
L 164.736 213.271913 
L 166.359273 221.869616 
L 167.982545 226.431935 
L 172.852364 226.838931 
L 174.475636 217.208737 
L 184.215273 218.678382 
L 185.838545 211.406817 
L 187.461818 218.782145 
L 189.085091 222.035466 
L 190.708364 219.280492 
L 197.201455 220.246443 
L 198.824727 224.711399 
L 200.448 224.908168 
L 202.071273 224.653645 
L 205.317818 225.033587 
L 206.941091 215.101867 
L 208.564364 211.792259 
L 210.187636 212.079892 
L 211.810909 215.896778 
L 213.434182 216.157355 
L 215.057455 222.88462 
L 218.304 223.289867 
L 219.927273 217.178592 
L 221.550545 222.03555 
L 223.173818 235.097195 
L 226.420364 235.252477 
L 228.043636 240.372982 
L 229.666909 247.325156 
L 231.290182 253.117327 
L 234.536727 252.718549 
L 236.16 251.693878 
L 239.406545 251.351261 
L 241.029818 254.45231 
L 242.653091 251.024718 
L 244.276364 251.625935 
L 245.899636 246.440569 
L 257.262545 245.94884 
L 258.885818 240.618313 
L 260.509091 240.636247 
L 262.132364 233.741179 
L 263.755636 228.343507 
L 265.378909 231.836785 
L 267.002182 231.967506 
L 268.625455 227.610021 
L 270.248727 224.370742 
L 271.872 224.570966 
L 273.495273 228.123673 
L 275.118545 224.719891 
L 276.741818 224.915578 
L 278.365091 222.472187 
L 279.988364 222.685944 
L 281.611636 222.40323 
L 283.234909 225.685503 
L 284.858182 225.874843 
L 286.481455 226.316299 
L 289.728 226.690818 
L 291.351273 227.820041 
L 292.974545 228.00207 
L 294.597818 226.688787 
L 296.221091 232.403725 
L 297.844364 232.928125 
L 299.467636 230.46064 
L 301.090909 230.630978 
L 302.714182 232.477127 
L 304.337455 232.629498 
L 305.960727 235.113338 
L 307.584 236.78587 
L 309.207273 235.36784 
L 312.453818 235.619567 
L 314.077091 238.469088 
L 315.700364 235.868567 
L 322.193455 236.358557 
L 323.816727 238.002577 
L 325.44 234.53453 
L 327.063273 238.238691 
L 328.686545 242.363262 
L 330.309818 236.912558 
L 341.672727 237.82907 
L 343.296 236.042848 
L 346.542545 236.307482 
L 348.165818 235.279082 
L 349.789091 239.827623 
L 351.412364 241.72635 
L 364.398545 242.42535 
L 366.021818 247.849436 
L 372.514909 248.021348 
L 374.138182 244.690282 
L 377.384727 248.151136 
L 379.008 243.185042 
L 388.747636 243.67654 
L 390.370909 242.525694 
L 395.240727 242.759255 
L 396.864 241.320839 
L 398.487273 241.41664 
L 398.487273 241.41664 
" clip-path="url(#pde29e71fb9)" style="fill: none; stroke-dasharray: 1.5,2.475; stroke-dashoffset: 0; stroke: #0000ff; stroke-width: 1.5"/>
   </g>
   <g id="line2d_43">
    <path d="M 57.6 295.488 
L 414.72 295.488 
" clip-path="url(#pde29e71fb9)" style="fill: none; stroke-dasharray: 5.55,2.4; stroke-dashoffset: 0; stroke: #808080; stroke-width: 1.5"/>
   </g>
   <g id="patch_3">
    <path d="M 57.6 307.584 
L 57.6 41.472 
" style="fill: none; stroke: #000000; stroke-width: 0.8; stroke-linejoin: miter; stroke-linecap: square"/>
   </g>
   <g id="patch_4">
    <path d="M 414.72 307.584 
L 414.72 41.472 
" style="fill: none; stroke: #000000; stroke-width: 0.8; stroke-linejoin: miter; stroke-linecap: square"/>
   </g>
   <g id="patch_5">
    <path d="M 57.6 307.584 
L 414.72 307.584 
" style="fill: none; stroke: #000000; stroke-width: 0.8; stroke-linejoin: miter; stroke-linecap: square"/>
   </g>
   <g id="patch_6">
    <path d="M 57.6 41.472 
L 414.72 41.472 
" style="fill: none; stroke: #000000; stroke-width: 0.8; stroke-linejoin: miter; stroke-linecap: square"/>
   </g>
   <g id="legend_1">
    <g id="patch_7">
     <path d="M 403.72 54.472 
L 407.72 54.472 
Q 409.72 54.472 409.72 52.472 
L 409.72 48.472 
Q 409.72 46.472 407.72 46.472 
L 403.72 46.472 
Q 401.72 46.472 401.72 48.472 
L 401.72 52.472 
Q 401.72 54.472 403.72 54.472 
z
" style="fill: #ffffff; opacity: 0.8; stroke: #cccccc; stroke-linejoin: miter"/>
    </g>
   </g>
  </g>
 </g>
 <defs>
  <clipPath id="pde29e71fb9">
   <rect x="57.6" y="41.472" width="357.12" height="266.112"/>
  </clipPath>
 </defs>
</svg>
