<?xml version="1.0" encoding="utf-8"?>
<!-- Generator: Adobe Illustrator 25.2.1, SVG Export Plug-In . SVG Version: 6.00 Build 0)  -->
<svg version="1.1" id="Layer_1" xmlns:ev="http://www.w3.org/2001/xml-events"
	 xmlns="http://www.w3.org/2000/svg" xmlns:xlink="http://www.w3.org/1999/xlink" x="0px" y="0px" viewBox="0 0 1050 750"
	 style="enable-background:new 0 0 1050 750;" xml:space="preserve">
<style type="text/css">
	.st0{fill:none;stroke:#000000;}
	.st1{font-family:'ArialMT';}
	.st2{font-size:14px;}
</style>
<g>
	<g>
		<g>
			<line class="st0" x1="90" y1="718.2" x2="90" y2="10"/>
			<g>
				<g transform="translate(40 718.2)">
					<line class="st0" x1="50" y1="0" x2="45" y2="0"/>
					<g transform="translate(-6 0)">
						<text transform="matrix(1 0 0 1 22.752 1.833125e-04)" class="st1 st2">0.00</text>
					</g>
				</g>
				<g transform="translate(40 700.472)">
					<line class="st0" x1="50" y1="0" x2="45" y2="0"/>
					<g transform="translate(-6 0)">
						<text transform="matrix(1 0 0 1 7.1797 1.829688e-04)" class="st1 st2">371.88</text>
					</g>
				</g>
				<g transform="translate(40 682.744)">
					<line class="st0" x1="50" y1="0" x2="45" y2="0"/>
					<g transform="translate(-6 0)">
						<text transform="matrix(1 0 0 1 7.1797 1.216250e-04)" class="st1 st2">380.40</text>
					</g>
				</g>
				<g transform="translate(40 665.015)">
					<line class="st0" x1="50" y1="0" x2="45" y2="0"/>
					<g transform="translate(-6 0)">
						<text transform="matrix(1 0 0 1 7.1797 1.217188e-04)" class="st1 st2">707.44</text>
					</g>
				</g>
				<g transform="translate(40 647.287)">
					<line class="st0" x1="50" y1="0" x2="45" y2="0"/>
					<g transform="translate(-6 0)">
						<text transform="matrix(1 0 0 1 7.1797 1.223750e-04)" class="st1 st2">859.67</text>
					</g>
				</g>
				<g transform="translate(40 629.559)">
					<line class="st0" x1="50" y1="0" x2="45" y2="0"/>
					<g transform="translate(-6 0)">
						<text transform="matrix(1 0 0 1 7.1797 6.103125e-05)" class="st1 st2">933.97</text>
					</g>
				</g>
				<g transform="translate(40 611.831)">
					<line class="st0" x1="50" y1="0" x2="45" y2="0"/>
					<g transform="translate(-6 0)">
						<text transform="matrix(1 0 0 1 -0.6064 6.068750e-05)" class="st1 st2">1246.16</text>
					</g>
				</g>
				<g transform="translate(40 594.103)">
					<line class="st0" x1="50" y1="0" x2="45" y2="0"/>
					<g transform="translate(-6 0)">
						<text transform="matrix(1 0 0 1 -0.6064 0)" class="st1 st2">1416.95</text>
					</g>
				</g>
				<g transform="translate(40 576.374)">
					<line class="st0" x1="50" y1="0" x2="45" y2="0"/>
					<g transform="translate(-6 0)">
						<text transform="matrix(1 0 0 1 -0.6064 0)" class="st1 st2">1487.87</text>
					</g>
				</g>
				<g transform="translate(40 558.646)">
					<line class="st0" x1="50" y1="0" x2="45" y2="0"/>
					<g transform="translate(-6 0)">
						<text transform="matrix(1 0 0 1 -0.6064 0)" class="st1 st2">1542.26</text>
					</g>
				</g>
				<g transform="translate(40 540.918)">
					<line class="st0" x1="50" y1="0" x2="45" y2="0"/>
					<g transform="translate(-6 0)">
						<text transform="matrix(1 0 0 1 -0.6064 -6.125000e-05)" class="st1 st2">1820.04</text>
					</g>
				</g>
				<g transform="translate(40 523.19)">
					<line class="st0" x1="50" y1="0" x2="45" y2="0"/>
					<g transform="translate(-6 0)">
						<text transform="matrix(1 0 0 1 -0.6064 -6.059375e-05)" class="st1 st2">2048.79</text>
					</g>
				</g>
				<g transform="translate(40 505.462)">
					<line class="st0" x1="50" y1="0" x2="45" y2="0"/>
					<g transform="translate(-6 0)">
						<text transform="matrix(1 0 0 1 -0.6064 -9.193750e-05)" class="st1 st2">2075.28</text>
					</g>
				</g>
				<g transform="translate(40 487.733)">
					<line class="st0" x1="50" y1="0" x2="45" y2="0"/>
					<g transform="translate(-6 0)">
						<text transform="matrix(1 0 0 1 -0.6064 -9.184375e-05)" class="st1 st2">2263.77</text>
					</g>
				</g>
				<g transform="translate(40 470.005)">
					<line class="st0" x1="50" y1="0" x2="45" y2="0"/>
					<g transform="translate(-6 0)">
						<text transform="matrix(1 0 0 1 -0.6064 -1.221875e-04)" class="st1 st2">2347.55</text>
					</g>
				</g>
				<g transform="translate(40 452.277)">
					<line class="st0" x1="50" y1="0" x2="45" y2="0"/>
					<g transform="translate(-6 0)">
						<text transform="matrix(1 0 0 1 -0.6064 -1.525313e-04)" class="st1 st2">2351.96</text>
					</g>
				</g>
				<g transform="translate(40 434.549)">
					<line class="st0" x1="50" y1="0" x2="45" y2="0"/>
					<g transform="translate(-6 0)">
						<text transform="matrix(1 0 0 1 -0.6064 -1.828750e-04)" class="st1 st2">2656.83</text>
					</g>
				</g>
				<g transform="translate(40 416.821)">
					<line class="st0" x1="50" y1="0" x2="45" y2="0"/>
					<g transform="translate(-6 0)">
						<text transform="matrix(1 0 0 1 -0.6064 -2.132188e-04)" class="st1 st2">2747.83</text>
					</g>
				</g>
				<g transform="translate(40 399.092)">
					<line class="st0" x1="50" y1="0" x2="45" y2="0"/>
					<g transform="translate(-6 0)">
						<text transform="matrix(1 0 0 1 -0.6064 -2.131250e-04)" class="st1 st2">3004.44</text>
					</g>
				</g>
				<g transform="translate(40 381.364)">
					<line class="st0" x1="50" y1="0" x2="45" y2="0"/>
					<g transform="translate(-6 0)">
						<text transform="matrix(1 0 0 1 -0.6064 2.438125e-04)" class="st1 st2">3414.87</text>
					</g>
				</g>
				<g transform="translate(40 363.636)">
					<line class="st0" x1="50" y1="0" x2="45" y2="0"/>
					<g transform="translate(-6 0)">
						<text transform="matrix(1 0 0 1 -0.6064 -2.438125e-04)" class="st1 st2">3418.85</text>
					</g>
				</g>
				<g transform="translate(40 345.908)">
					<line class="st0" x1="50" y1="0" x2="45" y2="0"/>
					<g transform="translate(-6 0)">
						<text transform="matrix(1 0 0 1 -0.6064 2.131250e-04)" class="st1 st2">3631.16</text>
					</g>
				</g>
				<g transform="translate(40 328.179)">
					<line class="st0" x1="50" y1="0" x2="45" y2="0"/>
					<g transform="translate(-6 0)">
						<text transform="matrix(1 0 0 1 -0.6064 2.132188e-04)" class="st1 st2">4019.49</text>
					</g>
				</g>
				<g transform="translate(40 310.451)">
					<line class="st0" x1="50" y1="0" x2="45" y2="0"/>
					<g transform="translate(-6 0)">
						<text transform="matrix(1 0 0 1 -0.6064 1.828750e-04)" class="st1 st2">4809.01</text>
					</g>
				</g>
				<g transform="translate(40 292.723)">
					<line class="st0" x1="50" y1="0" x2="45" y2="0"/>
					<g transform="translate(-6 0)">
						<text transform="matrix(1 0 0 1 -0.6064 1.525313e-04)" class="st1 st2">5295.17</text>
					</g>
				</g>
				<g transform="translate(40 274.995)">
					<line class="st0" x1="50" y1="0" x2="45" y2="0"/>
					<g transform="translate(-6 0)">
						<text transform="matrix(1 0 0 1 -0.6064 1.221875e-04)" class="st1 st2">5308.67</text>
					</g>
				</g>
				<g transform="translate(40 257.267)">
					<line class="st0" x1="50" y1="0" x2="45" y2="0"/>
					<g transform="translate(-6 0)">
						<text transform="matrix(1 0 0 1 -0.6064 9.184375e-05)" class="st1 st2">5556.89</text>
					</g>
				</g>
				<g transform="translate(40 239.538)">
					<line class="st0" x1="50" y1="0" x2="45" y2="0"/>
					<g transform="translate(-6 0)">
						<text transform="matrix(1 0 0 1 0.4326 9.193750e-05)" class="st1 st2">5811.08</text>
					</g>
				</g>
				<g transform="translate(40 221.81)">
					<line class="st0" x1="50" y1="0" x2="45" y2="0"/>
					<g transform="translate(-6 0)">
						<text transform="matrix(1 0 0 1 -0.6064 6.059375e-05)" class="st1 st2">6123.46</text>
					</g>
				</g>
				<g transform="translate(40 204.082)">
					<line class="st0" x1="50" y1="0" x2="45" y2="0"/>
					<g transform="translate(-6 0)">
						<text transform="matrix(1 0 0 1 -0.6064 3.025000e-05)" class="st1 st2">6912.24</text>
					</g>
				</g>
				<g transform="translate(40 186.354)">
					<line class="st0" x1="50" y1="0" x2="45" y2="0"/>
					<g transform="translate(-6 0)">
						<text transform="matrix(1 0 0 1 -0.6064 0)" class="st1 st2">7180.56</text>
					</g>
				</g>
				<g transform="translate(40 168.626)">
					<line class="st0" x1="50" y1="0" x2="45" y2="0"/>
					<g transform="translate(-6 0)">
						<text transform="matrix(1 0 0 1 -0.6064 -3.043750e-05)" class="st1 st2">7224.45</text>
					</g>
				</g>
				<g transform="translate(40 150.897)">
					<line class="st0" x1="50" y1="0" x2="45" y2="0"/>
					<g transform="translate(-6 0)">
						<text transform="matrix(1 0 0 1 -0.6064 -3.034375e-05)" class="st1 st2">8180.64</text>
					</g>
				</g>
				<g transform="translate(40 133.169)">
					<line class="st0" x1="50" y1="0" x2="45" y2="0"/>
					<g transform="translate(-6 0)">
						<text transform="matrix(1 0 0 1 -7.3535 -6.068750e-05)" class="st1 st2">11381.98</text>
					</g>
				</g>
				<g transform="translate(40 115.441)">
					<line class="st0" x1="50" y1="0" x2="45" y2="0"/>
					<g transform="translate(-6 0)">
						<text transform="matrix(1 0 0 1 -8.3926 -8.403125e-05)" class="st1 st2">12227.99</text>
					</g>
				</g>
				<g transform="translate(40 97.7128)">
					<line class="st0" x1="50" y1="0" x2="45" y2="0"/>
					<g transform="translate(-6 0)">
						<text transform="matrix(1 0 0 1 -8.3926 9.162500e-05)" class="st1 st2">14848.93</text>
					</g>
				</g>
				<g transform="translate(40 79.9846)">
					<line class="st0" x1="50" y1="0" x2="45" y2="0"/>
					<g transform="translate(-6 0)">
						<text transform="matrix(1 0 0 1 -8.3926 -2.210000e-04)" class="st1 st2">14920.29</text>
					</g>
				</g>
				<g transform="translate(40 62.2564)">
					<line class="st0" x1="50" y1="0" x2="45" y2="0"/>
					<g transform="translate(-6 0)">
						<text transform="matrix(1 0 0 1 -8.3926 -5.334375e-05)" class="st1 st2">50105.62</text>
					</g>
				</g>
				<g transform="translate(40 44.5282)">
					<line class="st0" x1="50" y1="0" x2="45" y2="0"/>
					<g transform="translate(-6 0)">
						<text transform="matrix(1 0 0 1 -16.1787 1.223125e-04)" class="st1 st2">102725.56</text>
					</g>
				</g>
				<g transform="translate(40 26.8)">
					<line class="st0" x1="50" y1="0" x2="45" y2="0"/>
					<g transform="translate(-6 0)">
						<text transform="matrix(1 0 0 1 -16.1787 -1.943125e-04)" class="st1 st2">734194.88</text>
					</g>
				</g>
			</g>
		</g>
	</g>
	<g>
		<g transform="translate(849.981 26.8)">
			<g transform="translate(-88.8938 53.1846)">
				<g transform="translate(77.9126 372.292)">
					<g transform="translate(-11.75 265.923)">
						<path class="st0" d="M50,0v-265.9h11.8"/>
						<rect x="47" y="-3" width="6" height="6"/>
						<text transform="matrix(1 0 0 1 42.2138 11.0001)" class="st1 st2">24</text>
					</g>
					<g transform="translate(11.75 265.923)">
						<path class="st0" d="M50,0v-265.9H38.2"/>
						<rect x="47" y="-3" width="6" height="6"/>
						<text transform="matrix(1 0 0 1 42.2138 11.0001)" class="st1 st2">25</text>
					</g>
					<path class="st0" d="M50,0v-372.3h-77.9"/>
					<circle cx="50" cy="0" r="3"/>
					<text transform="matrix(1 0 0 1 52.9999 -7.0002)" class="st1 st2">54</text>
				</g>
				<g transform="translate(-77.9126 17.7282)">
					<g transform="translate(91.2002 159.554)">
						<g transform="translate(29.375 460.933)">
							<path class="st0" d="M50,0v-460.9H20.6"/>
							<rect x="47" y="-3" width="6" height="6"/>
							<text transform="matrix(1 0 0 1 42.2138 10.9999)" class="st1 st2">14</text>
						</g>
						<g transform="translate(-29.375 141.826)">
							<g transform="translate(23.5 230.467)">
								<g transform="translate(-11.75 88.641)">
									<path class="st0" d="M50,0v-88.6h11.8"/>
									<rect x="47" y="-3" width="6" height="6"/>
									<text transform="matrix(1 0 0 1 42.2138 10.9999)" class="st1 st2">30</text>
								</g>
								<g transform="translate(11.75 88.641)">
									<path class="st0" d="M50,0v-88.6H38.2"/>
									<rect x="47" y="-3" width="6" height="6"/>
									<text transform="matrix(1 0 0 1 42.2138 10.9999)" class="st1 st2">36</text>
								</g>
								<path class="st0" d="M50,0v-230.5H26.5"/>
								<circle cx="50" cy="0" r="3"/>
								<text transform="matrix(1 0 0 1 52.9999 -7.0002)" class="st1 st2">44</text>
							</g>
							<g transform="translate(-23.5 177.282)">
								<g transform="translate(-11.75 141.826)">
									<path class="st0" d="M50,0v-141.8h11.8"/>
									<rect x="47" y="-3" width="6" height="6"/>
									<text transform="matrix(1 0 0 1 42.2138 10.9999)" class="st1 st2">12</text>
								</g>
								<g transform="translate(11.75 141.826)">
									<path class="st0" d="M50,0v-141.8H38.2"/>
									<rect x="47" y="-3" width="6" height="6"/>
									<text transform="matrix(1 0 0 1 42.2138 10.9999)" class="st1 st2">38</text>
								</g>
								<path class="st0" d="M50,0v-177.3h23.5"/>
								<circle cx="50" cy="0" r="3"/>
								<text transform="matrix(1 0 0 1 31.4277 -6.9998)" class="st1 st2">47</text>
							</g>
							<path class="st0" d="M50,0v-141.8h29.4"/>
							<circle cx="50" cy="0" r="3"/>
							<text transform="matrix(1 0 0 1 31.4277 -7)" class="st1 st2">57</text>
						</g>
						<path class="st0" d="M50,0v-159.6h-91.2"/>
						<circle cx="50" cy="0" r="3"/>
						<text transform="matrix(1 0 0 1 52.9999 -7.0002)" class="st1 st2">65</text>
					</g>
					<g transform="translate(-91.2002 17.7282)">
						<g transform="translate(82.5254 319.108)">
							<g transform="translate(-11.75 283.651)">
								<path class="st0" d="M50,0v-283.7h11.8"/>
								<rect x="47" y="-3" width="6" height="6"/>
								<text transform="matrix(1 0 0 1 42.2138 11.0002)" class="st1 st2">16</text>
							</g>
							<g transform="translate(11.75 283.651)">
								<path class="st0" d="M50,0v-283.7H38.2"/>
								<rect x="47" y="-3" width="6" height="6"/>
								<text transform="matrix(1 0 0 1 42.2138 11.0002)" class="st1 st2">17</text>
							</g>
							<path class="st0" d="M50,0v-319.1h-82.5"/>
							<circle cx="50" cy="0" r="3"/>
							<text transform="matrix(1 0 0 1 52.9999 -7.0002)" class="st1 st2">55</text>
						</g>
						<g transform="translate(-82.5254 17.7282)">
							<g transform="translate(79.8633 53.1846)">
								<g transform="translate(-20.5625 531.846)">
									<path class="st0" d="M50,0v-531.8h20.6"/>
									<rect x="47" y="-3" width="6" height="6"/>
									<text transform="matrix(1 0 0 1 42.2138 10.9999)" class="st1 st2">18</text>
								</g>
								<g transform="translate(20.5625 159.554)">
									<g transform="translate(-17.625 372.292)">
										<path class="st0" d="M50,0v-372.3h17.6"/>
										<rect x="47" y="-3" width="6" height="6"/>
										<text transform="matrix(1 0 0 1 42.2138 10.9999)" class="st1 st2">33</text>
									</g>
									<g transform="translate(17.625 319.108)">
										<g transform="translate(-11.75 53.1846)">
											<path class="st0" d="M50,0v-53.2h11.8"/>
											<rect x="47" y="-3" width="6" height="6"/>
											<text transform="matrix(1 0 0 1 42.2138 10.9998)" class="st1 st2">34</text>
										</g>
										<g transform="translate(11.75 53.1846)">
											<path class="st0" d="M50,0v-53.2H38.2"/>
											<rect x="47" y="-3" width="6" height="6"/>
											<text transform="matrix(1 0 0 1 42.2138 10.9998)" class="st1 st2">35</text>
										</g>
										<path class="st0" d="M50,0v-319.1H32.4"/>
										<circle cx="50" cy="0" r="3"/>
										<text transform="matrix(1 0 0 1 52.9999 -7.0002)" class="st1 st2">42</text>
									</g>
									<path class="st0" d="M50,0v-159.6H29.4"/>
									<circle cx="50" cy="0" r="3"/>
									<text transform="matrix(1 0 0 1 52.9999 -7.0001)" class="st1 st2">60</text>
								</g>
								<path class="st0" d="M50,0v-53.2h-79.9"/>
								<circle cx="50" cy="0" r="3"/>
								<text transform="matrix(1 0 0 1 52.9999 -6.9998)" class="st1 st2">69</text>
							</g>
							<g transform="translate(-79.8633 17.7282)">
								<g transform="translate(68.6641 53.1846)">
									<g transform="translate(35.25 212.738)">
										<g transform="translate(-11.75 301.379)">
											<path class="st0" d="M50,0v-301.4h11.8"/>
											<rect x="47" y="-3" width="6" height="6"/>
											<text transform="matrix(1 0 0 1 42.2138 11.0002)" class="st1 st2">15</text>
										</g>
										<g transform="translate(11.75 301.379)">
											<path class="st0" d="M50,0v-301.4H38.2"/>
											<rect x="47" y="-3" width="6" height="6"/>
											<text transform="matrix(1 0 0 1 42.2138 11.0002)" class="st1 st2">19</text>
										</g>
										<path class="st0" d="M50,0v-212.7H14.8"/>
										<circle cx="50" cy="0" r="3"/>
										<text transform="matrix(1 0 0 1 52.9999 -7.0002)" class="st1 st2">56</text>
									</g>
									<g transform="translate(-35.25 124.097)">
										<g transform="translate(23.5 195.01)">
											<g transform="translate(-11.75 195.01)">
												<path class="st0" d="M50,0v-195h11.8"/>
												<rect x="47" y="-3" width="6" height="6"/>
												<text transform="matrix(1 0 0 1 46.1069 11.0002)" class="st1 st2">9</text>
											</g>
											<g transform="translate(11.75 195.01)">
												<path class="st0" d="M50,0v-195H38.2"/>
												<rect x="47" y="-3" width="6" height="6"/>
												<text transform="matrix(1 0 0 1 42.2138 11.0002)" class="st1 st2">39</text>
											</g>
											<path class="st0" d="M50,0v-195H26.5"/>
											<circle cx="50" cy="0" r="3"/>
											<text transform="matrix(1 0 0 1 52.9999 -7)" class="st1 st2">50</text>
										</g>
										<g transform="translate(-23.5 141.826)">
											<g transform="translate(-11.75 248.195)">
												<path class="st0" d="M50,0v-248.2h11.8"/>
												<rect x="47" y="-3" width="6" height="6"/>
												<text transform="matrix(1 0 0 1 46.1069 11.0002)" class="st1 st2">2</text>
											</g>
											<g transform="translate(11.75 248.195)">
												<path class="st0" d="M50,0v-248.2H38.2"/>
												<rect x="47" y="-3" width="6" height="6"/>
												<text transform="matrix(1 0 0 1 42.2138 11.0002)" class="st1 st2">31</text>
											</g>
											<path class="st0" d="M50,0v-141.8h23.5"/>
											<circle cx="50" cy="0" r="3"/>
											<text transform="matrix(1 0 0 1 31.4277 -7.0001)" class="st1 st2">53</text>
										</g>
										<path class="st0" d="M50,0v-124.1h35.2"/>
										<circle cx="50" cy="0" r="3"/>
										<text transform="matrix(1 0 0 1 31.4277 -6.9998)" class="st1 st2">61</text>
									</g>
									<path class="st0" d="M50,0v-53.2h-68.7"/>
									<circle cx="50" cy="0" r="3"/>
									<text transform="matrix(1 0 0 1 52.9999 -7)" class="st1 st2">68</text>
								</g>
								<g transform="translate(-68.6641 17.7282)">
									<g transform="translate(43.3281 549.574)">
										<path class="st0" d="M50,0v-549.6H6.7"/>
										<rect x="47" y="-3" width="6" height="6"/>
										<text transform="matrix(1 0 0 1 42.2139 11.0001)" class="st1 st2">28</text>
									</g>
									<g transform="translate(-43.3281 70.9128)">
										<g transform="translate(51.4062 53.1846)">
											<g transform="translate(-11.75 425.477)">
												<path class="st0" d="M50,0v-425.5h11.8"/>
												<rect x="47" y="-3" width="6" height="6"/>
												<text transform="matrix(1 0 0 1 42.2139 11.0002)" class="st1 st2">13</text>
											</g>
											<g transform="translate(11.75 425.477)">
												<path class="st0" d="M50,0v-425.5H38.2"/>
												<rect x="47" y="-3" width="6" height="6"/>
												<text transform="matrix(1 0 0 1 42.2139 11.0002)" class="st1 st2">32</text>
											</g>
											<path class="st0" d="M50,0v-53.2H-1.4"/>
											<circle cx="50" cy="0" r="3"/>
											<text transform="matrix(1 0 0 1 53 -6.9999)" class="st1 st2">63</text>
										</g>
										<g transform="translate(-51.4062 35.4564)">
											<g transform="translate(49.9375 106.369)">
												<g transform="translate(17.625 336.836)">
													<path class="st0" d="M50,0v-336.8H32.4"/>
													<rect x="47" y="-3" width="6" height="6"/>
													<text transform="matrix(1 0 0 1 42.2138 10.9999)" class="st1 st2">21</text>
												</g>
												<g transform="translate(-17.625 230.467)">
													<g transform="translate(-11.75 106.369)">
														<path class="st0" d="M50,0v-106.4h11.8"/>
														<rect x="47" y="-3" width="6" height="6"/>
														<text transform="matrix(1 0 0 1 46.1069 10.9999)" class="st1 st2">3</text>
													</g>
													<g transform="translate(11.75 106.369)">
														<path class="st0" d="M50,0v-106.4H38.2"/>
														<rect x="47" y="-3" width="6" height="6"/>
														<text transform="matrix(1 0 0 1 42.2138 10.9999)" class="st1 st2">20</text>
													</g>
													<path class="st0" d="M50,0v-230.5h17.6"/>
													<circle cx="50" cy="0" r="3"/>
													<text transform="matrix(1 0 0 1 31.4277 -7.0002)" class="st1 st2">45</text>
												</g>
												<path class="st0" d="M50,0v-106.4H0.1"/>
												<circle cx="50" cy="0" r="3"/>
												<text transform="matrix(1 0 0 1 52.9999 -7)" class="st1 st2">58</text>
											</g>
											<g transform="translate(-49.9375 35.4564)">
												<g transform="translate(47 407.749)">
													<path class="st0" d="M50,0v-407.7H3"/>
													<rect x="47" y="-3" width="6" height="6"/>
													<text transform="matrix(1 0 0 1 42.2138 11)" class="st1 st2">10</text>
												</g>
												<g transform="translate(-47 53.1846)">
													<g transform="translate(-52.875 177.282)">
														<g transform="translate(-35.25 53.1846)">
															<g transform="translate(17.625 124.097)">
																<path class="st0" d="M50,0v-124.1H32.4"/>
																<rect x="47" y="-3" width="6" height="6"/>
																<text transform="matrix(1 0 0 1 42.2138 10.9998)" class="st1 st2">22</text>
															</g>
															<g transform="translate(-17.625 106.369)">
																<g transform="translate(-11.75 17.7282)">
																	<path class="st0" d="M50,0v-17.7h11.8"/>
																	<rect x="47" y="-3" width="6" height="6"/>
																	<text transform="matrix(1 0 0 1 46.1069 11.0001)" class="st1 st2">0</text>
																</g>
																<g transform="translate(11.75 17.7282)">
																	<path class="st0" d="M50,0v-17.7H38.2"/>
																	<rect x="47" y="-3" width="6" height="6"/>
																	<text transform="matrix(1 0 0 1 46.1069 11.0001)" class="st1 st2">1</text>
																</g>
																<path class="st0" d="M50,0v-106.4h17.6"/>
																<circle cx="50" cy="0" r="3"/>
																<text transform="matrix(1 0 0 1 31.4277 -7.0002)" class="st1 st2">40</text>
															</g>
															<path class="st0" d="M50,0v-53.2h35.2"/>
															<circle cx="50" cy="0" r="3"/>
															<text transform="matrix(1 0 0 1 31.4277 -6.9999)" class="st1 st2">46</text>
														</g>
														<g transform="translate(35.25 17.7282)">
															<g transform="translate(17.625 159.554)">
																<path class="st0" d="M50,0v-159.6H32.4"/>
																<rect x="47" y="-3" width="6" height="6"/>
																<text transform="matrix(1 0 0 1 46.1069 11.0002)" class="st1 st2">8</text>
															</g>
															<g transform="translate(-17.625 124.097)">
																<g transform="translate(-11.75 35.4564)">
																	<path class="st0" d="M50,0v-35.5h11.8"/>
																	<rect x="47" y="-3" width="6" height="6"/>
																	<text transform="matrix(1 0 0 1 46.1069 10.9998)" class="st1 st2">6</text>
																</g>
																<g transform="translate(11.75 35.4564)">
																	<path class="st0" d="M50,0v-35.5H38.2"/>
																	<rect x="47" y="-3" width="6" height="6"/>
																	<text transform="matrix(1 0 0 1 46.1069 10.9998)" class="st1 st2">7</text>
																</g>
																<path class="st0" d="M50,0v-124.1h17.6"/>
																<circle cx="50" cy="0" r="3"/>
																<text transform="matrix(1 0 0 1 31.4277 -6.9998)" class="st1 st2">41</text>
															</g>
															<path class="st0" d="M50,0v-17.7H14.8"/>
															<circle cx="50" cy="0" r="3"/>
															<text transform="matrix(1 0 0 1 52.9999 -7)" class="st1 st2">48</text>
														</g>
														<path class="st0" d="M50,0v-177.3h52.9"/>
														<circle cx="50" cy="0" r="3"/>
														<text transform="matrix(1 0 0 1 31.4277 -6.9998)" class="st1 st2">49</text>
													</g>
													<g transform="translate(52.875 124.097)">
														<g transform="translate(17.625 230.467)">
															<path class="st0" d="M50,0v-230.5H32.4"/>
															<rect x="47" y="-3" width="6" height="6"/>
															<text transform="matrix(1 0 0 1 42.2138 10.9999)" class="st1 st2">26</text>
														</g>
														<g transform="translate(-17.625 17.7282)">
															<g transform="translate(-11.75 212.738)">
																<path class="st0" d="M50,0v-212.7h11.8"/>
																<rect x="47" y="-3" width="6" height="6"/>
																<text transform="matrix(1 0 0 1 42.2138 11.0002)" class="st1 st2">23</text>
															</g>
															<g transform="translate(11.75 212.738)">
																<path class="st0" d="M50,0v-212.7H38.2"/>
																<rect x="47" y="-3" width="6" height="6"/>
																<text transform="matrix(1 0 0 1 42.2138 11.0002)" class="st1 st2">27</text>
															</g>
															<path class="st0" d="M50,0v-17.7h17.6"/>
															<circle cx="50" cy="0" r="3"/>
															<text transform="matrix(1 0 0 1 31.4277 -7.0001)" class="st1 st2">51</text>
														</g>
														<path class="st0" d="M50,0v-124.1H-2.9"/>
														<circle cx="50" cy="0" r="3"/>
														<text transform="matrix(1 0 0 1 52.9999 -6.9999)" class="st1 st2">52</text>
													</g>
													<path class="st0" d="M50,0v-53.2h47"/>
													<circle cx="50" cy="0" r="3"/>
													<text transform="matrix(1 0 0 1 31.4277 -7.0001)" class="st1 st2">59</text>
												</g>
												<path class="st0" d="M50,0v-35.5h49.9"/>
												<circle cx="50" cy="0" r="3"/>
												<text transform="matrix(1 0 0 1 31.4277 -7)" class="st1 st2">62</text>
											</g>
											<path class="st0" d="M50,0v-35.5h51.4"/>
											<circle cx="50" cy="0" r="3"/>
											<text transform="matrix(1 0 0 1 31.4277 -7.0002)" class="st1 st2">64</text>
										</g>
										<path class="st0" d="M50,0v-70.9h43.3"/>
										<circle cx="50" cy="0" r="3"/>
										<text transform="matrix(1 0 0 1 31.4277 -6.9998)" class="st1 st2">66</text>
									</g>
									<path class="st0" d="M50,0v-17.7h68.7"/>
									<circle cx="50" cy="0" r="3"/>
									<text transform="matrix(1 0 0 1 31.4277 -7.0001)" class="st1 st2">70</text>
								</g>
								<path class="st0" d="M50,0v-17.7h79.9"/>
								<circle cx="50" cy="0" r="3"/>
								<text transform="matrix(1 0 0 1 31.4277 -6.9999)" class="st1 st2">71</text>
							</g>
							<path class="st0" d="M50,0v-17.7h82.5"/>
							<circle cx="50" cy="0" r="3"/>
							<text transform="matrix(1 0 0 1 31.4277 -6.9998)" class="st1 st2">72</text>
						</g>
						<path class="st0" d="M50,0v-17.7h91.2"/>
						<circle cx="50" cy="0" r="3"/>
						<text transform="matrix(1 0 0 1 31.4277 -7.0001)" class="st1 st2">73</text>
					</g>
					<path class="st0" d="M50,0v-17.7h77.9"/>
					<circle cx="50" cy="0" r="3"/>
					<text transform="matrix(1 0 0 1 31.4277 -6.9999)" class="st1 st2">74</text>
				</g>
				<path class="st0" d="M50,0v-53.2h88.9"/>
				<circle cx="50" cy="0" r="3"/>
				<text transform="matrix(1 0 0 1 31.4277 -7.0002)" class="st1 st2">75</text>
			</g>
			<g transform="translate(88.8938 17.7282)">
				<g transform="translate(29.375 673.672)">
					<path class="st0" d="M50,0v-673.7H20.6"/>
					<rect x="47" y="-3" width="6" height="6"/>
					<text transform="matrix(1 0 0 1 42.7333 11)" class="st1 st2">11</text>
				</g>
				<g transform="translate(-29.375 17.7282)">
					<g transform="translate(-23.5 585.031)">
						<g transform="translate(-11.75 70.9128)">
							<path class="st0" d="M50,0v-70.9h11.8"/>
							<rect x="47" y="-3" width="6" height="6"/>
							<text transform="matrix(1 0 0 1 46.1069 11)" class="st1 st2">4</text>
						</g>
						<g transform="translate(11.75 70.9128)">
							<path class="st0" d="M50,0v-70.9H38.2"/>
							<rect x="47" y="-3" width="6" height="6"/>
							<text transform="matrix(1 0 0 1 46.1069 11)" class="st1 st2">5</text>
						</g>
						<path class="st0" d="M50,0v-585h23.5"/>
						<circle cx="50" cy="0" r="3"/>
						<text transform="matrix(1 0 0 1 31.4277 -6.9998)" class="st1 st2">43</text>
					</g>
					<g transform="translate(23.5 159.554)">
						<g transform="translate(-11.75 496.39)">
							<path class="st0" d="M50,0v-496.4h11.8"/>
							<rect x="47" y="-3" width="6" height="6"/>
							<text transform="matrix(1 0 0 1 42.2138 10.9998)" class="st1 st2">29</text>
						</g>
						<g transform="translate(11.75 496.39)">
							<path class="st0" d="M50,0v-496.4H38.2"/>
							<rect x="47" y="-3" width="6" height="6"/>
							<text transform="matrix(1 0 0 1 42.2138 10.9998)" class="st1 st2">37</text>
						</g>
						<path class="st0" d="M50,0v-159.6H26.5"/>
						<circle cx="50" cy="0" r="3"/>
						<text transform="matrix(1 0 0 1 52.9999 -6.9999)" class="st1 st2">67</text>
					</g>
					<path class="st0" d="M50,0v-17.7h29.4"/>
					<circle cx="50" cy="0" r="3"/>
					<text transform="matrix(1 0 0 1 31.4277 -7.0001)" class="st1 st2">76</text>
				</g>
				<path class="st0" d="M50,0v-17.7h-88.9"/>
				<circle cx="50" cy="0" r="3"/>
				<text transform="matrix(1 0 0 1 52.9999 -6.9999)" class="st1 st2">77</text>
			</g>
			<circle cx="50" cy="0" r="3"/>
			<text transform="matrix(1 0 0 1 42.2138 -11.0002)" class="st1 st2">78</text>
		</g>
	</g>
</g>
</svg>
