<?xml version="1.0" encoding="utf-8"?>
<!-- Generator: Adobe Illustrator 25.2.1, SVG Export Plug-In . SVG Version: 6.00 Build 0)  -->
<svg version="1.1" id="Layer_1" xmlns:ev="http://www.w3.org/2001/xml-events"
	 xmlns="http://www.w3.org/2000/svg" xmlns:xlink="http://www.w3.org/1999/xlink" x="0px" y="0px" viewBox="0 0 1041 750"
	 style="enable-background:new 0 0 1041 750;" xml:space="preserve">
<style type="text/css">
	.st0{fill:none;stroke:#000000;}
	.st1{font-family:'ArialMT';}
	.st2{font-size:14px;}
</style>
<g>
	<g>
		<g>
			<line class="st0" x1="81" y1="718.2" x2="81" y2="10"/>
			<g>
				<g transform="translate(40 718.2)">
					<line class="st0" x1="41" y1="0" x2="36" y2="0"/>
					<g transform="translate(-6 0)">
						<text transform="matrix(1 0 0 1 13.752 1.833125e-04)" class="st1 st2">0.00</text>
					</g>
				</g>
				<g transform="translate(40 700.472)">
					<line class="st0" x1="41" y1="0" x2="36" y2="0"/>
					<g transform="translate(-6 0)">
						<text transform="matrix(1 0 0 1 13.752 1.829688e-04)" class="st1 st2">0.00</text>
					</g>
				</g>
				<g transform="translate(40 682.744)">
					<line class="st0" x1="41" y1="0" x2="36" y2="0"/>
					<g transform="translate(-6 0)">
						<text transform="matrix(1 0 0 1 13.752 1.216250e-04)" class="st1 st2">0.02</text>
					</g>
				</g>
				<g transform="translate(40 665.015)">
					<line class="st0" x1="41" y1="0" x2="36" y2="0"/>
					<g transform="translate(-6 0)">
						<text transform="matrix(1 0 0 1 13.752 1.217188e-04)" class="st1 st2">0.02</text>
					</g>
				</g>
				<g transform="translate(40 647.287)">
					<line class="st0" x1="41" y1="0" x2="36" y2="0"/>
					<g transform="translate(-6 0)">
						<text transform="matrix(1 0 0 1 5.9658 1.223750e-04)" class="st1 st2">81.21</text>
					</g>
				</g>
				<g transform="translate(40 629.559)">
					<line class="st0" x1="41" y1="0" x2="36" y2="0"/>
					<g transform="translate(-6 0)">
						<text transform="matrix(1 0 0 1 -1.8203 6.103125e-05)" class="st1 st2">360.26</text>
					</g>
				</g>
				<g transform="translate(40 611.831)">
					<line class="st0" x1="41" y1="0" x2="36" y2="0"/>
					<g transform="translate(-6 0)">
						<text transform="matrix(1 0 0 1 -1.8203 6.068750e-05)" class="st1 st2">447.59</text>
					</g>
				</g>
				<g transform="translate(40 594.103)">
					<line class="st0" x1="41" y1="0" x2="36" y2="0"/>
					<g transform="translate(-6 0)">
						<text transform="matrix(1 0 0 1 -1.8203 0)" class="st1 st2">630.23</text>
					</g>
				</g>
				<g transform="translate(40 576.374)">
					<line class="st0" x1="41" y1="0" x2="36" y2="0"/>
					<g transform="translate(-6 0)">
						<text transform="matrix(1 0 0 1 -9.6064 0)" class="st1 st2">1706.22</text>
					</g>
				</g>
				<g transform="translate(40 558.646)">
					<line class="st0" x1="41" y1="0" x2="36" y2="0"/>
					<g transform="translate(-6 0)">
						<text transform="matrix(1 0 0 1 -9.6064 0)" class="st1 st2">1981.08</text>
					</g>
				</g>
				<g transform="translate(40 540.918)">
					<line class="st0" x1="41" y1="0" x2="36" y2="0"/>
					<g transform="translate(-6 0)">
						<text transform="matrix(1 0 0 1 -9.6064 -6.125000e-05)" class="st1 st2">2079.24</text>
					</g>
				</g>
				<g transform="translate(40 523.19)">
					<line class="st0" x1="41" y1="0" x2="36" y2="0"/>
					<g transform="translate(-6 0)">
						<text transform="matrix(1 0 0 1 -9.6064 -6.059375e-05)" class="st1 st2">2362.44</text>
					</g>
				</g>
				<g transform="translate(40 505.462)">
					<line class="st0" x1="41" y1="0" x2="36" y2="0"/>
					<g transform="translate(-6 0)">
						<text transform="matrix(1 0 0 1 -9.6064 -9.193750e-05)" class="st1 st2">2422.27</text>
					</g>
				</g>
				<g transform="translate(40 487.733)">
					<line class="st0" x1="41" y1="0" x2="36" y2="0"/>
					<g transform="translate(-6 0)">
						<text transform="matrix(1 0 0 1 -8.5674 -9.184375e-05)" class="st1 st2">2661.11</text>
					</g>
				</g>
				<g transform="translate(40 470.005)">
					<line class="st0" x1="41" y1="0" x2="36" y2="0"/>
					<g transform="translate(-6 0)">
						<text transform="matrix(1 0 0 1 -9.6064 -1.221875e-04)" class="st1 st2">2783.76</text>
					</g>
				</g>
				<g transform="translate(40 452.277)">
					<line class="st0" x1="41" y1="0" x2="36" y2="0"/>
					<g transform="translate(-6 0)">
						<text transform="matrix(1 0 0 1 -9.6064 -1.525313e-04)" class="st1 st2">3044.20</text>
					</g>
				</g>
				<g transform="translate(40 434.549)">
					<line class="st0" x1="41" y1="0" x2="36" y2="0"/>
					<g transform="translate(-6 0)">
						<text transform="matrix(1 0 0 1 -9.6064 -1.828750e-04)" class="st1 st2">3086.15</text>
					</g>
				</g>
				<g transform="translate(40 416.821)">
					<line class="st0" x1="41" y1="0" x2="36" y2="0"/>
					<g transform="translate(-6 0)">
						<text transform="matrix(1 0 0 1 -9.6064 -2.132188e-04)" class="st1 st2">3136.67</text>
					</g>
				</g>
				<g transform="translate(40 399.092)">
					<line class="st0" x1="41" y1="0" x2="36" y2="0"/>
					<g transform="translate(-6 0)">
						<text transform="matrix(1 0 0 1 -9.6064 -2.131250e-04)" class="st1 st2">3785.84</text>
					</g>
				</g>
				<g transform="translate(40 381.364)">
					<line class="st0" x1="41" y1="0" x2="36" y2="0"/>
					<g transform="translate(-6 0)">
						<text transform="matrix(1 0 0 1 -9.6064 2.438125e-04)" class="st1 st2">3914.71</text>
					</g>
				</g>
				<g transform="translate(40 363.636)">
					<line class="st0" x1="41" y1="0" x2="36" y2="0"/>
					<g transform="translate(-6 0)">
						<text transform="matrix(1 0 0 1 -9.6064 -2.438125e-04)" class="st1 st2">4628.27</text>
					</g>
				</g>
				<g transform="translate(40 345.908)">
					<line class="st0" x1="41" y1="0" x2="36" y2="0"/>
					<g transform="translate(-6 0)">
						<text transform="matrix(1 0 0 1 -9.6064 2.131250e-04)" class="st1 st2">4850.61</text>
					</g>
				</g>
				<g transform="translate(40 328.179)">
					<line class="st0" x1="41" y1="0" x2="36" y2="0"/>
					<g transform="translate(-6 0)">
						<text transform="matrix(1 0 0 1 -9.6064 2.132188e-04)" class="st1 st2">4897.12</text>
					</g>
				</g>
				<g transform="translate(40 310.451)">
					<line class="st0" x1="41" y1="0" x2="36" y2="0"/>
					<g transform="translate(-6 0)">
						<text transform="matrix(1 0 0 1 -9.6064 1.828750e-04)" class="st1 st2">4944.57</text>
					</g>
				</g>
				<g transform="translate(40 292.723)">
					<line class="st0" x1="41" y1="0" x2="36" y2="0"/>
					<g transform="translate(-6 0)">
						<text transform="matrix(1 0 0 1 -9.6064 1.525313e-04)" class="st1 st2">5572.09</text>
					</g>
				</g>
				<g transform="translate(40 274.995)">
					<line class="st0" x1="41" y1="0" x2="36" y2="0"/>
					<g transform="translate(-6 0)">
						<text transform="matrix(1 0 0 1 -9.6064 1.221875e-04)" class="st1 st2">6293.12</text>
					</g>
				</g>
				<g transform="translate(40 257.267)">
					<line class="st0" x1="41" y1="0" x2="36" y2="0"/>
					<g transform="translate(-6 0)">
						<text transform="matrix(1 0 0 1 -9.6064 9.184375e-05)" class="st1 st2">8994.37</text>
					</g>
				</g>
				<g transform="translate(40 239.538)">
					<line class="st0" x1="41" y1="0" x2="36" y2="0"/>
					<g transform="translate(-6 0)">
						<text transform="matrix(1 0 0 1 -17.3926 9.193750e-05)" class="st1 st2">10591.27</text>
					</g>
				</g>
				<g transform="translate(40 221.81)">
					<line class="st0" x1="41" y1="0" x2="36" y2="0"/>
					<g transform="translate(-6 0)">
						<text transform="matrix(1 0 0 1 -17.3926 6.059375e-05)" class="st1 st2">10612.70</text>
					</g>
				</g>
				<g transform="translate(40 204.082)">
					<line class="st0" x1="41" y1="0" x2="36" y2="0"/>
					<g transform="translate(-6 0)">
						<text transform="matrix(1 0 0 1 -17.3926 3.025000e-05)" class="st1 st2">16163.08</text>
					</g>
				</g>
				<g transform="translate(40 186.354)">
					<line class="st0" x1="41" y1="0" x2="36" y2="0"/>
					<g transform="translate(-6 0)">
						<text transform="matrix(1 0 0 1 -17.3926 0)" class="st1 st2">16443.91</text>
					</g>
				</g>
				<g transform="translate(40 168.626)">
					<line class="st0" x1="41" y1="0" x2="36" y2="0"/>
					<g transform="translate(-6 0)">
						<text transform="matrix(1 0 0 1 -17.3926 -3.043750e-05)" class="st1 st2">18204.39</text>
					</g>
				</g>
				<g transform="translate(40 150.897)">
					<line class="st0" x1="41" y1="0" x2="36" y2="0"/>
					<g transform="translate(-6 0)">
						<text transform="matrix(1 0 0 1 -17.3926 -3.034375e-05)" class="st1 st2">26538.82</text>
					</g>
				</g>
				<g transform="translate(40 133.169)">
					<line class="st0" x1="41" y1="0" x2="36" y2="0"/>
					<g transform="translate(-6 0)">
						<text transform="matrix(1 0 0 1 -17.3926 -6.068750e-05)" class="st1 st2">30697.34</text>
					</g>
				</g>
				<g transform="translate(40 115.441)">
					<line class="st0" x1="41" y1="0" x2="36" y2="0"/>
					<g transform="translate(-6 0)">
						<text transform="matrix(1 0 0 1 -17.3926 -8.403125e-05)" class="st1 st2">31750.41</text>
					</g>
				</g>
				<g transform="translate(40 97.7128)">
					<line class="st0" x1="41" y1="0" x2="36" y2="0"/>
					<g transform="translate(-6 0)">
						<text transform="matrix(1 0 0 1 -17.3926 9.162500e-05)" class="st1 st2">34549.04</text>
					</g>
				</g>
				<g transform="translate(40 79.9846)">
					<line class="st0" x1="41" y1="0" x2="36" y2="0"/>
					<g transform="translate(-6 0)">
						<text transform="matrix(1 0 0 1 -17.3926 -2.210000e-04)" class="st1 st2">77301.98</text>
					</g>
				</g>
				<g transform="translate(40 62.2564)">
					<line class="st0" x1="41" y1="0" x2="36" y2="0"/>
					<g transform="translate(-6 0)">
						<text transform="matrix(1 0 0 1 -25.1787 -5.334375e-05)" class="st1 st2">150565.58</text>
					</g>
				</g>
				<g transform="translate(40 44.5282)">
					<line class="st0" x1="41" y1="0" x2="36" y2="0"/>
					<g transform="translate(-6 0)">
						<text transform="matrix(1 0 0 1 -25.1787 1.223125e-04)" class="st1 st2">200367.92</text>
					</g>
				</g>
				<g transform="translate(40 26.8)">
					<line class="st0" x1="41" y1="0" x2="36" y2="0"/>
					<g transform="translate(-6 0)">
						<text transform="matrix(1 0 0 1 -25.1787 -1.943125e-04)" class="st1 st2">342638.92</text>
					</g>
				</g>
			</g>
		</g>
	</g>
	<g>
		<g transform="translate(800.698 26.8)">
			<g transform="translate(155.802 336.836)">
				<g transform="translate(-11.75 354.564)">
					<path class="st0" d="M41,0v-354.6h11.8"/>
					<rect x="38" y="-3" width="6" height="6"/>
					<text transform="matrix(1 0 0 1 33.2139 11.0002)" class="st1 st2">24</text>
				</g>
				<g transform="translate(11.75 354.564)">
					<path class="st0" d="M41,0v-354.6H29.2"/>
					<rect x="38" y="-3" width="6" height="6"/>
					<text transform="matrix(1 0 0 1 33.2139 11.0002)" class="st1 st2">25</text>
				</g>
				<path class="st0" d="M41,0v-336.8h-155.8"/>
				<circle cx="41" cy="0" r="3"/>
				<text transform="matrix(1 0 0 1 44 -6.9998)" class="st1 st2">59</text>
			</g>
			<g transform="translate(-155.802 17.7282)">
				<g transform="translate(276.354 673.672)">
					<path class="st0" d="M41,0v-673.7h-276.4"/>
					<rect x="38" y="-3" width="6" height="6"/>
					<text transform="matrix(1 0 0 1 33.2139 11)" class="st1 st2">13</text>
				</g>
				<g transform="translate(-276.354 17.7282)">
					<g transform="translate(-219.119 141.826)">
						<g transform="translate(-47.7344 141.826)">
							<g transform="translate(20.5625 372.292)">
								<path class="st0" d="M41,0v-372.3H20.4"/>
								<rect x="38" y="-3" width="6" height="6"/>
								<text transform="matrix(1 0 0 1 33.2138 10.9998)" class="st1 st2">30</text>
							</g>
							<g transform="translate(-20.5625 159.554)">
								<g transform="translate(17.625 212.738)">
									<path class="st0" d="M41,0v-212.7H23.4"/>
									<rect x="38" y="-3" width="6" height="6"/>
									<text transform="matrix(1 0 0 1 33.2138 10.9998)" class="st1 st2">33</text>
								</g>
								<g transform="translate(-17.625 124.097)">
									<g transform="translate(-11.75 88.641)">
										<path class="st0" d="M41,0v-88.6h11.8"/>
										<rect x="38" y="-3" width="6" height="6"/>
										<text transform="matrix(1 0 0 1 37.1068 10.9998)" class="st1 st2">0</text>
									</g>
									<g transform="translate(11.75 88.641)">
										<path class="st0" d="M41,0v-88.6H29.2"/>
										<rect x="38" y="-3" width="6" height="6"/>
										<text transform="matrix(1 0 0 1 37.1068 10.9998)" class="st1 st2">1</text>
									</g>
									<path class="st0" d="M41,0v-124.1h17.6"/>
									<circle cx="41" cy="0" r="3"/>
									<text transform="matrix(1 0 0 1 22.4276 -6.9998)" class="st1 st2">44</text>
								</g>
								<path class="st0" d="M41,0v-159.6h20.6"/>
								<circle cx="41" cy="0" r="3"/>
								<text transform="matrix(1 0 0 1 22.4276 -7)" class="st1 st2">51</text>
							</g>
							<path class="st0" d="M41,0v-141.8h47.7"/>
							<circle cx="41" cy="0" r="3"/>
							<text transform="matrix(1 0 0 1 22.4276 -7.0002)" class="st1 st2">60</text>
						</g>
						<g transform="translate(47.7344 35.4564)">
							<g transform="translate(-39.6562 425.477)">
								<g transform="translate(-11.75 53.1846)">
									<path class="st0" d="M41,0v-53.2h11.8"/>
									<rect x="38" y="-3" width="6" height="6"/>
									<text transform="matrix(1 0 0 1 37.107 10.9998)" class="st1 st2">8</text>
								</g>
								<g transform="translate(11.75 53.1846)">
									<path class="st0" d="M41,0v-53.2H29.2"/>
									<rect x="38" y="-3" width="6" height="6"/>
									<text transform="matrix(1 0 0 1 33.2139 10.9998)" class="st1 st2">31</text>
								</g>
								<path class="st0" d="M41,0v-425.5h39.7"/>
								<circle cx="41" cy="0" r="3"/>
								<text transform="matrix(1 0 0 1 22.4278 -7.0002)" class="st1 st2">42</text>
							</g>
							<g transform="translate(39.6562 159.554)">
								<g transform="translate(32.3125 124.097)">
									<g transform="translate(17.625 195.01)">
										<path class="st0" d="M41,0v-195H23.4"/>
										<rect x="38" y="-3" width="6" height="6"/>
										<text transform="matrix(1 0 0 1 33.2138 10.9999)" class="st1 st2">35</text>
									</g>
									<g transform="translate(-17.625 35.4564)">
										<g transform="translate(-11.75 159.554)">
											<path class="st0" d="M41,0v-159.6h11.8"/>
											<rect x="38" y="-3" width="6" height="6"/>
											<text transform="matrix(1 0 0 1 33.2138 11)" class="st1 st2">27</text>
										</g>
										<g transform="translate(11.75 159.554)">
											<path class="st0" d="M41,0v-159.6H29.2"/>
											<rect x="38" y="-3" width="6" height="6"/>
											<text transform="matrix(1 0 0 1 33.2138 11)" class="st1 st2">34</text>
										</g>
										<path class="st0" d="M41,0v-35.5h17.6"/>
										<circle cx="41" cy="0" r="3"/>
										<text transform="matrix(1 0 0 1 22.4276 -7.0002)" class="st1 st2">48</text>
									</g>
									<path class="st0" d="M41,0v-124.1H8.7"/>
									<circle cx="41" cy="0" r="3"/>
									<text transform="matrix(1 0 0 1 43.9999 -6.9999)" class="st1 st2">50</text>
								</g>
								<g transform="translate(-32.3125 70.9128)">
									<g transform="translate(-11.75 248.195)">
										<path class="st0" d="M41,0v-248.2h11.8"/>
										<rect x="38" y="-3" width="6" height="6"/>
										<text transform="matrix(1 0 0 1 33.2138 11.0001)" class="st1 st2">15</text>
									</g>
									<g transform="translate(11.75 248.195)">
										<path class="st0" d="M41,0v-248.2H29.2"/>
										<rect x="38" y="-3" width="6" height="6"/>
										<text transform="matrix(1 0 0 1 33.2138 11.0001)" class="st1 st2">21</text>
									</g>
									<path class="st0" d="M41,0v-70.9h32.3"/>
									<circle cx="41" cy="0" r="3"/>
									<text transform="matrix(1 0 0 1 22.4276 -7.0002)" class="st1 st2">53</text>
								</g>
								<path class="st0" d="M41,0v-159.6H1.3"/>
								<circle cx="41" cy="0" r="3"/>
								<text transform="matrix(1 0 0 1 43.9999 -7)" class="st1 st2">57</text>
							</g>
							<path class="st0" d="M41,0v-35.5H-6.7"/>
							<circle cx="41" cy="0" r="3"/>
							<text transform="matrix(1 0 0 1 44.0001 -7.0002)" class="st1 st2">66</text>
						</g>
						<path class="st0" d="M41,0v-141.8h219.1"/>
						<circle cx="41" cy="0" r="3"/>
						<text transform="matrix(1 0 0 1 22.4278 -6.9999)" class="st1 st2">68</text>
					</g>
					<g transform="translate(219.119 17.7282)">
						<g transform="translate(-180.473 106.369)">
							<g transform="translate(47 265.923)">
								<g transform="translate(20.5625 265.923)">
									<path class="st0" d="M41,0v-265.9H20.4"/>
									<rect x="38" y="-3" width="6" height="6"/>
									<text transform="matrix(1 0 0 1 33.2139 11.0001)" class="st1 st2">39</text>
								</g>
								<g transform="translate(-20.5625 124.097)">
									<g transform="translate(17.625 141.826)">
										<path class="st0" d="M41,0v-141.8H23.4"/>
										<rect x="38" y="-3" width="6" height="6"/>
										<text transform="matrix(1 0 0 1 33.2139 11.0001)" class="st1 st2">32</text>
									</g>
									<g transform="translate(-17.625 17.7282)">
										<g transform="translate(-11.75 124.097)">
											<path class="st0" d="M41,0v-124.1h11.8"/>
											<rect x="38" y="-3" width="6" height="6"/>
											<text transform="matrix(1 0 0 1 33.2139 10.9999)" class="st1 st2">22</text>
										</g>
										<g transform="translate(11.75 124.097)">
											<path class="st0" d="M41,0v-124.1H29.2"/>
											<rect x="38" y="-3" width="6" height="6"/>
											<text transform="matrix(1 0 0 1 33.2139 10.9999)" class="st1 st2">26</text>
										</g>
										<path class="st0" d="M41,0v-17.7h17.6"/>
										<circle cx="41" cy="0" r="3"/>
										<text transform="matrix(1 0 0 1 22.4277 -6.9998)" class="st1 st2">46</text>
									</g>
									<path class="st0" d="M41,0v-124.1h20.6"/>
									<circle cx="41" cy="0" r="3"/>
									<text transform="matrix(1 0 0 1 22.4277 -7.0001)" class="st1 st2">47</text>
								</g>
								<path class="st0" d="M41,0v-265.9H-6"/>
								<circle cx="41" cy="0" r="3"/>
								<text transform="matrix(1 0 0 1 44 -7.0002)" class="st1 st2">54</text>
							</g>
							<g transform="translate(-47 230.467)">
								<g transform="translate(20.5625 301.379)">
									<path class="st0" d="M41,0v-301.4H20.4"/>
									<rect x="38" y="-3" width="6" height="6"/>
									<text transform="matrix(1 0 0 1 33.2139 11.0001)" class="st1 st2">20</text>
								</g>
								<g transform="translate(-20.5625 195.01)">
									<g transform="translate(17.625 106.369)">
										<path class="st0" d="M41,0v-106.4H23.4"/>
										<rect x="38" y="-3" width="6" height="6"/>
										<text transform="matrix(1 0 0 1 37.1069 11.0001)" class="st1 st2">9</text>
									</g>
									<g transform="translate(-17.625 70.9128)">
										<g transform="translate(-11.75 35.4564)">
											<path class="st0" d="M41,0v-35.5h11.8"/>
											<rect x="38" y="-3" width="6" height="6"/>
											<text transform="matrix(1 0 0 1 37.1069 10.9999)" class="st1 st2">2</text>
										</g>
										<g transform="translate(11.75 35.4564)">
											<path class="st0" d="M41,0v-35.5H29.2"/>
											<rect x="38" y="-3" width="6" height="6"/>
											<text transform="matrix(1 0 0 1 37.1069 10.9999)" class="st1 st2">3</text>
										</g>
										<path class="st0" d="M41,0v-70.9h17.6"/>
										<circle cx="41" cy="0" r="3"/>
										<text transform="matrix(1 0 0 1 22.4277 -7.0002)" class="st1 st2">41</text>
									</g>
									<path class="st0" d="M41,0v-195h20.6"/>
									<circle cx="41" cy="0" r="3"/>
									<text transform="matrix(1 0 0 1 22.4277 -7)" class="st1 st2">45</text>
								</g>
								<path class="st0" d="M41,0v-230.5h47"/>
								<circle cx="41" cy="0" r="3"/>
								<text transform="matrix(1 0 0 1 22.4277 -6.9998)" class="st1 st2">56</text>
							</g>
							<path class="st0" d="M41,0v-106.4h180.5"/>
							<circle cx="41" cy="0" r="3"/>
							<text transform="matrix(1 0 0 1 22.4277 -7.0001)" class="st1 st2">69</text>
						</g>
						<g transform="translate(180.473 17.7282)">
							<g transform="translate(106.852 35.4564)">
								<g transform="translate(22.7656 585.031)">
									<path class="st0" d="M41,0v-585H18.2"/>
									<rect x="38" y="-3" width="6" height="6"/>
									<text transform="matrix(1 0 0 1 33.2137 11)" class="st1 st2">36</text>
								</g>
								<g transform="translate(-22.7656 17.7282)">
									<g transform="translate(22.0312 567.303)">
										<path class="st0" d="M41,0v-567.3H19"/>
										<rect x="38" y="-3" width="6" height="6"/>
										<text transform="matrix(1 0 0 1 33.2137 10.9998)" class="st1 st2">16</text>
									</g>
									<g transform="translate(-22.0312 159.554)">
										<g transform="translate(20.5625 407.749)">
											<path class="st0" d="M41,0v-407.7H20.4"/>
											<rect x="38" y="-3" width="6" height="6"/>
											<text transform="matrix(1 0 0 1 33.2139 10.9998)" class="st1 st2">23</text>
										</g>
										<g transform="translate(-20.5625 124.097)">
											<g transform="translate(17.625 283.651)">
												<path class="st0" d="M41,0v-283.7H23.4"/>
												<rect x="38" y="-3" width="6" height="6"/>
												<text transform="matrix(1 0 0 1 33.2139 10.9998)" class="st1 st2">29</text>
											</g>
											<g transform="translate(-17.625 212.738)">
												<g transform="translate(-11.75 70.9128)">
													<path class="st0" d="M41,0v-70.9h11.8"/>
													<rect x="38" y="-3" width="6" height="6"/>
													<text transform="matrix(1 0 0 1 37.1069 11)" class="st1 st2">6</text>
												</g>
												<g transform="translate(11.75 70.9128)">
													<path class="st0" d="M41,0v-70.9H29.2"/>
													<rect x="38" y="-3" width="6" height="6"/>
													<text transform="matrix(1 0 0 1 37.1069 11)" class="st1 st2">7</text>
												</g>
												<path class="st0" d="M41,0v-212.7h17.6"/>
												<circle cx="41" cy="0" r="3"/>
												<text transform="matrix(1 0 0 1 22.4277 -6.9998)" class="st1 st2">43</text>
											</g>
											<path class="st0" d="M41,0v-124.1h20.6"/>
											<circle cx="41" cy="0" r="3"/>
											<text transform="matrix(1 0 0 1 22.4277 -7.0001)" class="st1 st2">55</text>
										</g>
										<path class="st0" d="M41,0v-159.6h22"/>
										<circle cx="41" cy="0" r="3"/>
										<text transform="matrix(1 0 0 1 22.4277 -7.0002)" class="st1 st2">62</text>
									</g>
									<path class="st0" d="M41,0v-17.7h22.8"/>
									<circle cx="41" cy="0" r="3"/>
									<text transform="matrix(1 0 0 1 22.4278 -6.9999)" class="st1 st2">71</text>
								</g>
								<path class="st0" d="M41,0v-35.5H-65.9"/>
								<circle cx="41" cy="0" r="3"/>
								<text transform="matrix(1 0 0 1 44.0001 -6.9998)" class="st1 st2">72</text>
							</g>
							<g transform="translate(-106.852 17.7282)">
								<g transform="translate(66.0938 159.554)">
									<g transform="translate(29.375 443.205)">
										<path class="st0" d="M41,0v-443.2H11.6"/>
										<rect x="38" y="-3" width="6" height="6"/>
										<text transform="matrix(1 0 0 1 33.2138 11.0002)" class="st1 st2">38</text>
									</g>
									<g transform="translate(-29.375 17.7282)">
										<g transform="translate(-23.5 407.749)">
											<g transform="translate(-11.75 17.7282)">
												<path class="st0" d="M41,0v-17.7h11.8"/>
												<rect x="38" y="-3" width="6" height="6"/>
												<text transform="matrix(1 0 0 1 33.2138 10.9998)" class="st1 st2">12</text>
											</g>
											<g transform="translate(11.75 17.7282)">
												<path class="st0" d="M41,0v-17.7H29.2"/>
												<rect x="38" y="-3" width="6" height="6"/>
												<text transform="matrix(1 0 0 1 33.2138 10.9998)" class="st1 st2">37</text>
											</g>
											<path class="st0" d="M41,0v-407.7h23.5"/>
											<circle cx="41" cy="0" r="3"/>
											<text transform="matrix(1 0 0 1 22.4277 -7)" class="st1 st2">40</text>
										</g>
										<g transform="translate(23.5 35.4564)">
											<g transform="translate(-11.75 390.021)">
												<path class="st0" d="M41,0v-390h11.8"/>
												<rect x="38" y="-3" width="6" height="6"/>
												<text transform="matrix(1 0 0 1 33.2138 11.0001)" class="st1 st2">17</text>
											</g>
											<g transform="translate(11.75 390.021)">
												<path class="st0" d="M41,0v-390H29.2"/>
												<rect x="38" y="-3" width="6" height="6"/>
												<text transform="matrix(1 0 0 1 33.2138 11.0001)" class="st1 st2">28</text>
											</g>
											<path class="st0" d="M41,0v-35.5H17.5"/>
											<circle cx="41" cy="0" r="3"/>
											<text transform="matrix(1 0 0 1 43.9999 -6.9999)" class="st1 st2">61</text>
										</g>
										<path class="st0" d="M41,0v-17.7h29.4"/>
										<circle cx="41" cy="0" r="3"/>
										<text transform="matrix(1 0 0 1 22.4277 -7.0001)" class="st1 st2">63</text>
									</g>
									<path class="st0" d="M41,0v-159.6h-66.1"/>
									<circle cx="41" cy="0" r="3"/>
									<text transform="matrix(1 0 0 1 43.9999 -6.9999)" class="st1 st2">64</text>
								</g>
								<g transform="translate(-66.0938 53.1846)">
									<g transform="translate(32.3125 212.738)">
										<g transform="translate(-11.75 336.836)">
											<path class="st0" d="M41,0v-336.8h11.8"/>
											<rect x="38" y="-3" width="6" height="6"/>
											<text transform="matrix(1 0 0 1 33.7334 11.0001)" class="st1 st2">11</text>
										</g>
										<g transform="translate(11.75 336.836)">
											<path class="st0" d="M41,0v-336.8H29.2"/>
											<rect x="38" y="-3" width="6" height="6"/>
											<text transform="matrix(1 0 0 1 33.2139 11.0001)" class="st1 st2">19</text>
										</g>
										<path class="st0" d="M41,0v-212.7H8.7"/>
										<circle cx="41" cy="0" r="3"/>
										<text transform="matrix(1 0 0 1 44 -6.9998)" class="st1 st2">58</text>
									</g>
									<g transform="translate(-32.3125 53.1846)">
										<g transform="translate(29.375 496.39)">
											<path class="st0" d="M41,0v-496.4H11.6"/>
											<rect x="38" y="-3" width="6" height="6"/>
											<text transform="matrix(1 0 0 1 33.2139 11)" class="st1 st2">18</text>
										</g>
										<g transform="translate(-29.375 35.4564)">
											<g transform="translate(23.5 283.651)">
												<g transform="translate(-11.75 177.282)">
													<path class="st0" d="M41,0v-177.3h11.8"/>
													<rect x="38" y="-3" width="6" height="6"/>
													<text transform="matrix(1 0 0 1 33.2139 11.0001)" class="st1 st2">10</text>
												</g>
												<g transform="translate(11.75 177.282)">
													<path class="st0" d="M41,0v-177.3H29.2"/>
													<rect x="38" y="-3" width="6" height="6"/>
													<text transform="matrix(1 0 0 1 33.2139 11.0001)" class="st1 st2">14</text>
												</g>
												<path class="st0" d="M41,0v-283.7H17.5"/>
												<circle cx="41" cy="0" r="3"/>
												<text transform="matrix(1 0 0 1 44 -7.0001)" class="st1 st2">49</text>
											</g>
											<g transform="translate(-23.5 230.467)">
												<g transform="translate(-11.75 230.467)">
													<path class="st0" d="M41,0v-230.5h11.8"/>
													<rect x="38" y="-3" width="6" height="6"/>
													<text transform="matrix(1 0 0 1 37.107 11.0001)" class="st1 st2">4</text>
												</g>
												<g transform="translate(11.75 230.467)">
													<path class="st0" d="M41,0v-230.5H29.2"/>
													<rect x="38" y="-3" width="6" height="6"/>
													<text transform="matrix(1 0 0 1 37.107 11.0001)" class="st1 st2">5</text>
												</g>
												<path class="st0" d="M41,0v-230.5h23.5"/>
												<circle cx="41" cy="0" r="3"/>
												<text transform="matrix(1 0 0 1 22.4278 -7.0002)" class="st1 st2">52</text>
											</g>
											<path class="st0" d="M41,0v-35.5h29.4"/>
											<circle cx="41" cy="0" r="3"/>
											<text transform="matrix(1 0 0 1 22.4278 -7)" class="st1 st2">65</text>
										</g>
										<path class="st0" d="M41,0v-53.2h32.3"/>
										<circle cx="41" cy="0" r="3"/>
										<text transform="matrix(1 0 0 1 22.4278 -7.0001)" class="st1 st2">67</text>
									</g>
									<path class="st0" d="M41,0v-53.2h66.1"/>
									<circle cx="41" cy="0" r="3"/>
									<text transform="matrix(1 0 0 1 22.4278 -7.0001)" class="st1 st2">70</text>
								</g>
								<path class="st0" d="M41,0v-17.7h106.9"/>
								<circle cx="41" cy="0" r="3"/>
								<text transform="matrix(1 0 0 1 22.4277 -7.0001)" class="st1 st2">73</text>
							</g>
							<path class="st0" d="M41,0v-17.7h-180.5"/>
							<circle cx="41" cy="0" r="3"/>
							<text transform="matrix(1 0 0 1 44 -6.9999)" class="st1 st2">74</text>
						</g>
						<path class="st0" d="M41,0v-17.7h-219.1"/>
						<circle cx="41" cy="0" r="3"/>
						<text transform="matrix(1 0 0 1 44.0001 -7.0002)" class="st1 st2">75</text>
					</g>
					<path class="st0" d="M41,0v-17.7h276.4"/>
					<circle cx="41" cy="0" r="3"/>
					<text transform="matrix(1 0 0 1 22.4277 -7.0001)" class="st1 st2">76</text>
				</g>
				<path class="st0" d="M41,0v-17.7h155.8"/>
				<circle cx="41" cy="0" r="3"/>
				<text transform="matrix(1 0 0 1 22.4277 -6.9999)" class="st1 st2">77</text>
			</g>
			<circle cx="41" cy="0" r="3"/>
			<text transform="matrix(1 0 0 1 33.2139 -11.0002)" class="st1 st2">78</text>
		</g>
	</g>
</g>
</svg>
