<?xml version="1.0" encoding="utf-8"?>
<!-- Generator: Adobe Illustrator 25.2.1, SVG Export Plug-In . SVG Version: 6.00 Build 0)  -->
<svg version="1.1" id="Layer_1" xmlns="http://www.w3.org/2000/svg" xmlns:xlink="http://www.w3.org/1999/xlink" x="0px" y="0px"
	 viewBox="0 0 825 526.4" style="enable-background:new 0 0 825 526.4;" xml:space="preserve">
<style type="text/css">
	.st0{fill:none;stroke:#000000;stroke-width:2;stroke-miterlimit:10;}
	.st1{font-family:'Helvetica';}
	.st2{font-size:18px;}
	.st3{fill:none;stroke:#ED2024;stroke-width:2;stroke-miterlimit:10;}
	.st4{fill:#ED2024;}
</style>
<g>
	<path class="st0" d="M137.5,301.5l60-180l60,120l60-60l60,120"/>
	<path class="st0" d="M257.5,241.5v60"/>
	<text transform="matrix(1 0 0 1 132.5039 319.5117)" class="st1 st2">0</text>
	<text transform="matrix(1 0 0 1 252.5039 319.5117)" class="st1 st2">1</text>
	<text transform="matrix(1 0 0 1 372.5039 319.5117)" class="st1 st2">2</text>
	<text transform="matrix(1 0 0 1 255.5039 227.5117)" class="st1 st2">3</text>
	<text transform="matrix(1 0 0 1 312.5039 169.5117)" class="st1 st2">4</text>
	<text transform="matrix(1 0 0 1 192.5039 109.5117)" class="st1 st2">5</text>
	<text transform="matrix(1 0 0 1 432.5039 319.5117)" class="st1 st2">0</text>
	<text transform="matrix(1 0 0 1 567.5039 229.5117)" class="st1 st2">3</text>
	<text transform="matrix(1 0 0 1 492.5039 109.5117)" class="st1 st2">5</text>
	<path class="st0" d="M437.5,301.5l60-180l60,120v60"/>
	<text transform="matrix(1 0 0 1 552.5039 319.5117)" class="st1 st2">1</text>
	<g>
		<g>
			<line class="st3" x1="302.5" y1="211.5" x2="276.8" y2="237.2"/>
			<g>
				<path class="st4" d="M272.5,241.5c1.3-2.8,2.5-6.5,2.7-9.4l2.1,4.6l4.6,2.1C279,239,275.3,240.2,272.5,241.5z"/>
			</g>
		</g>
	</g>
	<text transform="matrix(1 0 0 1 402.5039 214.5117)" class="st1 st2">=</text>
	<path class="st0" d="M557.5,241.5l60,60l60,120"/>
	<text transform="matrix(1 0 0 1 627.5039 289.5117)" class="st1 st2">4</text>
	<text transform="matrix(1 0 0 1 672.5039 439.5117)" class="st1 st2">2</text>
	<g>
		<g>
			<line class="st3" x1="602.5" y1="301.5" x2="576.8" y2="275.8"/>
			<g>
				<path class="st4" d="M572.5,271.5c2.8,1.3,6.5,2.5,9.4,2.7l-4.6,2.1l-2.1,4.6C575,278,573.8,274.3,572.5,271.5z"/>
			</g>
		</g>
	</g>
</g>
</svg>
