<?xml version="1.0" encoding="utf-8"?>
<!-- Generator: Adobe Illustrator 25.2.1, SVG Export Plug-In . SVG Version: 6.00 Build 0)  -->
<svg version="1.1" id="Layer_1" xmlns:ev="http://www.w3.org/2001/xml-events"
	 xmlns="http://www.w3.org/2000/svg" xmlns:xlink="http://www.w3.org/1999/xlink" x="0px" y="0px" viewBox="0 0 6000 6000"
	 style="enable-background:new 0 0 6000 6000;" xml:space="preserve">
<style type="text/css">
	.st0{fill:none;stroke:#0C2320;stroke-linecap:round;}
	.st1{fill:none;stroke:#0C2320;}
	.st2{fill:#0C2320;}
	.st3{font-family:'ArialMT';}
	.st4{font-size:19px;}
	.st5{fill:none;stroke:#0C2320;stroke-width:2;}
	.st6{fill:none;stroke:#E95E0D;stroke-width:5;stroke-linecap:round;stroke-linejoin:round;}
	.st7{fill:none;stroke:#E95E0D;stroke-width:5;stroke-linecap:round;stroke-linejoin:round;stroke-dasharray:12;}
	.st8{fill:#E95E0D;}
	.st9{display:none;}
	.st10{display:inline;fill:#0C2320;}
	.st11{display:inline;fill:none;stroke:#0C2320;stroke-dasharray:12;}
	.st12{display:inline;}
	.st13{fill:none;stroke:#0C2320;stroke-dasharray:11.9951,11.9951;}
	.st14{fill:none;stroke:#0C2320;stroke-dasharray:12.0098,12.0098;}
	.st15{opacity:0.25;fill:#E95E0D;}
</style>
<g>
	<g>
		<g>
			<line class="st0" x1="1415.9" y1="2785.3" x2="1415.9" y2="2506.3"/>
			<g>
				<g transform="translate(56.8 921.4)">
					<line class="st1" x1="1359.1" y1="1863.9" x2="1357.6" y2="1863.9"/>
					<g transform="translate(-6 0)">
						<text transform="matrix(1 0 0 1 1350.0776 1868.8685)" class="st2 st3 st4">0</text>
					</g>
				</g>
				<g transform="translate(56.8 831.94)">
					<line class="st1" x1="1359.1" y1="1925.9" x2="1357.6" y2="1925.9"/>
					<g transform="translate(-6 0)">
						<text transform="matrix(1 0 0 1 1328.1772 1930.9448)" class="st2 st3 st4">100</text>
					</g>
				</g>
				<g transform="translate(56.8 742.48)">
					<line class="st1" x1="1359.1" y1="1988" x2="1357.6" y2="1988"/>
					<g transform="translate(-6 0)">
						<text transform="matrix(1 0 0 1 1328.1772 1993.021)" class="st2 st3 st4">200</text>
					</g>
				</g>
				<g transform="translate(56.8 653.02)">
					<line class="st1" x1="1359.1" y1="2050.1" x2="1357.6" y2="2050.1"/>
					<g transform="translate(-6 0)">
						<text transform="matrix(1 0 0 1 1328.1772 2055.0972)" class="st2 st3 st4">300</text>
					</g>
				</g>
				<g transform="translate(56.8 563.56)">
					<line class="st1" x1="1359.1" y1="2112.2" x2="1357.6" y2="2112.2"/>
					<g transform="translate(-6 0)">
						<text transform="matrix(1 0 0 1 1328.1772 2117.1733)" class="st2 st3 st4">400</text>
					</g>
				</g>
				<g transform="translate(56.8 474.1)">
					<line class="st1" x1="1359.1" y1="2174.2" x2="1357.6" y2="2174.2"/>
					<g transform="translate(-6 0)">
						<text transform="matrix(1 0 0 1 1328.1772 2179.2495)" class="st2 st3 st4">500</text>
					</g>
				</g>
				<g transform="translate(56.8 384.64)">
					<line class="st1" x1="1359.1" y1="2236.3" x2="1357.6" y2="2236.3"/>
					<g transform="translate(-6 0)">
						<text transform="matrix(1 0 0 1 1328.1772 2241.3257)" class="st2 st3 st4">600</text>
					</g>
				</g>
				<g transform="translate(56.8 295.18)">
					<line class="st1" x1="1359.1" y1="2298.4" x2="1357.6" y2="2298.4"/>
					<g transform="translate(-6 0)">
						<text transform="matrix(1 0 0 1 1328.1772 2303.4021)" class="st2 st3 st4">700</text>
					</g>
				</g>
				<g transform="translate(56.8 205.72)">
					<line class="st1" x1="1359.1" y1="2360.5" x2="1357.6" y2="2360.5"/>
					<g transform="translate(-6 0)">
						<text transform="matrix(1 0 0 1 1328.1772 2365.4783)" class="st2 st3 st4">800</text>
					</g>
				</g>
				<g transform="translate(56.8 116.26)">
					<line class="st1" x1="1359.1" y1="2422.6" x2="1357.6" y2="2422.6"/>
					<g transform="translate(-6 0)">
						<text transform="matrix(1 0 0 1 1328.1772 2427.5544)" class="st2 st3 st4">900</text>
					</g>
				</g>
				<g transform="translate(56.8 26.8)">
					<line class="st1" x1="1359.1" y1="2484.6" x2="1357.6" y2="2484.6"/>
					<g transform="translate(-6 0)">
						<text transform="matrix(1 0 0 1 1317.2267 2489.6306)" class="st2 st3 st4">1000</text>
					</g>
				</g>
			</g>
		</g>
	</g>
	<g>
		<g transform="translate(56.8 0)">
			<g>
				<g transform="translate(19972.6 26.8)">
					<g transform="translate(0.0 250.488)">
						<g transform="translate(-75.2435 644.112)">
							<path class="st5" d="M-18497.9,1863.9v-197.2h91"/>
						</g>
						<g transform="translate(-49.0719 644.112)">
							<path class="st5" d="M-18492.4,1863.9v-197.2h59.3"/>
						</g>
						<g transform="translate(75.2435 393.624)">
							<g transform="translate(-19.6288 250.488)">
								<path class="st5" d="M-18470.5,1863.9v-76.7h23.7"/>
							</g>
							<g transform="translate(19.6288 178.92)">
								<g transform="translate(-13.0858 71.568)">
									<path class="st6" d="M-18465,1863.9V1842h15.8"/>
								</g>
								<g transform="translate(13.0858 71.568)">
									<path class="st5" d="M-18459.5,1863.9V1842h-15.8"/>
								</g>
								<path class="st6" d="M-18462.2,1913.5v-54.8h-23.7"/>
							</g>
							<path class="st6" d="M-18466.4,2037.7v-120.5h-91"/>
						</g>
						<g transform="translate(-3.27146 169.974)">
							<g transform="translate(-19.6288 474.138)">
								<path class="st5" d="M-18486.9,1863.9v-145.1h23.7"/>
							</g>
							<g transform="translate(19.6288 438.354)">
								<g transform="translate(-13.0858 35.784)">
									<path class="st5" d="M-18481.4,1863.9v-11h15.8"/>
								</g>
								<g transform="translate(13.0858 35.784)">
									<path class="st5" d="M-18475.9,1863.9v-11h-15.8"/>
								</g>
								<path class="st5" d="M-18478.7,1888.7v-134.2h-23.7"/>
							</g>
							<path class="st5" d="M-18482.8,2192.9v-52h4"/>
						</g>
						<path class="st7" d="M-18482.1,2310.8v-76.7l0,0"/>
					</g>
				</g>
			</g>
		</g>
	</g>
</g>
<text transform="matrix(1 0 0 1 1590.2181 2808.3682)" class="st8 st3 st4">Sample 1500</text>
<g class="st9">
	<circle class="st10" cx="1646.2" cy="2785.3" r="6.1"/>
	<line class="st11" x1="1646.2" y1="2785.3" x2="1422.1" y2="2785.3"/>
</g>
<g class="st9">
	<circle class="st10" cx="1662" cy="2757.9" r="6.1"/>
	<line class="st11" x1="1662" y1="2757.9" x2="1422.1" y2="2757.9"/>
</g>
<g class="st9">
	<circle class="st10" cx="1662" cy="2730.5" r="6.1"/>
	<g class="st12">
		<g>
			<line class="st1" x1="1662" y1="2730.5" x2="1656" y2="2730.5"/>
			<line class="st13" x1="1644" y1="2730.5" x2="1434.1" y2="2730.5"/>
			<line class="st1" x1="1428.1" y1="2730.5" x2="1422.1" y2="2730.5"/>
		</g>
	</g>
</g>
<g class="st9">
	<circle class="st10" cx="1638.3" cy="2703.1" r="6.1"/>
	<line class="st11" x1="1638.3" y1="2703.1" x2="1422.1" y2="2703.1"/>
</g>
<g class="st9">
	<circle class="st10" cx="1638.3" cy="2675.7" r="6.1"/>
	<g class="st12">
		<g>
			<line class="st1" x1="1638.3" y1="2675.7" x2="1632.3" y2="2675.7"/>
			<line class="st14" x1="1620.3" y1="2675.7" x2="1434.1" y2="2675.7"/>
			<line class="st1" x1="1428.1" y1="2675.7" x2="1422.1" y2="2675.7"/>
		</g>
	</g>
</g>
<g>
	<path class="st2" d="M1500.6,2903.1h-51.5c-8.7,0-15.7-7-15.7-15.7l0,0c0-8.7,7-15.7,15.7-15.7h51.5c8.7,0,15.7,7,15.7,15.7l0,0
		C1516.3,2896.1,1509.3,2903.1,1500.6,2903.1z"/>
	<path class="st2" d="M1669.2,2903.1H1532c-8.7,0-15.7-7-15.7-15.7l0,0c0-8.7,7-15.7,15.7-15.7h137.2c8.7,0,15.7,7,15.7,15.7l0,0
		C1684.8,2896.1,1677.8,2903.1,1669.2,2903.1z"/>
	<rect x="1493.9" y="2871.7" class="st8" width="5.7" height="31.3"/>
</g>
<polyline class="st15" points="1493.9,2871.7 1392.5,2823.1 1699.3,2823.1 1500.6,2871.7 "/>
</svg>
